<?xml version="1.0" encoding="utf-8"?>
<!-- Generator: Adobe Illustrator 22.1.0, SVG Export Plug-In . SVG Version: 6.00 Build 0)  -->
<svg version="1.1" id="图层_1" xmlns="http://www.w3.org/2000/svg" xmlns:xlink="http://www.w3.org/1999/xlink" x="0px" y="0px"
	 viewBox="0 0 200 200" style="enable-background:new 0 0 200 200;" xml:space="preserve">
<style type="text/css">
	.st0{fill:#FF5F5F;}
	.st1{fill:#FFFFFF;}
	.st2{fill:#F34D4B;}
	.st3{fill:#41CDC0;}
	.st4{fill:#593F3F;}
</style>
<g>
	<path class="st0" d="M0.1,105.8c0,51.9,42.1,94.1,94,94.1c51.9,0,94.1-42.1,94.1-94c0,0,0,0,0,0c0-51.9-42.1-94.1-94-94.1
		C42.3,11.7,0.1,53.8,0.1,105.8C0.1,105.8,0.1,105.8,0.1,105.8z"/>
	<path class="st0" d="M94.2,168.2c-16.7,0-32.3-6.5-44.1-18.3c-11.8-11.8-18.3-27.5-18.3-44.1s6.5-32.3,18.3-44.1
		s27.4-18.3,44.1-18.3s32.3,6.5,44.1,18.3s18.3,27.4,18.3,44.1s-6.5,32.3-18.3,44.1C126.5,161.7,110.9,168.2,94.2,168.2L94.2,168.2z
		"/>
	<path class="st1" d="M94.2,53.4c14,0,27.1,5.4,37,15.3c9.9,9.9,15.3,23,15.3,37s-5.4,27.1-15.3,37c-9.9,9.9-23,15.3-37,15.3
		s-27.1-5.4-37-15.3s-15.3-23-15.3-37s5.4-27.1,15.3-37S80.2,53.4,94.2,53.4 M94.2,33.4c-40,0-72.4,32.4-72.4,72.4
		s32.4,72.4,72.4,72.4s72.4-32.4,72.4-72.4S134.2,33.4,94.2,33.4z"/>
	<path class="st1" d="M65.5,105.8c0,15.9,12.9,28.7,28.7,28.8s28.7-12.9,28.8-28.7c0,0,0,0,0,0c0-15.9-12.9-28.7-28.7-28.7
		S65.5,89.9,65.5,105.8C65.5,105.8,65.5,105.8,65.5,105.8z"/>
	<path class="st2" d="M162,170.9l-2.9,2.9l-67.9-67.9l2.9-2.9L162,170.9z"/>
	<path class="st3" d="M166.8,58.3l-22.9-2l-2.2-23.1L174.9,0l2.2,23.1l22.9,2L166.8,58.3z"/>
	<path class="st4" d="M91.1,105.9l85.6-85.6l2.9,2.9L94,108.9L91.1,105.9z"/>
</g>
</svg>
