<?xml version="1.0" encoding="iso-8859-1"?>
<!-- Generator: Adobe Illustrator 22.1.0, SVG Export Plug-In . SVG Version: 6.00 Build 0)  -->
<svg version="1.1" id="&#x56FE;&#x5C42;_1" xmlns="http://www.w3.org/2000/svg" xmlns:xlink="http://www.w3.org/1999/xlink" viewBox="12.5 11 26 29.2" >
     <path style="fill:#FFFFFF;" d="M36.993,17.209L26.897,11.38c-0.818-0.472-1.826-0.472-2.644,0l-10.096,5.829
	c-0.818,0.472-1.322,1.345-1.322,2.29l-0.032,12.025c0,0.945,0.504,1.818,1.322,2.29l10.096,5.829c0.818,0.472,1.826,0.472,2.644,0
	l10.096-5.829c0.818-0.472,1.322-1.345,1.322-2.29l0.032-12.025C38.315,18.555,37.811,17.682,36.993,17.209z M23.843,16.452
	c0.956,0,1.732,0.804,1.732,1.795s-0.775,1.795-1.732,1.795c-0.956,0-1.732-0.804-1.732-1.795S22.887,16.452,23.843,16.452z
	 M32.451,33.393c-0.328,0.309-0.746,0.462-1.163,0.462c-0.451,0-0.901-0.179-1.235-0.533l-4.361-4.63
	c-0.042,0.035-0.085,0.068-0.13,0.098v3.295c0,0.937-0.76,1.696-1.696,1.696c-0.937,0-1.696-0.76-1.696-1.696v-9.081
	c0-0.937,0.76-1.696,1.696-1.696c0.937,0,1.696,0.76,1.696,1.696v0.925c0.007,0.002,0.014,0.004,0.022,0.006l4.109-4.252
	c0.651-0.674,1.725-0.692,2.399-0.041c0.674,0.651,0.692,1.725,0.041,2.399l-4.074,4.216l4.464,4.74
	C33.166,31.677,33.133,32.751,32.451,33.393z"/>
</svg>
