<?xml version="1.0" encoding="utf-8"?>
<!-- Generator: Adobe Illustrator 22.1.0, SVG Export Plug-In . SVG Version: 6.00 Build 0)  -->
<svg version="1.1" id="图层_1" xmlns="http://www.w3.org/2000/svg" xmlns:xlink="http://www.w3.org/1999/xlink" x="0px" y="0px"
	 viewBox="12.5 15.2 25.8 20.4" style="enable-background:new 0 0 51 51;" xml:space="preserve">
<style type="text/css">
	.st0{fill:#FFFFFF;}
</style>
<path class="st0" d="M18.8,22.9c0.9-5.4,3-7.6,6.9-7.5c3.8,0.1,6,2.6,6.6,7.5c4.1,0.8,6,2.9,5.9,6.7c-0.1,2.4-1.3,4.1-3.4,5.2
	c-2.1,1.1-4.2,0.9-6.2-0.4c-0.9-0.6-1.6-1.3-0.9-2.5c0.7-1.1,1.6-1,2.6-0.3c1.2,0.8,2.6,0.9,3.5-0.1c0.7-0.7,1.3-2,1.1-2.9
	s-1.3-2-2.2-2.3c-0.8-0.3-2.1,0.2-2.8,0.8c-2.2,2-4.2,4.1-6.3,6.2c-1.8,1.8-3.9,2.5-6.4,1.8c-2.3-0.7-3.8-2.3-4.4-4.6
	C12,26.9,14.5,23.7,18.8,22.9z M28.9,22.1c0-1.9-1.5-3.4-3.4-3.3c-1.8,0-3.3,1.5-3.3,3.3s1.5,3.4,3.4,3.4
	C27.4,25.5,28.9,24,28.9,22.1z M19,26.2c-1.6,0-3,1.3-3,3s1.3,3.1,3,3.1c1.6,0,3.1-1.5,3-3.1C22,27.6,20.5,26.2,19,26.2z"/>
</svg>
