<?xml version="1.0" standalone="no"?><!DOCTYPE svg PUBLIC "-//W3C//DTD SVG 1.1//EN" "http://www.w3.org/Graphics/SVG/1.1/DTD/svg11.dtd"><svg viewBox="0 0 1024 1024" version="1.1" xmlns="http://www.w3.org/2000/svg" xmlns:xlink="http://www.w3.org/1999/xlink" width="240" height="240"><path d="M908.476132 381.91678C906.708787 389.386567 902.3485 400.335302 896.230285 413.540139L896.36213 413.540139 895.662098 414.762985C859.966758 491.255619 766.768363 641.276988 766.768363 641.276988 766.768363 641.276988 766.649075 640.92309 766.281793 640.338526L739.046477 687.824121 870.300858 687.824121 619.611019 1021.705244 676.514496 794.575077 573.23627 794.575077 609.123099 644.383078C580.089048 651.394692 545.771797 661.038426 505.129146 674.123193 505.129146 674.123193 450.146832 706.372194 346.74618 612.08668 346.74618 612.08668 277.009836 550.552577 317.442162 535.176951 334.638457 528.639307 400.931147 520.344812 453.088222 513.282641 523.574824 503.740022 566.935984 498.687488 566.935984 498.687488 566.935984 498.687488 349.61851 501.94209 298.064154 493.821385 246.506659 485.700678 181.105488 399.545351 167.173915 323.80159 167.173915 323.80159 145.626749 282.221675 213.507853 301.907281 281.388956 321.592886 562.365372 378.538945 562.365372 378.538945 562.365372 378.538945 196.939388 266.334161 172.623488 238.960742 148.310728 211.587325 101.066433 89.536577 107.212899 14.538532 107.212899 14.538532 109.878042-4.158054 129.017475 0.853402 129.017475 0.853402 399.166942 124.493532 583.893702 192.176623 768.620462 259.859715 929.225953 294.285823 908.476132 381.91678L908.476132 381.91678Z" fill="#ffffff"></path></svg>
