<?xml version="1.0" encoding="utf-8"?>
<!-- Generator: Adobe Illustrator 22.1.0, SVG Export Plug-In . SVG Version: 6.00 Build 0)  -->
<svg version="1.1" id="图层_1" xmlns="http://www.w3.org/2000/svg" xmlns:xlink="http://www.w3.org/1999/xlink" x="0px" y="0px"
	 viewBox="12.5 13.8 26 23.2" style="enable-background:new 0 0 51 51;" xml:space="preserve">
<style type="text/css">
	.st0{fill:#FFFFFF;}
</style>
<g>
	<path class="st0" d="M16.5,23.4c-0.8,0-1.6,0-2.3,0c-0.6,0-1.1-0.1-1.3-0.6c-0.3-0.6-0.3-1.2,0-1.8c0.2-0.4,0.5-0.6,1-0.6
		c0.1,0,0.2,0,0.3,0c6,0,12.1,0,18.1,0c0.6,0,1.1,0.1,1.3,0.7s0.3,1.2-0.1,1.8c-0.2,0.3-0.6,0.5-1,0.5c-0.7,0-1.4,0-2.2,0
		c-0.1,0-0.2,0-0.4,0c0.1,0.4,0.2,0.8,0.3,1.1c0.6,2.2,1.2,4.4,1.9,6.6c0.3,1.2-0.4,2.1-1.6,2c-1.5-0.1-3,0-4.3,0.8
		c-1,0.6-1.7,1.4-2.2,2.4c-0.3,0.5-0.7,0.6-1.2,0.4c-0.1-0.1-0.2-0.2-0.3-0.3c-0.6-2-2.1-2.8-4.1-3.1c-0.8-0.1-1.6-0.2-2.4-0.1
		c-1.3,0.1-2-1-1.7-2.1c0.7-2.4,1.4-4.9,2.1-7.3C16.5,23.6,16.5,23.5,16.5,23.4z M28.8,30.1c0-0.1,0-0.1,0-0.2
		c-0.6-2.1-1.2-4.2-1.8-6.3c-0.1-0.2-0.2-0.2-0.4-0.2c-2.3,0-4.5,0-6.8,0c-0.3,0-0.4,0.1-0.4,0.3c-0.4,1.5-0.9,3.1-1.3,4.6
		c-0.2,0.6-0.3,1.2-0.5,1.9c2.6,0.3,4.2,2,5.7,3.9C24.9,32.3,26.4,30.6,28.8,30.1z"/>
	<path class="st0" d="M23.2,17c-2.1,0-4.3,0-6.4,0c-0.6,0-1.1-0.4-1.2-1c-0.2-0.8,0.1-1.4,0.7-1.7c0.2-0.1,0.4-0.1,0.6-0.1
		c4.3,0,8.5,0,12.8,0c0.8,0,1.3,0.5,1.3,1.3c0,0.8-0.3,1.3-0.9,1.5c-0.2,0-0.3,0-0.5,0C27.5,17,25.3,17,23.2,17z"/>
	<path class="st0" d="M35.2,15.9c0,0.7,0,1.3,0,1.9c0,0.2,0,0.4-0.1,0.6c-0.1,0.3-0.5,0.5-0.9,0.5c-0.4-0.1-0.7-0.4-0.7-0.7
		c0-1.1,0-2.2,0-3.3c0-0.4,0.4-0.7,0.8-0.7c1,0,2.1,0,3.1,0c0.5,0,0.8,0.3,0.8,0.8c0,1,0,2,0,3.1c0,0.5-0.4,0.9-0.9,0.8
		c-0.5,0-0.8-0.4-0.8-0.9c0-0.6,0-1.2,0-1.8c0-0.2-0.1-0.3-0.3-0.3C35.9,15.9,35.6,15.9,35.2,15.9z"/>
</g>
</svg>
