<?xml version="1.0" encoding="iso-8859-1"?>
<!-- Generator: Adobe Illustrator 22.1.0, SVG Export Plug-In . SVG Version: 6.00 Build 0)  -->
<svg version="1.1" id="&#x56FE;&#x5C42;_1" xmlns="http://www.w3.org/2000/svg" xmlns:xlink="http://www.w3.org/1999/xlink" x="0px"
	 y="0px" viewBox="12.5 12.4 26 26.3" style="enable-background:new 12.5 12.4 26 26.3;" xml:space="preserve">
<g>
	<path style="fill:#FFFFFF;" d="M37.711,21.591c-0.883-1.736-1.929-3.286-3.109-4.606c-0.755-0.843-1.549-1.378-2.237-1.505
		c-0.9-0.166-1.742,0.038-2.377,0.234c-0.943,0.291-4.349,1.463-4.594,1.545c-0.73,0.244-1.448,0.526-2.13,0.801
		c0,0,0.127-1.947,0.162-2.441c0.36,0.039,0.877,0.048,1.27-0.393c0.297-0.333,0.423-0.822,0.338-1.309
		c-0.085-0.484-0.368-0.898-0.757-1.108h0c-0.483-0.261-1.045-0.396-1.643-0.377c-0.772,0.013-1.235,0.404-1.377,1.162
		c-0.161,0.865,0.095,1.338,0.915,1.689c0.026,0.012,0.053,0.023,0.08,0.034c-0.054,0.649-0.237,3.243-0.237,3.243
		c-0.07,0.03-2.324,1.078-3.238,1.539c0,0-1.224-0.886-1.737-1.248c0.483-0.782,0.316-1.402-0.537-2.045
		c-0.382-0.288-0.863-0.318-1.288-0.082c-0.647,0.361-1.122,0.855-1.411,1.468c-0.203,0.429-0.194,0.859,0.023,1.211
		c0.229,0.37,0.601,0.871,1.184,0.942c0.416,0.052,0.83-0.126,1.286-0.56c0.387,0.28,0.889,0.637,1.339,0.957
		c-0.891,0.501-1.679,1.047-2.506,1.749c-0.6,0.508-1.132,1.073-1.584,1.679c-0.439,0.59-0.702,1.238-0.782,1.927
		c-0.112,0.97,0.13,1.882,0.353,2.569c0.759,2.331,1.937,4.339,2.388,4.947c0.925,1.242,2.176,1.537,2.265,1.553
		c0.339,0.112,0.686,0.167,1.046,0.167c0.409,0,0.835-0.071,1.286-0.215c0.502-0.161,0.959-0.395,1.402-0.629
		c0.015,0.642,0.065,1.208,0.244,1.931c0.09,0.366,0.199,0.689,0.634,0.931c0.356,0.181,0.827,0.13,1.088-0.034
		c0.29-0.193,0.453-0.439,0.552-0.694c0.105,0.12,0.21,0.238,0.314,0.353l0.163,0.181c0.756,0.849,1.866,1.109,2.9,0.668
		c0.554-0.235,1.108-0.476,1.661-0.716l0.193-0.084c0.247,0.204,1.67,1.283,2.105,1.457c0.128,0.072,0.264,0.109,0.399,0.109
		c0.141,0,0.281-0.039,0.411-0.118l0.146-0.138c0.205-0.298,0.145-0.602,0.112-0.768c-0.117-0.581-0.299-1.139-0.475-1.678
		l-0.09-0.278c0.487-0.36,1.319-1.074,1.369-1.119c0.406-0.369,0.594-0.84,0.557-1.399c-0.039-0.606-0.169-1.182-0.324-1.739
		c0.325,0.159,0.69,0.32,1.14,0.296c0.315-0.012,0.579-0.148,0.742-0.381c0.162-0.23,0.201-0.533,0.106-0.832
		c-0.103-0.326-0.257-0.646-0.486-1.006c-0.327-0.515-0.92-1.227-1.374-1.743c0.668-0.406,3.261-2.025,3.822-2.513
		c0.631-0.547,0.906-1.238,0.818-2.052C38.17,22.53,37.93,22.021,37.711,21.591z M34.155,29.95c0.182,0.288,0.488,0.661,0.413,0.741
		c-0.2,0.166-1.265-0.495-1.366-0.556c0,0-0.389-0.293-0.797-0.04c-0.359,0.222-0.151,0.61-0.058,0.87
		c0.015,0.041,0.029,0.08,0.045,0.141c0.206,0.692,0.395,1.368,0.438,2.051c0.018,0.268-0.055,0.455-0.244,0.627
		c-0.382,0.349-1.536,1.247-1.536,1.247c-0.216,0.236-0.25,0.531-0.117,0.834c0,0,0.604,1.554,0.478,1.57
		c-0.108,0.07-1.375-1.004-1.644-1.232c-0.288-0.244-0.569-0.199-0.753-0.119c0,0-1.437,0.626-1.988,0.859
		c-0.66,0.283-1.319,0.126-1.807-0.422l-0.165-0.184c-0.288-0.32-0.559-0.622-0.852-1.012c-0.254-0.247-0.507-0.189-0.606-0.15
		c-0.098,0.037-0.327,0.162-0.352,0.514c-0.003,0.039-0.023,0.188-0.043,0.304c-0.062,0.339-0.137,0.444-0.221,0.504
		c-0.039,0.013-0.129,0.014-0.142,0.009c-0.071-0.039-0.088-0.049-0.154-0.314c-0.171-0.689-0.211-1.2-0.22-1.846l-0.002-0.349
		c1.945-1.001,5.491-2.903,10.293-5.797C33.225,28.725,33.845,29.461,34.155,29.95z M36.784,24.453
		c-0.507,0.441-1.085,0.811-1.632,1.152c-6.505,4.046-11.185,6.544-13.396,7.673l-0.536,0.279c-0.477,0.254-0.927,0.493-1.409,0.647
		c-0.647,0.208-1.214,0.223-1.788,0.038c-0.349-0.074-1.162-0.42-1.743-1.2c-0.404-0.544-1.53-2.474-2.245-4.671
		c-0.194-0.593-0.404-1.375-0.313-2.16c0.06-0.519,0.261-1.011,0.598-1.463c0.408-0.547,0.891-1.059,1.435-1.52
		c0.876-0.743,1.661-1.281,2.628-1.8c0.061-0.032,0.127-0.072,0.204-0.12c0.114-0.07,0.257-0.158,0.457-0.259
		c1.005-0.508,1.99-1.001,2.995-1.44c0.214-0.094,1.212-0.504,1.373-0.569c0.728-0.296,1.509-0.605,2.29-0.866
		c0.249-0.083,0.75-0.263,1.167-0.412c0.276-0.099,0.515-0.184,0.615-0.218c0.926-0.314,1.855-0.62,2.791-0.909
		c0.551-0.17,1.006-0.252,1.414-0.252c0.175,0,0.342,0.015,0.504,0.045c0.465,0.086,1.099,0.534,1.693,1.2
		c1.125,1.258,2.124,2.738,2.97,4.401v0c0.229,0.451,0.381,0.809,0.422,1.201C37.33,23.726,37.174,24.115,36.784,24.453z"/>
	<path style="fill:#FFFFFF;" d="M28.455,19.56c-1.415-0.686-2.76-0.404-4.014,0.447c-0.921,0.625-1.538,1.496-1.926,2.53
		c-0.06,0.161-0.118,0.194-0.279,0.131c-0.376-0.145-0.774-0.202-1.173-0.233c-1.076-0.083-2.09,0.129-2.957,0.787
		c-1.221,0.927-1.511,2.202-1.184,3.636c0.33,1.452,1.331,2.194,2.816,2.121c1.428-0.07,2.551-0.758,3.427-1.84
		c0.337-0.416,0.368-0.631,1.154-0.603c0.437,0.017,0.793-0.018,1.156-0.06c1.138-0.132,2.247-0.369,3.231-0.997
		c1.101-0.704,1.615-1.738,1.56-3.021C30.211,21.17,29.646,20.138,28.455,19.56z M21.631,26.707
		c-0.621-0.006-1.112-0.523-1.109-1.17c0.003-0.61,0.449-1.06,1.045-1.054c0.611,0.006,1.111,0.543,1.102,1.181
		C22.661,26.257,22.207,26.712,21.631,26.707z M26.666,24.883c-0.625,0.002-1.121-0.507-1.125-1.155
		c-0.004-0.598,0.435-1.067,1.004-1.072c0.631-0.006,1.145,0.521,1.144,1.17C27.687,24.42,27.24,24.881,26.666,24.883z"/>
	<path style="fill:#FFFFFF;" d="M27.42,27.395c-0.237-0.101-0.456,0.068-0.541,0.25c-0.477,0.782-0.918,1.404-1.515,1.9
		c-0.723,0.6-1.198,0.624-1.952,0.095c-0.178-0.125-0.365-0.109-0.511,0.045c-0.054,0.056-0.209,0.258,0.042,0.507
		c0.029,0.03,0.061,0.057,0.114,0.101c0.346,0.297,0.745,0.448,1.205,0.448c0.224,0,0.461-0.036,0.714-0.108
		c0.566-0.27,1.057-0.652,1.502-1.169c0.32-0.372,0.59-0.778,0.851-1.171l0.187-0.279c0.041-0.055,0.14-0.207,0.104-0.376
		C27.597,27.536,27.531,27.453,27.42,27.395z"/>
</g>
</svg>
