<?xml version="1.0" encoding="iso-8859-1"?>
<!-- Generator: Adobe Illustrator 22.1.0, SVG Export Plug-In . SVG Version: 6.00 Build 0)  -->
<svg version="1.1" id="&#x56FE;&#x5C42;_1" xmlns="http://www.w3.org/2000/svg" xmlns:xlink="http://www.w3.org/1999/xlink" x="0px"
	 y="0px" viewBox="5.5 17.3 40.3 16.3" style="enable-background:new 0 0 51.024 51.024;" xml:space="preserve">
<path style="fill:#FFFFFF;" d="M25.559,25.594"/>
<path style="fill:#FFFFFF;" d="M25.559,25.594"/>
<path style="fill:#FFFFFF;" d="M25.559,25.594"/>
<path style="fill:#FFFFFF;" d="M29.021,25.594"/>
<path style="fill:#FFFFFF;" d="M10.936,29.036c0,0-0.519,0.674-0.872,0.892c-0.553,0.341-1.152,0.445-1.797,0.385
	c-0.517-0.048-0.98-0.208-1.383-0.531c-0.591-0.474-0.916-1.107-1.066-1.836c-0.114-0.554-0.126-1.116-0.061-1.676
	c0.103-0.886,0.385-1.697,1.048-2.333c0.48-0.461,1.052-0.708,1.716-0.767c0.533-0.047,1.042-0.001,1.526,0.246
	c0.334,0.171,0.589,0.422,0.794,0.731c0.018,0.027,0.041,0.052,0.085,0.107c0-0.333,0-0.629,0-0.939c0.408,0,0.801,0,1.216,0
	c0,0.06,0,0.114,0,0.169c0,2.144,0.008,4.289-0.005,6.433c-0.004,0.66-0.137,1.303-0.451,1.894
	c-0.411,0.774-1.069,1.226-1.905,1.439c-0.522,0.133-1.055,0.178-1.591,0.153c-0.633-0.03-1.25-0.144-1.833-0.405
	c-0.097-0.043-0.141-0.072-0.141-0.072l0.004-1.153c0,0,0.531,0.239,0.794,0.347c0.576,0.237,1.182,0.308,1.796,0.257
	c0.527-0.044,1.021-0.192,1.422-0.574c0.766-0.675,0.703-1.737,0.703-1.737L10.936,29.036z M10.932,27.037
	c0,0,0.005-0.828-0.001-1.029c-0.017-0.614-0.278-1.115-0.755-1.486c-0.86-0.67-2.403-0.486-2.939,0.845
	c-0.312,0.777-0.364,1.58-0.171,2.387c0.213,0.888,0.871,1.55,1.8,1.575c0.968,0.026,1.69-0.629,1.944-1.432
	C10.943,27.475,10.932,27.037,10.932,27.037z"/>
<path style="fill:#FFFFFF;" d="M38.558,27.048c-1.607,0-3.201,0-4.794,0c-0.039,1.056,0.522,2.109,1.743,2.267
	c0.938,0.122,1.794-0.127,2.563-0.695v1.063c0,0-0.06,0.069-0.239,0.163c-0.426,0.224-0.873,0.365-1.349,0.43
	c-0.452,0.062-0.904,0.086-1.356,0.026c-1.043-0.138-1.811-0.673-2.264-1.628c-0.233-0.491-0.321-1.019-0.356-1.563
	c-0.037-0.588,0.006-1.163,0.199-1.715c0.369-1.057,1.045-1.842,2.157-2.132c1.031-0.269,2.012-0.141,2.82,0.632
	c0.387,0.37,0.608,0.841,0.736,1.362C38.562,25.844,38.561,26.437,38.558,27.048z M33.748,26.087c0.068,0,0.124,0,0.18,0
	c0.609,0,1.218,0,1.827,0c0.47,0,1.589,0.002,1.589,0.002s-0.051-0.514-0.085-0.679c-0.214-1.044-1.087-1.439-2.024-1.226
	c-0.514,0.117-0.872,0.458-1.142,0.897C33.906,25.385,33.793,25.714,33.748,26.087z"/>
<path style="fill:#FFFFFF;" d="M19.006,27.048c-1.606,0-3.205,0-4.81,0c0.03,0.561,0.124,1.086,0.467,1.532
	c0.326,0.424,0.76,0.66,1.288,0.732c0.92,0.125,1.747-0.11,2.495-0.648c0.016-0.011,0.077-0.063,0.077-0.063v0.103l-0.001,0.993
	c0,0-0.06,0.052-0.215,0.136c-0.532,0.287-1.099,0.427-1.7,0.475c-0.529,0.043-1.045,0.021-1.557-0.125
	c-0.6-0.171-1.078-0.515-1.44-1.017c-0.348-0.483-0.527-1.03-0.605-1.619c-0.06-0.447-0.085-0.894-0.024-1.34
	c0.181-1.335,0.815-2.353,2.1-2.878c0.437-0.178,0.904-0.209,1.379-0.169c0.469,0.04,0.905,0.165,1.299,0.421
	c0.59,0.383,0.923,0.951,1.102,1.612C19.025,25.796,19.025,26.414,19.006,27.048z M14.213,26.075c1.195,0,2.379,0,3.593,0
	c-0.029-0.237-0.041-0.463-0.088-0.681c-0.087-0.41-0.286-0.767-0.637-1.002c-0.422-0.283-0.896-0.321-1.386-0.21
	C14.884,24.367,14.29,25.249,14.213,26.075z"/>
<path style="fill:#FFFFFF;" d="M44.918,28.605l-0.003,1.092c0,0-0.027,0.02-0.058,0.04c-0.458,0.298-0.962,0.483-1.504,0.531
	c-0.439,0.038-0.704,0.069-1.324,0.029c-0.718-0.065-1.16-0.276-1.624-0.692c-0.52-0.467-0.796-1.065-0.945-1.734
	c-0.112-0.503-0.133-1.015-0.085-1.522c0.124-1.327,0.719-2.366,1.958-2.955c0.48-0.228,0.998-0.277,1.532-0.229
	c0.508,0.045,0.977,0.182,1.389,0.481c0.492,0.357,0.805,0.846,0.973,1.425c0.166,0.572,0.211,1.259,0.145,1.974
	c-1.581,0-3.165,0-4.763,0c-0.004,0.411,0.068,0.79,0.23,1.147c0.356,0.783,1.002,1.117,1.831,1.15
	c0.792,0.032,1.506-0.196,2.148-0.656C44.843,28.669,44.918,28.605,44.918,28.605z M40.604,26.076c1.213,0,2.403,0,3.621,0
	c0-0.247-0.034-0.486-0.091-0.718c-0.237-0.95-0.997-1.332-1.899-1.202c-0.497,0.072-0.867,0.352-1.162,0.742
	C40.812,25.244,40.674,25.641,40.604,26.076z"/>
<path style="fill:#FFFFFF;" d="M25.629,30.172c-0.409,0-0.799,0-1.208,0c0-0.062,0-0.118,0-0.173c0-1.251,0.006-2.501-0.003-3.752
	c-0.004-0.489-0.056-0.974-0.301-1.416c-0.23-0.415-0.735-0.706-1.204-0.706c-1.721,0-1.89,1.667-1.89,1.667v4.379h-1.2
	c0,0,0-4.573,0-6.87c0.372,0,1.2-0.001,1.2-0.001v1.109c0,0,0.714-1.243,1.967-1.243c0.454-0.046,0.895-0.011,1.316,0.163
	c0.596,0.247,0.942,0.72,1.137,1.318c0.147,0.45,0.18,0.917,0.183,1.384c0.009,1.323,0.003,2.646,0.003,3.969
	C25.629,30.056,25.629,30.112,25.629,30.172z"/>
<path style="fill:#FFFFFF;" d="M31.367,24.573c-0.338-0.124-0.659-0.273-0.996-0.358c-0.467-0.118-0.95-0.155-1.413,0.017
	c-0.517,0.193-0.806,0.598-0.591,1.161c0.056,0.147,0.181,0.303,0.317,0.377c0.384,0.21,0.787,0.387,1.189,0.562
	c0.428,0.186,0.861,0.356,1.226,0.658c0.414,0.342,0.585,0.786,0.588,1.314c0.006,0.889-0.523,1.448-1.263,1.752
	c-0.607,0.25-1.239,0.307-1.89,0.258c-0.464-0.035-0.908-0.132-1.336-0.312c-0.106-0.045-0.144-0.061-0.144-0.061l0.003-1.191
	c0.351,0.156,0.691,0.338,1.051,0.461c0.53,0.182,1.083,0.202,1.625,0.062c0.538-0.139,0.701-0.395,0.725-0.844
	c0.019-0.349-0.177-0.621-0.485-0.782c-0.312-0.163-0.634-0.309-0.96-0.441c-0.476-0.192-0.947-0.39-1.357-0.706
	c-0.334-0.258-0.507-0.605-0.571-1.019c-0.069-0.448-0.014-0.867,0.232-1.254c0.276-0.435,0.686-0.697,1.157-0.869
	c0.626-0.228,1.272-0.271,1.926-0.156c0.275,0.048,0.546,0.122,0.818,0.188c0.105,0.025,0.153,0.049,0.153,0.049L31.367,24.573z"/>
<path style="fill:#FFFFFF;" d="M27.601,22.672c-0.956-0.27-1.774-0.763-2.399-1.55c-0.332-0.418-0.649-0.848-0.997-1.252
	c-0.861-1.002-1.669-1.655-3.036-1.998c0.139-0.023,0.237-0.046,0.337-0.055c1.006-0.095,1.987-0.029,2.904,0.454
	c0.574,0.302,0.98,0.774,1.302,1.319c0.31,0.525,0.584,1.071,0.884,1.601c0.444,0.783,1.066,1.36,1.944,1.628
	c0.023,0.007,0.076,0.024,0.065,0.029C28.603,22.861,27.927,22.764,27.601,22.672z"/>
<path style="fill:#FFFFFF;" d="M27.272,22.886c-0.985,0.096-1.903-0.088-2.73-0.658c-0.422-0.291-0.845-0.582-1.278-0.856
	c-0.375-0.238-0.802-0.303-1.24-0.303c-0.024,0-0.049-0.005-0.102-0.012c0.341-0.182,0.681-0.273,1.033-0.336
	c0.642-0.114,1.161,0.131,1.639,0.529c0.488,0.408,0.955,0.845,1.511,1.166C26.472,22.629,26.858,22.786,27.272,22.886z"/>
</svg>
