<?xml version="1.0" encoding="utf-8"?>
<!-- Generator: Adobe Illustrator 22.1.0, SVG Export Plug-In . SVG Version: 6.00 Build 0)  -->
<svg version="1.1" id="图层_1" xmlns="http://www.w3.org/2000/svg" xmlns:xlink="http://www.w3.org/1999/xlink" x="0px" y="0px"
	 viewBox="12.5 12.7 25.8 25.9" style="enable-background:new 0 0 51 51;" xml:space="preserve">
<style type="text/css">
	.st0{fill:#FFFFFF;}
</style>
<g>
	<g>
		<g>
			<path class="st0" d="M31.7,16.2H14.4c-0.9,0-1.6-0.7-1.6-1.6s0.7-1.6,1.6-1.6h17.3c0.9,0,1.6,0.7,1.6,1.6S32.6,16.2,31.7,16.2z"
				/>
		</g>
	</g>
	<g>
		<g>
			<path class="st0" d="M31.7,37.9H14.4c-0.9,0-1.6-0.7-1.6-1.6s0.7-1.6,1.6-1.6h17.3c0.9,0,1.6,0.7,1.6,1.6S32.6,37.9,31.7,37.9z"
				/>
		</g>
	</g>
	<g>
		<g>
			<path class="st0" d="M34.3,21.7H14.4c-0.9,0-1.6-0.7-1.6-1.6s0.7-1.6,1.6-1.6h19.9c0.9,0,1.6,0.7,1.6,1.6
				C35.9,21,35.2,21.7,34.3,21.7z"/>
		</g>
	</g>
	<g>
		<g>
			<path class="st0" d="M36.7,27h-17c-0.9,0-1.6-0.7-1.6-1.6s0.7-1.6,1.6-1.6h16.9c0.9,0,1.6,0.7,1.6,1.6C38.3,26.3,37.5,27,36.7,27
				z"/>
		</g>
	</g>
	<g>
		<g>
			<path class="st0" d="M34.3,32.4H14.4c-0.9,0-1.6-0.7-1.6-1.6s0.7-1.6,1.6-1.6h19.9c0.9,0,1.6,0.7,1.6,1.6
				C35.9,31.7,35.2,32.4,34.3,32.4z"/>
		</g>
	</g>
	<g>
		<g>
			<circle class="st0" cx="14.5" cy="25.4" r="1.7"/>
		</g>
	</g>
</g>
</svg>
