<?xml version="1.0" encoding="utf-8"?>
<!-- Generator: Adobe Illustrator 22.1.0, SVG Export Plug-In . SVG Version: 6.00 Build 0)  -->
<svg version="1.1" id="图层_1" xmlns="http://www.w3.org/2000/svg" xmlns:xlink="http://www.w3.org/1999/xlink" x="0px" y="0px"
	 viewBox="14 10.8 23 30" style="enable-background:new 0 0 51 51;" xml:space="preserve">
<style type="text/css">
	.st0{fill:#FFFFFF;}
</style>
<path class="st0" d="M15.3,17.8c0.1-0.2,0.2-0.4,0.3-0.6c0.5-0.8,1-1.6,1.7-2.2c0.8-0.8,1.7-1.5,2.7-2.1c0.9-0.5,1.8-0.9,2.7-1.1
	c0.6-0.2,1.3-0.3,1.9-0.3c0.7,0,1.5,0,2.2,0s1.3,0.2,2,0.4c0.3,0.1,0.6,0.2,0.9,0.3c0.7,0.2,1.3,0.6,1.9,1c0.9,0.6,1.8,1.2,2.5,2.1
	c0.4,0.5,0.8,1,1.1,1.5c0.4,0.6,0.7,1.3,1,2c0.3,0.9,0.6,1.7,0.6,2.7c0,0.6,0,1.2,0,1.8c0,0.8-0.2,1.6-0.5,2.4c-0.4,1.1-0.9,2-1.5,3
	c-0.9,1.5-2,2.8-3.1,4.1c-1.2,1.5-2.4,2.9-3.7,4.3c-0.8,0.9-1.8,1.8-2.7,2.7c-0.1,0.1-0.2,0.1-0.2,0.1c0-0.1-0.1-0.2-0.1-0.3
	s0-0.2,0-0.3c0.1-1.1,0.2-2.2,0.3-3.2c0.1-0.5,0.1-1-0.1-1.5c-0.1-0.6-0.5-0.9-1-1.2c-0.3-0.2-0.7-0.3-1.1-0.3
	c-0.4-0.1-0.8-0.2-1.2-0.4c-0.4-0.2-0.9-0.3-1.3-0.6c-0.7-0.4-1.3-0.7-2-1.2c-1.2-0.9-2.2-2-2.9-3.3c-0.4-0.7-0.8-1.5-1-2.3
	c-0.2-0.7-0.3-1.5-0.4-2.2c0-0.3,0-0.5,0-0.8h0.1c0,0.1,0.1,0.1,0.1,0.2c0.1,0.4,0.2,0.9,0.3,1.2c0.3,0.6,0.7,1.2,1,1.8
	c0.5,0.7,1.2,1.3,2,1.7c0.5,0.3,1,0.4,1.6,0.6c0.9,0.4,1.9,0.3,2.9,0.2c0.8-0.1,1.6-0.3,2.3-0.8c0.7-0.4,1.3-0.9,1.8-1.5
	c0.6-0.7,1-1.4,1.3-2.2c0.2-0.8,0.4-1.5,0.4-2.3c0-0.7-0.2-1.4-0.4-2.1c-0.2-0.7-0.6-1.3-1-1.9c-0.4-0.5-1-1-1.6-1.4s-1.3-0.8-2-0.9
	c-1-0.2-2-0.5-3-0.2c-0.1,0-0.3,0.1-0.4,0.1c-0.7,0.1-1.3,0.4-1.8,0.7c-0.7,0.3-1.3,0.8-1.8,1.3C15.8,17.1,15.6,17.5,15.3,17.8
	C15.4,17.8,15.3,17.8,15.3,17.8z"/>
</svg>
