<?xml version="1.0" encoding="utf-8"?>
<!-- Generator: Adobe Illustrator 21.0.0, SVG Export Plug-In . SVG Version: 6.00 Build 0)  -->
<svg version="1.1" id="Layer_1" xmlns="http://www.w3.org/2000/svg" xmlns:xlink="http://www.w3.org/1999/xlink" x="0px" y="0px"
	 viewBox="0 0 200 200" style="enable-background:new 0 0 200 200;" xml:space="preserve">
<style type="text/css">
	.st0{fill:#707070;}
	.st1{fill:url(#SVGID_1_);}
	.st2{fill:none;}
	.st3{fill:url(#SVGID_2_);}
	.st4{fill:url(#SVGID_3_);}
	.st5{fill:url(#SVGID_4_);}
</style>
<path class="st0" d="M415.1-187.8c-8.8-1.2-17.7-34.6-17.7-34.7c-6.4,1.9-57.9,17-37.9,30.4c33.4,22.2,31.9,67.2-17.6,104.7
	c-69.3,52.6,68.6,67.8,70.6,64.5c34.2-57.6,18.1-100,18.1-100s40.1-13,74.8-18.3C509.8-141.9,485.6-177.8,415.1-187.8L415.1-187.8
	L415.1-187.8z M469.6-167.3c0,0-24.7,6.9-36.2,12.8c0,0,6.4-19.9,6.2-23.4C439.5-177.8,464.3-171,469.6-167.3L469.6-167.3
	L469.6-167.3z M427.9-154.5c0,0-11.3-6.6-15.4-7.8l24.1-15.6C436.6-177.8,436.6-169.4,427.9-154.5L427.9-154.5L427.9-154.5z
	 M407.5-115.8l20.4,12.1c-3,3-22.5,12.1-22.5,12.1C408.2-98.3,407.5-115.8,407.5-115.8L407.5-115.8L407.5-115.8z M410.7-116.7
	l17.6-6c1.6,6.2,1.1,16.3,1.1,16.3C424.4-108.4,410.7-116.7,410.7-116.7L410.7-116.7L410.7-116.7z M368.5-76.6
	c0,0,15.8-26.8,15.2-29.8c0,0,1.8,7.3,13.4,17.9C397.2-88.5,388.7-82.8,368.5-76.6L368.5-76.6L368.5-76.6z M396.1-83.2
	c0,0-3.1,14.6-10.7,26c0,0-11.1-4.5-19.1-15C366.2-72.2,393.1-81.2,396.1-83.2L396.1-83.2L396.1-83.2z M401.2-159.5
	c0,0-9,8.7-14.4,13.7c0,0-0.2-19-1.5-19.7C385.3-165.5,396.4-162.7,401.2-159.5C401.2-159.5,401.2-159.5,401.2-159.5z M386.8-171
	l15.4-13.3c0,0,3.9,4.4,3,19.5C405.2-164.8,391.1-170,386.8-171L386.8-171L386.8-171z M403.3-155.6c0,0-2.5,12.6-8.5,20.2
	c0,0-5.6-4.8-8.1-6.4C386.8-141.9,401.7-154.2,403.3-155.6L403.3-155.6L403.3-155.6z M393.3-127c0,0,4.3,2.7,3.9,9.6
	c0,0-28.9,13.1-33.2,16C363.9-101.3,391.7-124.2,393.3-127C393.3-127,393.3-127,393.3-127z M386.8-107.7l15.6-6.4
	c0,0,2.3,10.8-2.7,22.7C399.7-91.5,391.7-96.1,386.8-107.7L386.8-107.7L386.8-107.7z M401.2-118.5c0,0-1.8-11.7-4.1-13.5
	c0,0,10.1-4.8,25-13.5C422.1-145.5,403.2-121.5,401.2-118.5L401.2-118.5z M402.4-139.4c0,0,5.5-15.1,5.3-18.6l14.4,7.8L402.4-139.4z
	 M431.8-178.8c-1.6,0.7-24.1,13.3-24.1,13.3c3.4-10.5-2.4-18.8-2.4-18.8L431.8-178.8L431.8-178.8z M407.7-188.6l-16-2.5l11.9-7.3
	C403.6-198.5,407.7-188.6,407.7-188.6z M372.4-208.8c1.4-1.1,24.1-11.2,24.1-11.2s6.4,16,4.4,16S371-207.6,372.4-208.8L372.4-208.8
	L372.4-208.8z M401.2-201l-14.4,8.9h-3.6c0,0-13.3-13.5-13.7-14.9C369.4-206.9,397.7-200.5,401.2-201L401.2-201L401.2-201z
	 M366.7-205.3l10.1,11.8c0,0-15.8-3.6-17-4.9C358.7-199.8,366.7-205.3,366.7-205.3S366.7-205.3,366.7-205.3z M365.1-192l10.1,3.4
	l3.7,12.1C378.8-176.5,369.2-189.1,365.1-192L365.1-192L365.1-192z M377.7-188.6l22,3.2L383.2-173
	C383.2-175.8,377.7-188.6,377.7-188.6L377.7-188.6L377.7-188.6z M384.1-135.5c0,0,3.9,1.1,5.7,3.4c0,0-6.6,5.9-12.1,9.4
	C377.7-122.7,383.9-133.4,384.1-135.5C384.1-135.5,384.1-135.5,384.1-135.5z M370.4-113.3c0,0,8.4-7.8,18.3-12l-27.5,24.1
	L370.4-113.3L370.4-113.3z M376.3-103.6c0,0-6.6,18.8-13.3,25.4c0,0-3-3.7-3.4-17.2C359.6-95.4,373.6-102.7,376.3-103.6L376.3-103.6
	L376.3-103.6z M353.9-92.8c0,0-0.5,7.3,4.6,19c0,0-25.7,8-29.8,8C328.7-65.8,331.4-82.1,353.9-92.8L353.9-92.8z M328.7-63.7
	c7.6,0,28.6-6,28.6-6c-1.1,4.1-17.2,25-17.2,25C327.5-53.4,328.7-63.7,328.7-63.7L328.7-63.7L328.7-63.7z M341.9-43.6l19.2-24.7
	c0,0,8.5,8,17.6,13.1L343-42.2L341.9-43.6L341.9-43.6z M345.2-41.8l36.4-9.9l-13.1,19.7C368.5-31.9,353.6-34,345.2-41.8L345.2-41.8
	L345.2-41.8z M386.8-51.6c0,0,15.2,6.6,30.8,6.9c0,0-36.7,14.1-47.2,14.6C370.4-30.1,387-50.2,386.8-51.6L386.8-51.6L386.8-51.6z
	 M410.7-23.7c0,0-25.5-2.1-33-6.5c0,0,22.4-4.3,40.8-12.1C418.5-42.2,413-26.4,410.7-23.7L410.7-23.7L410.7-23.7z M418.5-45.9
	c0,0-25.7-4.6-29.9-9.4c0,0,35.7-14.4,37-17C425.7-72.2,422.8-51.3,418.5-45.9L418.5-45.9L418.5-45.9z M391-60.1l11.5-24.3
	c0,0,17,8.9,23.3,10.3C425.7-74.1,396.7-59.9,391-60.1L391-60.1L391-60.1z M426.7-76.6c-10.3-2.5-21.4-11-21.4-11
	c5-1.4,24.2-12.8,24.2-12.8C431-88,426.7-76.6,426.7-76.6L426.7-76.6z M406.6-120.6c0,0,20.2-22.5,21.3-25.2c0,0,12.6,6.2,17,12.8
	C444.8-132.9,411.9-122.6,406.6-120.6L406.6-120.6z M433.4-151.3c0,0,35.1-13.3,38.5-13.5c0,0-8.7,16.3-23.1,30.5
	C448.7-134.3,440.8-146.9,433.4-151.3L433.4-151.3L433.4-151.3z M454.9-135.5c0,0,17.4-20.2,20.8-29.3c0,0,23.1,15.3,26.6,22.5
	C502.3-142.3,463.8-139.1,454.9-135.5L454.9-135.5L454.9-135.5z"/>
<radialGradient id="SVGID_1_" cx="575.708" cy="-92.4613" r="74.5643" gradientUnits="userSpaceOnUse">
	<stop  offset="0" style="stop-color:#FAFAFA"/>
	<stop  offset="1" style="stop-color:#000000"/>
</radialGradient>
<path class="st1" d="M570.5-134.9c0,0-2.8-0.3-7.3-0.9l0,0.1l-3.6-0.6c-5.7-0.7-13.1-1.7-20.7-2.8c0,0-2.9-0.6-6.4-1.5l0.1,0.1
	c0,0-14.7-3.3-16.6-4.7c0,0,0,0,0,0c-0.1,0-0.3-0.1-0.4-0.2c-0.1,0-0.2,0-0.2-0.1c-1.4-0.4-5.1-1.9-0.6-6.4c0,0,0,0,0,0
	c0,0-0.1,0-0.1,0c-0.1,0.1-0.1,0.1-0.2,0.1c-0.1,0.1-0.2,0.2-0.3,0.3c0,0,0,0-0.1,0.1c-4,4-4.7,8.2,1.4,12.3
	c33,22,31.6,66.5-17.4,103.6c-2.7,2-5,4-7,5.9l1.9-1.2c24-21.3,104.9-43.8,104.9-43.8l0.1,0.1c1.8-0.5,5-1.3,8.7-2.2
	c7.1-2,15.4-4.2,24.3-6.2c0.7-0.2,1.2-0.3,1.6-0.4c0.1,0,0.2,0,0.3,0c8.9-2,18.2-3.9,27.1-5.3C664.3-89.5,640.3-125.1,570.5-134.9z
	 M624.5-114.7L624.5-114.7c0,0-24.5,6.8-35.8,12.7c0,0,6.4-19.7,6.1-23.1C594.7-125.1,619.2-118.3,624.5-114.7z M583.2-102
	L583.2-102c0,0-11.2-6.6-15.3-7.7l23.9-15.4C591.8-125.1,591.8-116.7,583.2-102z M558.9-103.1L558.9-103.1c0,0-2.5,12.5-8.4,20
	c0,0-5.5-4.8-8-6.4C542.5-89.5,557.3-101.7,558.9-103.1z M541.1-112.9c0,0,10.9,2.7,15.7,5.9c0,0-8.9,8.6-14.3,13.6
	C542.5-93.4,542.3-112.2,541.1-112.9z M563.2-105.4l14.3,7.7L558-87C558-87,563.4-102,563.2-105.4z M587-126L587-126
	c-1.6,0.7-23.8,13.2-23.8,13.2c3.4-10.4-2.4-18.6-2.4-18.6L587-126z M560.7-112.2c0,0-13.9-5.2-18.2-6.1h0l15.2-13.2
	C557.8-131.5,561.6-127.1,560.7-112.2z M521-139.2L521-139.2l10,3.4l3.6,12C534.6-123.7,525.1-136.2,521-139.2z M533.5-135.8
	L533.5-135.8l21.8,3.2l-16.3,12.2C538.9-123.1,533.5-135.8,533.5-135.8z M539.9-83.1c0,0,3.9,1.1,5.7,3.4c0,0-6.6,5.8-12,9.3
	C533.5-70.5,539.6-81.1,539.9-83.1z M526.2-61.3L526.2-61.3c0,0,8.3-7.7,18.1-11.9l-27.2,23.8L526.2-61.3z M552.8-65.2
	c0,0-28.6,12.9-32.9,15.9c0,0,27.5-22.7,29.1-25.4C548.9-74.8,553.2-72,552.8-65.2z M552.8-79.7c0,0,10-4.8,24.7-13.4
	c0,0-18.7,23.8-20.7,26.8C556.8-66.4,555.1-77.9,552.8-79.7z M562.1-68.4c0,0,20-22.2,21.1-24.9c0,0,12.5,6.1,16.8,12.7
	C600-80.6,567.3-70.4,562.1-68.4z M603.8-82c0,0-7.8-12.5-15.2-16.8h0c0,0,34.7-13.2,38.1-13.4C626.7-112.2,618.1-96.1,603.8-82z
	 M609.9-83.1c0,0,17.2-20,20.6-29c0,0,22.9,15.2,26.3,22.2C656.9-89.9,618.8-86.8,609.9-83.1z"/>
<rect x="17.9" y="23.2" class="st2" width="164.2" height="164.2"/>
<linearGradient id="SVGID_2_" gradientUnits="userSpaceOnUse" x1="9.5302" y1="148.8118" x2="121.4753" y2="148.8118">
	<stop  offset="0" style="stop-color:#666666"/>
	<stop  offset="1" style="stop-color:#F1F1F1"/>
</linearGradient>
<path class="st3" d="M117.7,99.1C117.7,99.1,117.7,99.1,117.7,99.1c-0.1-0.3-0.3-0.6-0.4-0.9c-0.7,0.2-1.3,0.4-2,0.6
	c0,0.2,0,0.4,0,0.6l0.1,0c1.6,6.2,1.1,16.3,1.1,16.3c-5-2.1-18.8-10.3-18.8-10.3h0l0.1,0c-0.2-0.1-0.4-0.2-0.5-0.3
	c-0.2-0.1-0.3-0.1-0.5-0.2c-2.4,0.8-4.9,1.7-7.4,2.6c0,0.2,0,0.4,0,0.6l0.1,0c0,0,2.3,10.8-2.7,22.7c0,0-7.9-4.6-12.9-16.3h0l0.1,0
	c-0.2-0.3-0.4-0.7-0.5-1.1c-3.4,1.3-6.7,2.6-10,4c0,0.5-0.1,0.9-0.2,1.3c0.1,0,0.1-0.1,0.2-0.1l0,0c0,0-6.6,18.8-13.3,25.4
	c0,0-3-3.7-3.4-17.2c0,0,0.1,0,0.2-0.1c0,0,0-0.1,0-0.1c0-0.1,0-0.3-0.1-0.5c0-0.2-0.1-0.3-0.1-0.5c-0.1-0.2-0.2-0.5-0.3-0.7
	c-1.9,1-3.8,1.9-5.6,2.9c0.1,0.5,0.1,1.1,0,1.6c0.1,0,0.1-0.1,0.2-0.1c0,0-0.5,7.3,4.6,19c0,0-25.7,8-29.8,8c0,0,1.9-11.1,15.1-21v0
	l9.2-6.7l-8.2,4.3c0,0,0-0.1,0-0.1c-0.3,0.2-0.6,0.4-0.9,0.6l-0.1,0v0c-2.5,1.7-4.8,3.4-6.7,5l-0.3,0.2
	c-57.2,49.3,73.7,63.7,75.6,60.5C133.8,141.5,117.7,99.1,117.7,99.1z M94.6,106.2l20.4,12.1c-3,3-22.5,12.1-22.5,12.1
	C95.3,123.6,94.6,106.2,94.6,106.2z M70.9,115.6c0,0,1.8,7.3,13.4,17.9c0,0-8.5,5.7-28.7,11.9l0,0C55.7,145.4,71.5,118.6,70.9,115.6
	z M83.2,138.7c0,0-3.1,14.6-10.7,26c0,0-11.1-4.5-19.1-15C53.4,149.7,80.3,140.8,83.2,138.7z M15.8,158.2L15.8,158.2
	c7.6,0,28.6-6,28.6-6c-1.1,4.1-17.2,25-17.2,25C14.6,168.5,15.8,158.2,15.8,158.2z M29.1,178.4L29.1,178.4l19.2-24.7
	c0,0,8.5,8,17.6,13.1l-35.9,13.1L29.1,178.4z M32.3,180.2l36.4-9.9L55.7,190C55.7,190,40.8,188,32.3,180.2z M73.9,170.3L73.9,170.3
	c0,0,15.2,6.6,30.8,6.9c0,0-36.7,14.1-47.2,14.6C57.5,191.8,74.1,171.7,73.9,170.3z M97.8,198.3c0,0-25.5-2.1-33-6.5
	c0,0,22.4-4.3,40.8-12.1C105.7,179.7,100.1,195.5,97.8,198.3z M105.7,176.1c0,0-25.7-4.6-29.9-9.4c0,0,35.7-14.4,37-17
	C112.8,149.7,110,170.7,105.7,176.1z M78.1,161.9L78.1,161.9l11.5-24.3c0,0,17,8.9,23.3,10.3C112.8,147.9,83.8,162.1,78.1,161.9z
	 M113.8,145.4c-10.3-2.5-21.4-11-21.4-11c5-1.4,24.2-12.8,24.2-12.8C118.1,133.9,113.8,145.4,113.8,145.4z"/>
<linearGradient id="SVGID_3_" gradientUnits="userSpaceOnUse" x1="42.4452" y1="17.6401" x2="102.5101" y2="17.6401">
	<stop  offset="0" style="stop-color:#666666"/>
	<stop  offset="1" style="stop-color:#F1F1F1"/>
</linearGradient>
<path class="st4" d="M102.4,34.8C93.8,33.1,84.9,0.2,84.9,0.2c-5.6,1.7-46.4,13.6-42.2,25.6c0.1,0,0.1-0.1,0.2-0.1
	c-0.5-1.8,0.1-3.5,1.3-5.3l-0.8,2l0.9,1.7l3.1,0.4c0.1,0,0.2,0.1,0.3,0.1c0,0,0.1-0.1,0.1-0.1c-0.2-0.1-0.3-0.2-0.4-0.3
	c-1.1-1.4,6.9-6.9,6.9-6.9l10.1,11.8c0,0-0.1,0-0.4-0.1c0.1,0.1,0.1,0.2,0.2,0.3c0.2,0,0.3,0.1,0.3,0.1l-0.1-0.1
	c3.5,1,6.4,1.5,6.4,1.5c2.7,0.4,5.4,0.8,7.9,1.1c0.2-0.2,0.4-0.3,0.6-0.5l-0.1,0l11.9-7.3l4.1,9.9L95,34c0,0.1,0,0.1,0.1,0.2
	c4.5,0.6,7.3,0.9,7.3,0.9c0.1,0,0.1,0,0.2,0C102.5,35,102.5,34.9,102.4,34.8z M60,13.9C61.4,12.7,84,2.6,84,2.6s6.4,16,4.4,16
	C86.3,18.7,58.6,15,60,13.9L60,13.9z M74.4,30.6h-3.6c0,0-13.3-13.5-13.7-14.9c0,0,28.3,6.4,31.8,6L74.4,30.6z"/>
<radialGradient id="SVGID_4_" cx="107.2859" cy="78.9963" r="73.89" gradientUnits="userSpaceOnUse">
	<stop  offset="0" style="stop-color:#E96E00"/>
	<stop  offset="0" style="stop-color:#E26B01"/>
	<stop  offset="0" style="stop-color:#EE5E31"/>
	<stop  offset="1" style="stop-color:#912738"/>
</radialGradient>
<path class="st5" d="M102.1,34.9c0,0-2.8-0.3-7.3-0.9l0,0.1l-3.6-0.6c-5.7-0.7-13.1-1.7-20.7-2.8c0,0-2.9-0.6-6.4-1.5l0.1,0.1
	c0,0-14.7-3.3-16.6-4.7c0,0,0,0,0,0c-0.1,0-0.3-0.1-0.4-0.2c-0.1,0-0.2,0-0.2-0.1c-1.4-0.4-5.1-1.9-0.6-6.4c0,0,0,0,0,0
	c0,0-0.1,0-0.1,0C46.2,17.9,46.1,18,46,18c-0.1,0.1-0.2,0.2-0.3,0.3c0,0,0,0-0.1,0.1c-4,4-4.7,8.2,1.4,12.3
	c33,22,31.6,66.5-17.4,103.6c-2.7,2-5,4-7,5.9l1.9-1.2c24-21.3,104.9-43.8,104.9-43.8l0.1,0.1c1.8-0.5,5-1.3,8.7-2.2
	c7.1-2,15.4-4.2,24.3-6.2c0.7-0.2,1.2-0.3,1.6-0.4c0.1,0,0.2,0,0.3,0c8.9-2,18.2-3.9,27.1-5.3C195.9,80.4,171.9,44.7,102.1,34.9z
	 M156,55.2L156,55.2c0,0-24.5,6.8-35.8,12.7c0,0,6.4-19.7,6.1-23.1C126.3,44.7,150.8,51.5,156,55.2z M114.8,67.9L114.8,67.9
	c0,0-11.2-6.6-15.3-7.7l23.9-15.4C123.4,44.7,123.4,53.1,114.8,67.9z M90.5,66.7L90.5,66.7c0,0-2.5,12.5-8.4,20c0,0-5.5-4.8-8-6.4
	C74.1,80.3,88.9,68.1,90.5,66.7z M72.7,57c0,0,10.9,2.7,15.7,5.9c0,0-8.9,8.6-14.3,13.6C74.1,76.5,73.9,57.7,72.7,57z M94.8,64.5
	l14.3,7.7L89.6,82.8C89.6,82.8,95,67.9,94.8,64.5z M118.6,43.8L118.6,43.8C117,44.5,94.8,57,94.8,57c3.4-10.4-2.4-18.6-2.4-18.6
	L118.6,43.8z M92.3,57.7c0,0-13.9-5.2-18.2-6.1h0l15.2-13.2C89.4,38.4,93.2,42.7,92.3,57.7z M52.6,30.7L52.6,30.7l10,3.4l3.6,12
	C66.2,46.1,56.7,33.6,52.6,30.7z M65.1,34.1L65.1,34.1l21.8,3.2L70.5,49.5C70.5,46.8,65.1,34.1,65.1,34.1z M71.4,86.7
	c0,0,3.9,1.1,5.7,3.4c0,0-6.6,5.8-12,9.3C65.1,99.4,71.2,88.7,71.4,86.7z M57.8,108.6L57.8,108.6c0,0,8.3-7.7,18.1-11.9l-27.2,23.8
	L57.8,108.6z M84.4,104.6c0,0-28.6,12.9-32.9,15.9c0,0,27.5-22.7,29.1-25.4C80.5,95.1,84.8,97.8,84.4,104.6z M84.4,90.1
	c0,0,10-4.8,24.7-13.4c0,0-18.7,23.8-20.7,26.8C88.4,103.5,86.6,91.9,84.4,90.1z M93.7,101.4c0,0,20-22.2,21.1-24.9
	c0,0,12.5,6.1,16.8,12.7C131.5,89.2,98.9,99.4,93.7,101.4z M135.4,87.8c0,0-7.8-12.5-15.2-16.8h0c0,0,34.7-13.2,38.1-13.4
	C158.3,57.7,149.7,73.8,135.4,87.8z M141.5,86.7c0,0,17.2-20,20.6-29c0,0,22.9,15.2,26.3,22.2C188.5,79.9,150.4,83.1,141.5,86.7z"/>
</svg>
