<?xml version="1.0" encoding="utf-8"?>
<!-- Generator: Adobe Illustrator 22.1.0, SVG Export Plug-In . SVG Version: 6.00 Build 0)  -->
<svg version="1.1" id="图层_1" xmlns="http://www.w3.org/2000/svg" xmlns:xlink="http://www.w3.org/1999/xlink" x="0px" y="0px"
	 viewBox="0 0 51 51" style="enable-background:new 0 0 51 51;" xml:space="preserve">
<style type="text/css">
	.st0{fill:#FFFFFF;}
</style>
<path class="st0" d="M16.5,33.8c0.1,0,0.1-0.1,0.2-0.1c1.1,0,2.2,0,3.3,0c0.1,0,0.1,0,0.2,0.1c0,0,0,0,0,0
	C18.9,33.8,17.7,33.8,16.5,33.8L16.5,33.8z"/>
<g>
	<path class="st0" d="M45.1,39.7c0-0.1,0.1-0.3,0.2-0.4c0,0,0,0.1,0,0.1c-0.3,0.5-0.1,1,0,1.5c0.1,1,0.1,1.9-0.1,2.9
		c-0.1,0.5-0.2,1.1-0.4,1.6c-0.2,0.6-0.5,1.1-0.8,1.7c-0.4,0.8-1,1.5-1.7,2.1c-0.2,0.1-0.3,0.2-0.5,0.3c-0.1,0.1-0.2,0.2-0.3,0.3
		c-0.4,0.1-0.8,0.3-1.2,0.5c-0.7,0.4-1.5,0.5-2.3,0.6c-1.5,0.2-3,0.1-4.5-0.1c-0.1,0-0.2,0-0.2,0c-0.1,0-0.1,0-0.2,0
		c-0.1-0.1-0.1-0.1-0.2-0.1c-0.5-0.1-1.1-0.2-1.6-0.3c-1.1-0.3-2.2-0.6-3.3-0.8c-0.7-0.1-1.3-0.1-2-0.1c0.1,0,0.1,0,0.3-0.1
		c-0.1,0-0.1,0-0.1,0c-1.2,0-2.3,0-3.5,0.2c-1,0.2-1.9,0.4-2.9,0.5c-0.9,0.1-1.9,0.3-2.8,0.4c0,0,0,0,0,0c-1,0-2,0-3,0
		c-0.7,0-1.4,0-2-0.1c-1.1-0.2-2.1-0.6-3-1.3c-1.5-1.1-2.3-2.6-2.9-4.3c-0.2-0.5-0.3-1-0.4-1.4c-0.1-0.5-0.1-1.1-0.1-1.6
		c0-0.5,0-1,0.1-1.5c0.1-0.8,0.4-1.6,0.7-2.3c0.5-1.2,1.3-2.2,2.2-3.1c0.4-0.4,0.7-0.8,1.1-1.1c0.1-0.1,0.3-0.2,0.5-0.3
		c-0.1-0.1-0.1-0.2-0.2-0.2c0,0,0,0,0,0c0.2,0,0.4,0,0.6-0.2c0.3-0.3,0.8-0.5,1.1-0.8c0.9-0.8,1.7-1.5,2.5-2.3
		c0.4-0.3,0.7-0.7,1.1-1c0.5-0.6,1-1.1,1.5-1.7c0.1-0.1,0.1-0.2,0.1-0.3c0.2-0.2,0.3-0.3,0.5-0.5c0.3-0.4,0.6-0.9,0.9-1.3
		c0.7-1.2,1.6-2.1,2.7-2.9c0.1,0,0.1-0.2,0.1-0.2c0.1,0,0.3,0,0.4-0.1c1.4-0.8,2.8-1.2,4.4-1.1c1.6,0,3,0.6,4.3,1.6
		c1.2,0.9,2,2,2.9,3.2c0.7,1,1.5,2,2.3,3c0.4,0.5,0.8,1,1.3,1.5c1.1,1,2.1,2.1,3.2,3.2c0.4,0.4,0.8,0.7,1.2,1.1
		c0.7,0.6,1.5,1.2,2.2,1.8c0.7,0.7,1.3,1.5,1.7,2.4C44.8,38.8,44.9,39.3,45.1,39.7z M28.7,34.1L28.7,34.1c-0.2,0-0.3-0.1-0.5-0.1
		c-0.8,0-1.5,0-2.3,0c-0.4,0-0.4,0-0.4,0.4c0,2.8,0,5.7,0,8.5c0,0.3,0.1,0.6,0.1,0.9c0.2,0.6,0.5,1,0.9,1.4c0.7,0.7,1.5,1,2.4,1
		c2.5,0,4.9,0,7.4,0c0.1,0,0.2-0.1,0.3-0.1l0,0c0.1,0,0.2-0.1,0.2-0.1c0-0.1,0-0.3,0-0.4c0-3.8,0-7.5,0-11.3c0-0.1,0-0.2,0-0.4
		c-1,0-2,0-3,0c0,0-0.1,0-0.1,0.1l0,0c0,0,0,0,0-0.1c0,0,0,0,0,0c0,0.1-0.1,0.2-0.1,0.3c0,2.9,0,5.9,0,8.8c0,0.4,0,0.4-0.4,0.4
		c-1,0-2,0-3,0c-0.3,0-0.7-0.2-1-0.3c-0.1,0-0.1,0-0.2,0c0-0.1,0-0.2,0-0.2c-0.2-0.3-0.2-0.7-0.2-1.1c0-2.5,0-5,0-7.5
		C28.7,34.3,28.7,34.2,28.7,34.1z M20.1,33.8c-0.1,0-0.1-0.1-0.2-0.1c-1.1,0-2.2,0-3.3,0c-0.1,0-0.1,0-0.2,0.1
		c-0.3,0.1-0.6,0.1-0.8,0.2c-0.7,0.3-1.3,0.6-1.9,1.1c-0.4,0.3-0.7,0.7-1.1,1.1c-0.2,0.1-0.2,0.4-0.3,0.6c-0.4,0.6-0.7,1.2-0.8,1.9
		c-0.1,0.6,0,1.2-0.1,1.8c-0.1,0.6,0.2,1.2,0.3,1.7c0.2,0.9,0.7,1.7,1.4,2.4c0.6,0.6,1.3,1.1,2.1,1.4c0.4,0.1,0.8,0.4,1.2,0.2
		c0,0,0,0,0,0c0.1,0,0.2,0.1,0.3,0.1c2.2,0,4.5,0,6.8,0c-0.1,0-0.2-0.1-0.3-0.1c0.2,0,0.3,0,0.3,0c0.2-1.1,0.1-2.2,0.1-3.2
		c0-1.2,0-2.3,0-3.5c0-1.2,0-2.3,0-3.5c0-1.2,0-2.3,0-3.5c0-1.2,0-2.3,0-3.5c-1.1,0-2.1,0-3.2,0c0,0.1,0,0.2,0,0.4
		c0,1.1,0,2.2,0,3.2c0,0.2,0,0.4,0.1,0.6C20.5,33.5,20.4,33.8,20.1,33.8z"/>
	<path class="st0" d="M46.2,29.8c-0.3,0.1-0.6,0.3-0.9,0.3c-0.6,0.1-1.2,0.2-1.8,0.3c-0.8,0-1.7,0-2.5-0.2c-1.2-0.3-2.3-0.9-3-2
		c0-0.1-0.1-0.1-0.2-0.2c0.2-0.4-0.3-0.6-0.3-0.9c-0.1,0.1-0.1,0.1-0.1,0.1c-0.1-0.4-0.2-0.7-0.2-1.1c-0.1-0.5-0.2-1.1-0.2-1.6
		c0-0.9,0-1.8,0-2.7c0-0.3,0-0.7,0-1.1C37,20.9,37,20.9,37,21c0.1-0.6,0.2-1.1,0.3-1.7c0.3-0.3,0.3-0.7,0.5-1
		c0.2-0.4,0.4-0.7,0.6-1.1c0.1-0.1,0.2-0.1,0.3-0.2c0.4-0.5,0.9-0.8,1.4-1.1c0.9-0.4,1.9-0.5,2.9-0.5c1.6,0,3,0.7,4.1,1.9
		c0.8,0.9,1.3,1.9,1.6,3.1c0.3,1.3,0.1,2.6,0.2,3.9c0,0.6-0.1,1.3-0.2,1.9c0,0.3-0.2,0.5-0.3,0.8c-0.4,1-1,1.9-1.9,2.5
		C46.3,29.6,46.3,29.7,46.2,29.8z"/>
	<path class="st0" d="M4.3,13.2c0.1-0.1,0.2-0.1,0.3-0.2c0.5-0.5,1.1-0.9,1.7-1.1c0.9-0.3,1.8-0.3,2.7-0.1c0.8,0.2,1.4,0.6,2.1,1.1
		c0.2,0.2,0.6,0.3,0.7,0.5c0.1,0.4,0.4,0.5,0.6,0.8c0.6,0.8,1.1,1.7,1.4,2.7c0.1,0.3,0.2,0.7,0.2,1c0,0.7,0.1,1.5,0.1,2.2
		c0,0.6-0.2,1.2-0.2,1.7c0,0.1,0,0.3,0,0.5c0-0.1-0.1-0.1-0.1-0.1c-0.2,0.7-0.4,1.3-0.6,1.9c-0.1,0.1-0.2,0.1-0.3,0.2
		c-0.4,0.6-0.8,1.1-1.4,1.5c-0.1,0-0.1,0.2-0.1,0.2c-0.1,0.1-0.1,0.3-0.3,0.1c0,0-0.1,0-0.1,0C10,26.8,8.9,27,7.7,27
		c-1.2,0-2.2-0.5-3.1-1.3c-0.4-0.4-0.7-0.8-1-1.1c-0.3-0.3-0.4-0.8-0.7-1.2c-0.4-0.6-0.5-1.3-0.6-1.9c-0.2-0.9-0.2-1.8-0.1-2.7
		c0.1-0.5,0.1-0.9,0.2-1.4c0.3-1.2,0.7-2.3,1.3-3.3c0.1-0.2,0.3-0.4,0.4-0.6C4.3,13.4,4.3,13.3,4.3,13.2z"/>
	<path class="st0" d="M14.3,10.9c0,0.1,0,0.1,0,0.1c-0.1-0.4-0.1-0.8-0.2-1.2c-0.1-0.8-0.2-1.7-0.1-2.5C14,6.7,14,6.1,14.1,5.5
		c0.1-0.4,0.2-0.8,0.4-1.1c0.3-0.7,0.6-1.4,1-2.1c0.2-0.4,0.6-0.7,0.9-1c0.1-0.1,0.1-0.2,0.2-0.3c0-0.1,0.1-0.1,0.2-0.1
		c0.6-0.2,1.3-0.5,1.9-0.7C19.2,0,19.7,0,20.1,0c1.4,0.2,2.4,1,3.2,2c0.9,1.1,1.4,2.5,1.6,3.9c0.1,0.7,0.1,1.4,0.1,2
		c0,0.5-0.1,1-0.1,1.5c0,0.2-0.1,0.5-0.1,0.7c0,0.1,0.1,0.1,0.1,0.2c-0.3,0.4-0.5,1-0.3,1.6c0-0.1-0.1-0.2-0.1-0.3c0,0,0,0-0.1,0
		c0,0.1,0,0.2,0,0.2c-0.1,0.1-0.2,0.1-0.2,0.2c-0.5,1.3-1.3,2.3-2.5,3.1c-0.3,0.2-0.7,0.4-1.1,0.5c-1.6,0.5-3,0-4.2-1.1
		c-0.9-0.8-1.4-1.7-1.9-2.8C14.5,11.5,14.5,11.2,14.3,10.9z"/>
	<path class="st0" d="M39.9,9.3c0-0.1,0-0.1-0.1-0.2c-0.2,0.6-0.3,1.2-0.5,1.7c-0.3,0.9-0.7,1.7-1.2,2.5C38,13.6,38,13.8,37.8,14
		c-0.3,0.3-0.6,0.6-1,0.9c-0.5,0.5-1.1,0.8-1.7,1.1c-0.1,0-0.2,0-0.3,0.1c-0.1,0.1-0.3,0.1-0.5,0.3c-0.3,0-0.7,0-1.1,0
		c-0.4,0-0.8-0.1-1.2-0.1c-0.2-0.1-0.3-0.1-0.5-0.2c-0.5-0.2-1-0.3-1.4-0.6c-0.5-0.4-0.9-0.8-1.2-1.3c-0.4-0.6-0.7-1.3-0.9-2.1
		c-0.3-0.9-0.2-1.8-0.2-2.7c0-1.2,0.2-2.4,0.8-3.4c0.1-0.2,0.2-0.3,0.3-0.5c0.1-0.1,0.1-0.3,0.1-0.4c0.1-0.1,0.2-0.2,0.3-0.3
		c0.6-0.8,1.2-1.6,1.9-2.3c0.8-0.7,1.7-1.2,2.8-1.3c0.7,0,1.3,0.1,1.9,0.5c0.5,0.3,1,0.7,1.5,1.1c0.4,0.4,0.7,0.8,1,1.3
		c0.3,0.5,0.6,1.1,0.9,1.7c0.2,0.4,0.2,0.8,0.3,1.2c0.2,0.6,0.1,1.3,0.1,1.9C39.9,8.9,39.9,9.1,39.9,9.3C40,9.3,39.9,9.3,39.9,9.3z"
		/>
	<path class="st0" d="M14.7,40.9c-0.1,0.2-0.1,0.3-0.1,0.4c0,0-0.1,0-0.1,0c0.1-1,0.2-1.9,0.5-2.9c0.2-0.9,1.7-1.8,2.6-1.8
		c0.8,0,1.7,0,2.5,0c0.2,0,0.3,0.1,0.3,0.3c0,2.1,0,4.3,0,6.4c0,0.2-0.1,0.3-0.3,0.3c-0.7,0-1.5-0.1-2.2,0c-0.9,0.1-1.6-0.3-2.2-0.8
		c-0.5-0.4-0.8-1-0.9-1.7C14.8,41,14.8,41,14.7,40.9z"/>
</g>
</svg>
