<?xml version="1.0" standalone="no"?><!DOCTYPE svg PUBLIC "-//W3C//DTD SVG 1.1//EN" "http://www.w3.org/Graphics/SVG/1.1/DTD/svg11.dtd"><svg t="1534837132689" class="icon" style="" viewBox="0 0 1024 1024" version="1.1" xmlns="http://www.w3.org/2000/svg" p-id="1037" xmlns:xlink="http://www.w3.org/1999/xlink" width="200" height="200"><defs><style type="text/css"></style></defs><path fill="#e30d21" d="M1001.477 217.223h-97.498v-97.498c0-11.883-9.633-21.517-21.517-21.517h-34.965c-11.883 0-21.517 9.633-21.517 21.517v97.498h-97.498c-11.883 0-21.517 9.634-21.517 21.517v34.965c0 11.883 9.633 21.517 21.517 21.517h97.498v97.498c0 11.883 9.633 21.517 21.517 21.517h34.965c11.883 0 21.517-9.633 21.517-21.517v-97.498h97.498c11.883 0 21.517-9.634 21.517-21.517V238.74c0-11.883-9.633-21.517-21.517-21.517zM422.007 426.043c-104.916-103.621 27.201-182.632 27.201-182.632v-19.429H306.729c-3.886 207.242-18.134 288.844-18.134 288.844-11.795 63.399-118.983 63.84-136.733 4.506-5.581-18.658-3.985-37.351-3.155-56.316l10.362-237.033H16.59L3.637 525.779c3.886 132.117 174.861 133.412 174.861 133.412 150.251 7.772 190.404-33.677 190.404-33.677-86.783-120.46 53.105-199.471 53.105-199.471z" p-id="1038"></path><path  fill="#e30d21" d="M690.127 326.308c-7.896-64.584-56.638-99.085-119.825-102.801-72.501-4.263-172.8 46.447-167.724 129.998 0.001 0.01 5.184 53.11 46.629 72.538 0 0-102.326 50.515-89.373 139.888 0 0 7.772 97.145 147.66 98.44 0 0 145.003-4.624 160.613-134.707 7.772-64.763-47.821-95.589-47.821-95.589 80.203-39.118 69.845-107.732 69.841-107.767z m-94.554 202.77c-0.722 37.108-31.061 63.661-64.784 73.195-29.256 8.272-87.167 1.4-95.828-36.342-18.134-79.011 58.287-113.983 58.287-113.983 117.868 25.906 102.325 77.125 102.325 77.13z m27.313-190.599c-3.111 30.547-32.824 54.292-57.104 69.431-10.178 6.345-54.19-20.171-62.061-26.24-65.453-50.473 16.816-126.129 78.578-101.8 24.835 9.782 43.42 30.788 40.587 58.609z" p-id="1039"></path></svg>
