<?xml version="1.0" encoding="utf-8"?>
<!-- Generator: Adobe Illustrator 22.1.0, SVG Export Plug-In . SVG Version: 6.00 Build 0)  -->
<svg version="1.1" id="图层_1" xmlns="http://www.w3.org/2000/svg" xmlns:xlink="http://www.w3.org/1999/xlink" x="0px" y="0px"
	 viewBox="0 0 51 51" style="enable-background:new 0 0 51 51;" xml:space="preserve">
<style type="text/css">
	.st0{fill:#FFFFFF;}
</style>
<path class="st0" d="M41.8,27.3c-1-2.6-2.6-4.8-4.6-6.8c-0.2-0.2-0.3-0.5-0.3-0.7c0.2-1.1,0.4-2.1,0.7-3.1c0.1-0.3,0.2-0.7,0.5-0.8
	c0.5-0.3,0.5-0.6,0.4-1c-0.4-0.2-0.8-0.3-1.2-0.5c-0.4-0.3-0.8-0.7-1.3-1c-0.5-0.4-0.8-1.1-0.4-1.5c1.7-2.1,2.3-4.4,2-7.1
	c-0.2-1.5-0.6-2.9-1.5-4.2C36,0.3,35.4,0,35.1,0c-0.3,0.1-0.6,0.6-0.7,0.9c-0.2,0.7-0.2,1.5-0.3,2.3c-0.3,1.9-0.9,3.7-1.7,5.4
	c-0.1,0.2-0.5,0.3-0.6,0.3c-0.5-0.3-1-0.6-1.6-1C30.7,7,31,6.2,30.9,5.2c-0.7,0.5-1.3,0.9-2.1,1.4c0-0.9,0-1.6,0-2.5
	c-1,1.4-2.2,2.5-3.8,3.2c0-0.8,0.1-1.5,0.1-2.4c-1.9,2-4.3,3.5-6.4,4.2c-0.2-0.5-0.4-1-0.6-1.5c-0.8-2-1.2-4.1-1.4-6.3
	c0-0.5-0.1-1.2-0.8-1.4c-0.6-0.1-1,0.3-1.2,0.8c-1.8,3.2-2.2,7.8,0.5,11c0.5,0.6,0.3,1.1-0.4,1.5c-0.4,0.2-0.8,0.4-1.1,0.7
	c-0.5,0.3-0.9,0.7-1.5,1.1c0,0.2,0,0.6,0.5,0.8c0.2,0.1,0.3,0.5,0.4,0.8c0.1,0.7,0,1.5,0.4,2.2c0.7,1.2,0,1.9-0.7,2.7
	c-4,4.3-5.6,9.4-4.6,15.2c1.7,9.4,10.6,15.6,20.1,14C39.2,49,45.7,37.7,41.8,27.3z M24.5,20.9c0.5-0.1,1,0,1.5,0
	c0.6,0,1.1,0.1,1.4,0.7c0.3,0.7-0.2,1.1-0.6,1.3c-1,0.6-1.1,1.5-1,2.5c0.1,0.8,0.6,1.2,1.3,0.8c0.6-0.3,1.1-0.8,1.9-1.3
	c-0.2,0.4-0.2,0.7-0.4,0.9c-0.4,0.4-0.9,0.8-1.4,1.1c-0.6,0.3-1.3,0.7-1.9,0.7c-0.6,0-1.3-0.5-1.9-0.9c-0.5-0.3-0.9-0.8-1.3-1.2
	c-0.1-0.1-0.1-0.3-0.1-0.4c0,0,0.1-0.1,0.1-0.1c0.4,0.3,0.8,0.7,1.2,1c1,0.7,1.7,0.3,1.8-0.9c0.1-0.8-0.1-1.6-0.9-2.1
	c-0.1-0.1-0.3-0.2-0.3-0.3c-0.2-0.4-0.5-0.8-0.3-1.1C23.6,21.3,24.1,21,24.5,20.9z M14,42.7c-4.6-4.9-4.5-14.2,0.5-18.8
	C15.6,30.1,14.4,36.3,14,42.7z M16.5,21c-0.6-0.3-1.3-0.9-1.5-1.5c-0.5-1-0.7-2.1-1-3.1c0.2-1.5,0.7-2.3,2-2.4
	c1.6-0.2,3.2-0.1,4.8-0.1c0.2,0,0.4,0.1,0.6,0.1c2,0.7,2.6,1.8,1.8,3.8c-0.6,1.5-1.4,2.9-3.1,3.4C18.9,21.6,17.6,21.6,16.5,21z
	 M25.5,33.2c-3.1,0-5.5-1.3-5.5-2.7c0-1.7,2.5,0.3,5.5,0.3s5.5-2.1,5.5-0.3C31,31.5,28.6,33.2,25.5,33.2z M33.2,21.4
	c-2,0.3-3.9,0-5-1.9c-0.4-0.7-0.8-1.6-1-2.4c-0.3-1.1,0-1.7,0.9-2.4c1-0.7,2.1-0.9,4.1-1c0.9,0.1,1.9,0.2,2.8,0.4
	c1,0.2,1.5,0.9,1.5,1.9c0,0.7,0,1.4-0.2,2.1C36,19.8,35.1,21.1,33.2,21.4z M37,42.3c-0.4-6.1-1.6-12.1-0.6-18.3
	C40.9,27.5,41.3,39.3,37,42.3z"/>
</svg>
