<?xml version="1.0" encoding="utf-8"?>
<!-- Generator: Adobe Illustrator 21.0.0, SVG Export Plug-In . SVG Version: 6.00 Build 0)  -->
<svg version="1.1" id="Layer_1" xmlns="http://www.w3.org/2000/svg" xmlns:xlink="http://www.w3.org/1999/xlink" x="0px" y="0px"
	 viewBox="0 0 200 200" style="enable-background:new 0 0 200 200;" xml:space="preserve">
<style type="text/css">
	.st0{fill:#0D758D;}
</style>
<path class="st0" d="M61.3,105.5c0.5,1.1,1,2,1.3,3c5.4,14.9,13.4,28.8,23.6,41.1c1.3,1.6,3,3,4.6,4.4c0.5,0.5,1,1,1.5,1.6
	c-1.8,0.1-9.7-6.5-18-14.6c-5.6-5.5-9.5-12.2-12.5-19.4c-0.2,0-0.3,0.1-0.4,0.2c-0.5,3.4-1.1,6.8-1.7,10.2c-0.2,1.2-0.4,2.3-0.7,3.4
	c-1.4,4.6-6,6.8-10.3,4.5c-2-1.1-3.7-2.6-5.1-4.4c-4.2-5.3-6.3-11.6-7.5-18.2c-1.9-11-0.3-21.6,3.1-32.1c0.4-1.2,0.9-2.5,1-3.8
	c0.1-0.7,0-1.8-0.5-2.2c-5.2-5.1-7.8-11.6-10.2-18.2c-1.6-4.4-3-8.8-4.5-13.2c-1.5-4.4-4.4-7.9-7-11.5c-1.9-2.5-3.8-4.9-5.6-7.5
	C9.8,25,8.3,21.1,9.5,16.4c1.1-4,5.3-7.3,9.9-7.3c5.7-0.1,10.7,2,15.6,4.5c3.2,1.6,6.1,3.8,9.1,5.9c1.3,1,2.7,1.9,4.4,1.9
	c11.6,0,21.9,3.7,31.5,10.2c8,5.5,15.8,11.2,22.6,18.2c9.6,10,17.5,21,23,34c4.9,11.6,10.7,22.8,16.1,34.2c0.8,1.6,2.2,2.8,3.9,3.3
	c11.6,4.2,21.8,10.8,31.2,18.6c3.8,3.2,7.4,6.6,10.3,10.6c1.2,1.7,1.1,2.2-0.9,2.7c-4.3,1-8.8,1.8-13.1,2.7l-12,2.4
	c0.2,1.4,1,2.6,2.2,3.3c2.6,1.8,5.1,3.8,7.8,5.4c6.5,3.9,12.1,8.8,16.9,14.6c0.8,1,1.7,1.9,2.6,2.8c1.8,1.6,2.6,3.6,3.2,6.2
	c-0.9-0.6-1.5-1-2.1-1.5c-5.8-5.2-12.5-9.4-19.6-12.5c-6.2-2.7-11.9-6.6-16.6-11.5c-2.2-2.3-3.9-5-5.1-7.9c-0.8-1.9-0.4-2.6,1.5-3.3
	c7.4-2.9,15-4.7,23-4.4c1.3,0,2.6,0,4,0c0.1,0,0.1-0.1,0.6-0.2c-0.9-1-1.6-2-2.6-2.6c-4-2.8-8.1-5.4-11.9-8.3
	c-6.7-5.3-14.7-7.7-22.6-10.3c-3.7-1.2-6.4-3.2-8-6.6c-2.8-5.6-5.5-11.2-8.2-16.8c-3.7-8.1-6.9-16.4-11-24.2
	c-11.5-22-28.4-38.6-51.2-48.9c-4.2-1.8-8.7-2.8-13.3-2.9c-1.8-0.1-3.5-0.2-5.3-0.3c-1.9-0.2-3.6-1-5-2.2c-5.9-4.8-12.9-8.3-20.3-10
	c-3.1-0.7-5.5,1.8-4.5,4.8c0.8,2.2,2,4.3,3.2,6.2c1.3,2,2.8,4,4.3,5.8c4.9,6,8.3,12.8,10.2,20.3c0.9,3.3,2,6.4,3.2,9.6
	c1.7,4.5,4.3,8.6,7.6,12.1c2.4,2.5,3,5.3,1.9,8.6c-1.5,4.5-3.3,9-4.1,13.6c-2,11-1,21.8,4.1,32c0.9,1.8,2,3.3,3.9,4.2
	c1,0.4,1.4,0.2,1.5-0.8c0.5-3.9,1-7.8,1.6-11.7c0.6-4.4,2.5-8.2,5.2-11.6C59.2,107.9,60.2,106.9,61.3,105.5L61.3,105.5z M45.7,51.9
	c-1.8-4.8-4.6-9.2-8.1-12.8c3.4-2.1,8.3-0.8,10.4,2.5C50.3,45.4,49.5,49.6,45.7,51.9z"/>
</svg>
