<?xml version="1.0" encoding="utf-8"?>
<!-- Generator: Adobe Illustrator 22.1.0, SVG Export Plug-In . SVG Version: 6.00 Build 0)  -->
<svg version="1.1" id="图层_1" xmlns="http://www.w3.org/2000/svg" xmlns:xlink="http://www.w3.org/1999/xlink" x="0px" y="0px"
	 viewBox="0 0 29.1 29.1" style="enable-background:new 0 0 29.1 29.1;" xml:space="preserve">
<style type="text/css">
	.st0{fill:#FFFFFF;}
</style>
<path class="st0" d="M14.7,5c-1.3-0.2-2.6-5-2.6-5.1c-0.9,0.3-8.4,2.5-5.5,4.4c4.9,3.2,4.6,9.8-2.6,15.2c-10.1,7.7,10,9.9,10.3,9.4
	c5-8.4,2.6-14.6,2.6-14.6s5.8-1.9,10.9-2.7C28.5,11.7,25,6.5,14.7,5L14.7,5L14.7,5z M22.6,8c0,0-3.6,1-5.3,1.9c0,0,0.9-2.9,0.9-3.4
	C18.2,6.5,21.9,7.5,22.6,8L22.6,8L22.6,8z M16.6,9.9c0,0-1.6-1-2.2-1.1l3.5-2.3C17.8,6.5,17.8,7.7,16.6,9.9L16.6,9.9L16.6,9.9z
	 M13.6,15.5l3,1.8c-0.4,0.4-3.3,1.8-3.3,1.8C13.7,18.1,13.6,15.5,13.6,15.5L13.6,15.5L13.6,15.5z M14,15.4l2.6-0.9
	c0.2,0.9,0.2,2.4,0.2,2.4C16,16.6,14,15.4,14,15.4L14,15.4L14,15.4z M7.9,21.2c0,0,2.3-3.9,2.2-4.3c0,0,0.3,1.1,2,2.6
	C12.1,19.5,10.8,20.3,7.9,21.2L7.9,21.2L7.9,21.2z M11.9,20.3c0,0-0.5,2.1-1.6,3.8c0,0-1.6-0.7-2.8-2.2
	C7.6,21.9,11.5,20.6,11.9,20.3L11.9,20.3L11.9,20.3z M12.7,9.2c0,0-1.3,1.3-2.1,2c0,0,0-2.8-0.2-2.9C10.4,8.3,12,8.7,12.7,9.2
	L12.7,9.2z M10.6,7.5l2.2-1.9c0,0,0.6,0.6,0.4,2.8C13.2,8.4,11.2,7.6,10.6,7.5L10.6,7.5L10.6,7.5z M13,9.7c0,0-0.4,1.8-1.2,2.9
	c0,0-0.8-0.7-1.2-0.9C10.6,11.7,12.7,9.9,13,9.7L13,9.7L13,9.7z M11.5,13.9c0,0,0.6,0.4,0.6,1.4c0,0-4.2,1.9-4.8,2.3
	C7.2,17.6,11.3,14.3,11.5,13.9L11.5,13.9z M10.6,16.7l2.3-0.9c0,0,0.3,1.6-0.4,3.3C12.4,19.1,11.3,18.4,10.6,16.7L10.6,16.7
	L10.6,16.7z M12.7,15.1c0,0-0.3-1.7-0.6-2c0,0,1.5-0.7,3.6-2C15.7,11.2,13,14.7,12.7,15.1L12.7,15.1z M12.8,12.1
	c0,0,0.8-2.2,0.8-2.7l2.1,1.1L12.8,12.1z M17.1,6.4c-0.2,0.1-3.5,1.9-3.5,1.9c0.5-1.5-0.3-2.7-0.3-2.7L17.1,6.4L17.1,6.4z M13.6,4.9
	l-2.3-0.4L13,3.5C13,3.5,13.6,4.9,13.6,4.9z M8.5,2C8.7,1.8,12,0.4,12,0.4s0.9,2.3,0.6,2.3C12.3,2.7,8.3,2.2,8.5,2L8.5,2L8.5,2z
	 M12.7,3.1l-2.1,1.3H10c0,0-1.9-2-2-2.2C8,2.3,12.2,3.2,12.7,3.1L12.7,3.1L12.7,3.1z M7.6,2.5l1.5,1.7c0,0-2.3-0.5-2.5-0.7
	C6.5,3.3,7.6,2.5,7.6,2.5L7.6,2.5z M7.4,4.4l1.5,0.5l0.5,1.8C9.4,6.7,8,4.9,7.4,4.4L7.4,4.4L7.4,4.4z M9.2,4.9l3.2,0.5L10,7.2
	C10,6.8,9.2,4.9,9.2,4.9L9.2,4.9L9.2,4.9z M10.2,12.7c0,0,0.6,0.2,0.8,0.5c0,0-1,0.9-1.8,1.4C9.2,14.5,10.1,13,10.2,12.7L10.2,12.7z
	 M8.2,15.9c0,0,1.2-1.1,2.7-1.7l-4,3.5L8.2,15.9L8.2,15.9z M9,17.3c0,0-1,2.7-1.9,3.7c0,0-0.4-0.5-0.5-2.5C6.6,18.5,8.6,17.4,9,17.3
	L9,17.3L9,17.3z M5.8,18.9c0,0-0.1,1.1,0.7,2.8c0,0-3.7,1.2-4.3,1.2C2.1,22.8,2.5,20.4,5.8,18.9L5.8,18.9z M2.1,23.1
	c1.1,0,4.2-0.9,4.2-0.9c-0.2,0.6-2.5,3.6-2.5,3.6C1.9,24.6,2.1,23.1,2.1,23.1L2.1,23.1L2.1,23.1z M4,26l2.8-3.6c0,0,1.2,1.2,2.6,1.9
	l-5.2,1.9L4,26L4,26z M4.5,26.3l5.3-1.4l-1.9,2.9C7.9,27.7,5.7,27.4,4.5,26.3L4.5,26.3L4.5,26.3z M10.6,24.9c0,0,2.2,1,4.5,1
	c0,0-5.3,2.1-6.9,2.1C8.2,28,10.6,25.1,10.6,24.9L10.6,24.9L10.6,24.9z M14,28.9c0,0-3.7-0.3-4.8-0.9c0,0,3.3-0.6,5.9-1.8
	C15.2,26.2,14.4,28.5,14,28.9L14,28.9L14,28.9z M15.2,25.7c0,0-3.7-0.7-4.4-1.4c0,0,5.2-2.1,5.4-2.5C16.2,21.9,15.8,24.9,15.2,25.7
	L15.2,25.7L15.2,25.7z M11.2,23.6l1.7-3.5c0,0,2.5,1.3,3.4,1.5C16.2,21.6,12,23.7,11.2,23.6L11.2,23.6L11.2,23.6z M16.4,21.2
	c-1.5-0.4-3.1-1.6-3.1-1.6c0.7-0.2,3.5-1.9,3.5-1.9C17,19.6,16.4,21.2,16.4,21.2L16.4,21.2z M13.5,14.8c0,0,2.9-3.3,3.1-3.7
	c0,0,1.8,0.9,2.5,1.9C19,13,14.2,14.5,13.5,14.8L13.5,14.8z M17.4,10.4c0,0,5.1-1.9,5.6-2c0,0-1.3,2.4-3.4,4.4
	C19.6,12.8,18.4,11,17.4,10.4L17.4,10.4L17.4,10.4z M20.5,12.7c0,0,2.5-2.9,3-4.3c0,0,3.4,2.2,3.9,3.3
	C27.4,11.7,21.8,12.1,20.5,12.7L20.5,12.7L20.5,12.7z"/>
</svg>
