<?xml version="1.0" encoding="utf-8"?>
<!-- Generator: Adobe Illustrator 22.1.0, SVG Export Plug-In . SVG Version: 6.00 Build 0)  -->
<svg version="1.1" id="图层_1" xmlns="http://www.w3.org/2000/svg" xmlns:xlink="http://www.w3.org/1999/xlink" x="0px" y="0px"
	 viewBox="0 0 25.5 25.1" style="enable-background:new 0 0 25.5 25.1;" xml:space="preserve">
<style type="text/css">
	.st0{fill:#FFFFFF;}
</style>
<path class="st0" d="M7.2,13.3c0.1,0.2,0.1,0.3,0.2,0.4c0.7,2.1,1.9,4,3.3,5.7c0.2,0.2,0.4,0.4,0.6,0.6c0.1,0.1,0.1,0.1,0.2,0.2
	c-0.2,0-1.3-0.9-2.5-2c-0.8-0.8-1.3-1.7-1.7-2.7c0,0,0,0-0.1,0C7.2,16,7.1,16.5,7,17c0,0.2-0.1,0.3-0.1,0.5
	c-0.2,0.6-0.8,0.9-1.4,0.6c-0.3-0.2-0.5-0.4-0.7-0.6c-0.6-0.7-0.9-1.6-1-2.5c-0.3-1.5,0-3,0.4-4.4c0.1-0.2,0.1-0.3,0.1-0.5
	c0-0.1,0-0.2-0.1-0.3C3.5,9,3.2,8.1,2.8,7.2C2.6,6.6,2.4,6,2.2,5.3C2,4.7,1.6,4.3,1.2,3.8C1,3.4,0.7,3.1,0.5,2.7
	C0.1,2.2-0.1,1.7,0.1,1c0.2-0.6,0.7-1,1.4-1c0.8,0,1.5,0.3,2.2,0.6C4,0.8,4.4,1.1,4.8,1.4C5,1.6,5.2,1.7,5.4,1.7
	c1.6,0,3,0.5,4.4,1.4c1.1,0.8,2.2,1.5,3.1,2.5c1.3,1.4,2.4,2.9,3.2,4.7c0.7,1.6,1.5,3.1,2.2,4.7c0.1,0.2,0.3,0.4,0.5,0.5
	c1.6,0.6,3,1.5,4.3,2.6c0.5,0.4,1,0.9,1.4,1.5c0.2,0.2,0.2,0.3-0.1,0.4c-0.6,0.1-1.2,0.2-1.8,0.4L21,20.6c0,0.2,0.1,0.4,0.3,0.5
	c0.4,0.2,0.7,0.5,1.1,0.7c0.9,0.5,1.7,1.2,2.3,2c0.1,0.1,0.2,0.3,0.4,0.4c0.2,0.2,0.4,0.5,0.4,0.9c-0.1-0.1-0.2-0.1-0.3-0.2
	c-0.8-0.7-1.7-1.3-2.7-1.7c-0.9-0.4-1.6-0.9-2.3-1.6c-0.3-0.3-0.5-0.7-0.7-1.1c-0.1-0.3-0.1-0.4,0.2-0.5c1-0.4,2.1-0.6,3.2-0.6
	c0.2,0,0.4,0,0.6,0c0,0,0,0,0.1,0c-0.1-0.1-0.2-0.3-0.4-0.4c-0.6-0.4-1.1-0.7-1.6-1.1c-0.9-0.7-2-1.1-3.1-1.4
	c-0.5-0.2-0.9-0.4-1.1-0.9c-0.4-0.8-0.8-1.5-1.1-2.3c-0.5-1.1-1-2.3-1.5-3.3c-1.6-3-3.9-5.3-7.1-6.8C7,2.9,6.4,2.7,5.7,2.7
	c-0.2,0-0.5,0-0.7,0c-0.3,0-0.5-0.1-0.7-0.3C3.5,1.7,2.5,1.2,1.5,1C1.1,0.9,0.8,1.2,0.9,1.6C1,1.9,1.2,2.2,1.3,2.5
	c0.2,0.3,0.4,0.6,0.6,0.8c0.7,0.8,1.1,1.8,1.4,2.8C3.5,6.6,3.6,7,3.8,7.4c0.2,0.6,0.6,1.2,1,1.7c0.3,0.3,0.4,0.7,0.3,1.2
	c-0.2,0.6-0.5,1.2-0.6,1.9c-0.3,1.5-0.1,3,0.6,4.4c0.1,0.2,0.3,0.5,0.5,0.6c0.1,0.1,0.2,0,0.2-0.1C5.9,16.5,6,16,6.1,15.4
	c0.1-0.6,0.3-1.1,0.7-1.6C6.9,13.6,7.1,13.5,7.2,13.3L7.2,13.3z M5.1,5.9C4.8,5.2,4.4,4.6,3.9,4.1C4.4,3.9,5.1,4,5.4,4.5
	C5.7,5,5.6,5.6,5.1,5.9z"/>
</svg>
