<?xml version="1.0" encoding="iso-8859-1"?>
<!-- Generator: Adobe Illustrator 22.1.0, SVG Export Plug-In . SVG Version: 6.00 Build 0)  -->
<svg version="1.1" id="&#x56FE;&#x5C42;_1" xmlns="http://www.w3.org/2000/svg" xmlns:xlink="http://www.w3.org/1999/xlink" x="0px"
	 y="0px" viewBox="12.5 12.8 26.3 25.3" style="enable-background:new 0 0 51.024 51.024;" xml:space="preserve">
<g>
	<path style="fill:#FFFFFF;" d="M24.059,17.419v-4.4c-5.8,0.7-10.5,5.4-11.2,11.2h4.5C18.059,20.819,20.759,18.119,24.059,17.419z"
		/>
	<path style="fill:#FFFFFF;" d="M26.759,33.619v4.4c6-0.7,10.7-5.4,11.4-11.4h-4.7C33.059,30.219,30.159,32.919,26.759,33.619z"/>
	<path style="fill:#FFFFFF;" d="M33.759,24.119h4.5c-0.7-5.8-5.4-10.5-11.4-11.2v4.5h0.2C30.359,18.119,33.059,20.819,33.759,24.119
		z"/>
	<path style="fill:#FFFFFF;" d="M17.359,26.619h-4.5c0.2,2.2,1,4.2,2.2,5.9l-1.3,3.9l3.8-1.3c1.9,1.5,4.2,2.5,6.7,2.8v-4.5h-0.2
		C20.559,32.919,17.859,30.219,17.359,26.619z"/>
</g>
</svg>
