<?xml version="1.0" encoding="iso-8859-1"?>
<!-- Generator: Adobe Illustrator 22.1.0, SVG Export Plug-In . SVG Version: 6.00 Build 0)  -->
<svg version="1.1" id="&#x56FE;&#x5C42;_1" xmlns="http://www.w3.org/2000/svg" xmlns:xlink="http://www.w3.org/1999/xlink" x="0px"
	 y="0px" viewBox="12.5 12.5 25.8 25.8" style="enable-background:new 12.5 12.5 25.8 25.8;" xml:space="preserve">
<g>
	<path style="fill:#FFFFFF;" d="M34.978,21.174c0,0.309,0,0.611,0,0.914c0,0.291-0.005,0.287-0.189,0.511
		c-0.294,0.359-1.33,1.66-1.559,1.947c-0.017,0.022-0.036,0.051-0.037,0.077c-0.004,0.124-0.002,0.248-0.002,0.392
		c0.593-0.286,1.174-0.566,1.767-0.852c0,0.061,0,0.108,0,0.156c0,0.387-0.001,0.774,0.003,1.16
		c0.001,0.068-0.021,0.102-0.085,0.133c-0.541,0.258-1.08,0.521-1.62,0.78c-0.055,0.026-0.064,0.059-0.064,0.113
		c0.001,1.51,0,3.019,0,4.529c0,0.492-0.292,0.897-0.762,1.045c-0.088,0.028-0.184,0.044-0.277,0.045
		c-0.468,0.004-1.457,0.002-1.488,0.002c0-0.429,0-0.852,0-1.284c0.418,0,0.836,0,1.257,0c0-1.271,0-2.533,0-3.809
		c-0.1,0.048-1.018,0.496-1.384,0.671c-0.056,0.027-0.072,0.058-0.072,0.116c0.002,0.668,0.008,1.336-0.001,2.005
		c-0.006,0.449-0.242,0.765-0.631,0.971c-0.16,0.084-0.334,0.115-0.515,0.114c-0.974-0.001-1.948-0.001-2.922-0.001
		c-0.032,0-0.064,0-0.103,0c0-2.999,0-5.992,0-8.989c1.391,0,4.18,0,4.18,0l-0.001,4.046c0,0-0.019,0.07-0.042,0.081
		c-0.396,0.195-1.205,0.583-1.22,0.588c0-1.144,0-2.284,0-3.43c-0.551,0-1.096,0-1.65,0c0,2.135,0,4.272,0,6.415
		c0.025,0.002,1.041,0.005,1.525,0.005c0.114,0,0.114-0.001,0.114-0.111c0.001-0.828,0.002-1.656,0.001-2.483
		c0-0.06,0.014-0.094,0.075-0.123c0.854-0.409,2.616-1.263,2.647-1.279c0-0.449,0.001-0.898-0.001-1.347
		c0-0.063,0.016-0.11,0.057-0.16c0.448-0.541,0.892-1.084,1.337-1.626c0.006-0.008,0.01-0.017,0.022-0.039c-0.855,0-1.699,0-2.548,0
		c0-0.432,0-0.853,0-1.28C32.184,21.174,33.575,21.174,34.978,21.174z"/>
	<path style="fill:#FFFFFF;" d="M22.572,31.395l-0.473,0.69c-0.015,0.021-0.051,0.038-0.078,0.038c-0.63,0.001-2.286-0.003-2.483,0
		c-0.058,0.001-0.092-0.015-0.12-0.069c-0.211-0.412-0.426-0.821-0.636-1.233c-0.023-0.045-0.023-0.104-0.023-0.157
		c-0.001-0.898-0.005-2.722-0.005-2.722H16.9c0,0,0,2.782,0,4.178c-0.376,0-0.745,0-1.12,0c0-1.774,0-3.549,0-5.33
		c1.37,0,4.126,0,4.126,0l-0.001,3.492c0,0.1,0.018,0.188,0.065,0.278c0.225,0.434,0.677,1.323,0.69,1.342
		c0.377-0.526,1.125-1.571,1.125-1.571s-0.726-0.843-0.962-1.121c-0.023-0.027-0.036-0.072-0.036-0.109
		c-0.002-1.361-0.002-4.134-0.002-4.186c-0.211,0.184-0.404,0.353-0.608,0.53c-0.002-0.036-0.003-1.153-0.005-1.688
		c0-0.051,0.014-0.084,0.054-0.116c0.265-0.218,0.484-0.475,0.648-0.779c0.133-0.247,0.242-0.505,0.303-0.778
		c0.06-0.264,0.102-0.532,0.145-0.8c0.017-0.106,0.016-0.216,0.019-0.324c0.001-0.04,0.005-0.067,0.056-0.066
		c0.4,0.002,0.801,0.002,1.201,0.003c0.005,0,0.01,0.004,0.027,0.011c-0.024,0.335-0.08,0.669-0.158,1.008h2.12v1.277h-2.547
		c0,0,0,3.69-0.001,5.489c0,0.056,0.015,0.095,0.055,0.134c0.16,0.152,0.317,0.308,0.481,0.469c0.157-0.171,0.312-0.336,0.463-0.505
		c0.017-0.019,0.016-0.056,0.017-0.085c0.002-1.71,0.006-5.221,0.006-5.221h1.259c0,0-0.006,5.345-0.002,5.632
		c0.001,0.068-0.024,0.116-0.065,0.166c-0.285,0.339-0.884,1.062-0.884,1.062l1.289,1.785c0,0-1.034,0.005-1.513,0.007
		c-0.052,0-0.08-0.016-0.109-0.059L22.572,31.395z"/>
	<path style="fill:#FFFFFF;" d="M38.315,32.109c-0.081,0-0.984,0.001-1.369,0.002c-0.044,0-0.073-0.009-0.098-0.051
		c-0.482-0.791-0.965-1.582-1.447-2.373c-0.017-0.028-0.027-0.065-0.027-0.097c-0.001-2.748-0.001-8.417-0.001-8.417h1.267
		c0,0,0.001,7.819-0.001,7.957c-0.004,0.164,0.033,0.239,0.099,0.348C37.251,30.33,38.296,32.075,38.315,32.109z"/>
	<path style="fill:#FFFFFF;" d="M17.3,23.472c0,0,0.001-1.693-0.002-2.485c0-0.076,0.022-0.095,0.096-0.094
		c0.327,0.004,0.99,0.002,0.99,0.002v2.571h0.446v-2.086h1.097c0,0-0.009,3.104-0.004,3.184c0.003,0.051-0.02,0.059-0.062,0.058
		c-0.059-0.002-4.085,0.001-4.085,0.001V21.38l1.009-0.008c0.073-0.001,0.09,0.022,0.089,0.092
		c-0.006,0.638-0.007,1.277-0.014,1.915c-0.001,0.075,0.019,0.099,0.094,0.095C17.065,23.467,17.3,23.472,17.3,23.472z"/>
	<path style="fill:#FFFFFF;" d="M14.897,32.123c-0.426,0-0.84,0-1.263,0c0-1.58,0-3.16,0-4.742
		c-0.273,0.166-0.537,0.327-0.817,0.497c-0.004-0.055-0.007-0.081-0.007-0.108c0-0.425,0.001-0.849-0.001-1.274
		c0-0.071,0.025-0.116,0.082-0.159c0.298-0.222,0.566-0.477,0.795-0.77c0.29-0.372,0.502-0.781,0.597-1.247
		c0.008-0.037,0.021-0.072,0.032-0.109c0.482,0,0.96,0,1.451,0c-0.018,0.064-0.031,0.123-0.05,0.179
		c-0.182,0.537-0.43,1.043-0.744,1.516c-0.052,0.079-0.08,0.157-0.079,0.254c0.003,1.944,0.004,3.889,0.004,5.833
		C14.897,32.035,14.897,32.075,14.897,32.123z"/>
	<path style="fill:#FFFFFF;" d="M12.805,24.593c0-0.357,0-0.706,0-1.054c0-0.108,0.005-0.217-0.002-0.324
		c-0.004-0.066,0.022-0.104,0.072-0.14c0.366-0.274,0.683-0.594,0.941-0.972c0.238-0.349,0.402-0.729,0.479-1.145
		c0.007-0.04,0.016-0.063,0.064-0.063h1.429c-0.196,0.705-0.529,1.352-0.946,1.94C14.241,23.685,13.507,24.272,12.805,24.593z"/>
	<path style="fill:#FFFFFF;" d="M19.921,25.166c0,0.385,0,0.762,0,1.143c-1.381,0-2.756,0-4.139,0c0-0.38,0-0.759,0-1.143
		C17.157,25.166,18.535,25.166,19.921,25.166z"/>
</g>
</svg>
