<?xml version="1.0" encoding="utf-8"?>
<!-- Generator: Adobe Illustrator 22.1.0, SVG Export Plug-In . SVG Version: 6.00 Build 0)  -->
<svg version="1.1" id="图层_1" xmlns="http://www.w3.org/2000/svg" xmlns:xlink="http://www.w3.org/1999/xlink" x="0px" y="0px"
	 viewBox="5 20 40.8 10.9" style="enable-background:new 0 0 51 51;" xml:space="preserve">
<style type="text/css">
	.st0{fill:#FFFFFF;}
</style>
<g>
	<polygon class="st0" points="34,21.5 25.2,21.5 24.7,22.3 33.5,22.3 	"/>
	<polygon class="st0" points="19.6,25.8 20.1,25 16.4,25 15.9,25.8 	"/>
	<polygon class="st0" points="39,21.5 38.6,22.3 43,22.3 39.6,29.3 36.5,29.3 36.1,30.1 40.1,30.1 43.9,22.3 44.9,22.3 45.3,21.5
		"/>
	<polygon class="st0" points="36,24.3 35.1,26.2 36.2,25.7 36.2,25.7 38.2,21.5 37.3,21.5 36.4,23.5 34.5,23.5 34,24.3 	"/>
	<polygon class="st0" points="34.8,26.8 33.1,27.5 32.6,28.6 34.3,27.9 33.3,30.1 34.2,30.1 35.9,26.4 	"/>
	<polygon class="st0" points="16.5,24.1 16.3,24.6 20.2,24.6 20.6,23.8 21.7,21.3 20.8,21.3 19.7,23.8 19,23.8 20.1,21.3 19.2,21.3
		18.1,23.8 17.5,23.8 18.6,21.3 17.7,21.3 	"/>
	<polygon class="st0" points="15.4,24.6 16.9,21.3 16,21.3 14.5,24.6 	"/>
	<path class="st0" d="M15.8,24.9h-0.9l0,0l-3.1,2.9H13l0.8-0.7l-1.3,2.3H8.9c-1.4,0-2.5-1.1-2.5-2.5s1.1-2.5,2.5-2.5
		c1,0,1.8,0.6,2.2,1.4c0,0,0,0.1,0.1,0.1l0.8-0.3c0-0.1,0-0.1-0.1-0.2c-0.2-0.4-0.5-0.8-0.8-1.1c0.3-0.6,0.9-1,1.6-1
		c0.4,0,0.8,0.2,1.1,0.5l0.4-0.8c-0.4-0.3-0.9-0.5-1.4-0.5c-1-0.1-1.9,0.5-2.4,1.3c-0.3-0.1-0.6-0.2-0.8-0.3c0.5-1.3,1.7-2.1,3-2.1
		c0.8,0,1.6,0.3,2.2,0.8l0,0l0.3-0.7c-0.7-0.6-1.6-0.9-2.5-0.9c-1.8,0-3.3,1.2-3.9,2.9C7,23.6,5.6,25,5.6,26.8s1.5,3.3,3.3,3.3h4
		l0,0l0,0L15.8,24.9z"/>
	<polygon class="st0" points="18.9,27.1 19.4,26.3 15.8,26.3 15.3,27.1 15.3,27.1 13.6,30.2 14.5,30.2 16.2,27.1 18,27.1 16.2,30.2
		17.2,30.2 	"/>
	<polygon class="st0" points="24,22.1 23.5,22.1 23.1,22.1 22.7,22.1 23.1,21.3 22.2,21.3 20.7,24.6 21.6,24.6 22.4,22.9 22.7,22.9
		21.3,25.5 21.3,25 20.5,25 20.6,26.9 18.9,30.2 19.8,30.2 20.7,28.4 20.9,30.2 21.7,30.2 21.4,27 	"/>
	<path class="st0" d="M25.6,25.2H32l0.5-0.8h-8.7l-0.5,0.8h1.3L22.2,29c-0.1,0.1-0.1,0.2-0.1,0.3v0.1c0,0.2,0.1,0.4,0.2,0.6
		s0.3,0.2,0.6,0.2H30l0,0c1.3,0,2.3-1.1,2.3-2.4s-1.1-2.4-2.4-2.4c-0.5,0-1,0.1-1.4,0.4l0,0l0,0c-0.1,0-0.1,0.1-0.2,0.1l-3.6,2.7H26
		l2.9-2.2c0.3-0.2,0.6-0.3,0.9-0.3c0.9,0,1.6,0.7,1.6,1.6s-0.7,1.6-1.6,1.6h-4.6l0,0h-2.3l0,0L25.6,25.2z"/>
</g>
</svg>
