<svg xmlns="http://www.w3.org/2000/svg" viewBox="0 0 517.99 184.56"><defs><style>.cls-1{fill:#fff;}</style></defs><title>众览无限</title><g id="图层_2" data-name="图层 2"><g id="mudu"><path class="cls-1" d="M152.35,160.92q-60.7-.06-121.4,0c-8.37,0-8.36-.12-8.26-8.73.19-18.48.1-37,.23-55.44,0-3.07-1.37-4.19-4.22-4.14-4,.06-8,.31-12,0C1.87,92.23,0,93.75,0,99c.24,26.3.21,52.62.06,78.93,0,4.68,1.36,6.33,6.26,6.28,24.64-.23,49.29-.11,73.94-.11V184c21.65,0,43.3.1,65-.07,4.71,0,10.73,2.12,13.85-1.22s.89-9.26,1-14C160.17,161,160,160.93,152.35,160.92Z"/><path class="cls-1" d="M140.69,149.88c5-.14,10-.19,15,0,3.37.11,4.65-1,4.53-4.57-.27-8-.08-16-.09-23.94,0-8.14,0-16.29,0-24.43,0-2.16.19-4.44-3.23-4.31-5.48.22-11,.23-16.46.24-2.81,0-3.84,1.51-3.84,4.06q0,24.69,0,49.37C136.53,149.05,138,150,140.69,149.88Z"/><path class="cls-1" d="M72.24,149.8h0l15-.08c2.62.49,4.16-.19,4.14-3.24q-.11-24.72-.08-49.43c0-2.88-1.18-4.33-4.14-4.32-5,0-10-.09-15-.13-2.56,0-4,1-4,3.83q.12,25,.08,49.93C68.26,149.21,69.45,150.35,72.24,149.8Z"/><path class="cls-1" d="M461.88,38.61c0,8.28,0,8.41,8.46,8.12,6.25-.22,12.81.17,16.81-6.34,1.07-1.73,3.17-1.6,5-1.6,6.32,0,12.64-.17,19,0,3.72.12,5.64-.78,5.18-5a98.69,98.69,0,0,1-.12-10.47c0-7.48,0-7.48-7.59-7.44C497.33,16,497.32,16,498.32,5c.23-2.53.16-4.78-3.29-4.77-6.65,0-13.3,0-20,0-2.36,0-3.24,1.33-3,3.56-1.61,3.47-1.92,7.17-2,10.91-1.36,1.64-1.25,5-3.52,5.15-6,.53-4.59,4.69-4.62,8.24S461.9,35.12,461.88,38.61Z"/><path class="cls-1" d="M382.1,57.2a22.52,22.52,0,0,0,.5,8.34c0,3.38,1.9,4.72,5,4.77,3.33.06,61.58.51,66.58.51s6-6,6-6-.28-8.7-.27-10.49c.1-15.8.05-31.6.13-47.39,0-3.13-1.56-4-4.37-3.92-5.15.08-10.3,0-15.46,0h0c-1.1,1.83-.83,3.87-.83,5.85,0,10.66,0,21.31,0,32,0,2.46.59,5.38-3.35,5.28-3.71-.08-2.87-2.87-2.88-5.1q-.13-20.48-.26-40.95c-6,0-12,.11-18,0-3.21-.08-4.48,1.15-4.45,4.37.11,12.31,0,24.63.14,36.94,0,2.47.52,4.77-3.08,4.87s-3.25-2.42-3.24-4.77c0-10.32-.09-20.63.11-30.95.08-4.16-1.08-6.4-5.65-5.69a21.4,21.4,0,0,1-3.49,0c-3.86,0-11.08,0-11.08,0l-1,19S383.27,46,382.1,57.2Z"/><path class="cls-1" d="M512.77,160.1c-1.27-.42-1.19-2.25-1.52-3.53-2.37-9.34-5-18.62-7.06-28-1.13-5.13-3.69-10.13-2.53-15.6C503,106.6,504.57,100.32,506,94c2.8-12,9.25-37.26,9.53-38,.66-5.19-4.44-6.42-4.44-6.42l-16.45,0s-4.07.75-4.69,3.41c-.45,2-3.76,6.8-3.76,6.8l-3-2-15.48-.27s-7.46,1-6.65,6.3c.39.92,3.55,15.66,3.56,15.77.77,7.9,3.22,15.49,4.36,23.33.89,6.06,4.31,11.91,3,18.09-2.43,11.23-6.33,22.08-10,33-1.18,3.46-4.16,4.69-7.67,4.08s-3.64-3.44-3.67-6.19c-.1-11.47-.05-22.94-.28-34.41-.18-8.78-.75-10.14-6.82-11.65a6,6,0,0,0-1.7,0H396.23c-3.13.48-3.29,4.77-3.27,7.23,0,9.63.17,19.26,0,28.89-.13,5.94.9,12-.78,17.84-2.31.07-4.62.28-6.92.2-3.59-.14-5.57.83-5.15,5.05a77.52,77.52,0,0,1,.08,12.38c-.2,3.34,1.22,4.45,4.28,4.41,5.95-.07,11.91.13,17.85-.14a21.33,21.33,0,0,0,9-2.86,11.23,11.23,0,0,0,4-5.94,32,32,0,0,0,1-5.79c.06-11,.16-21.93.14-32.9,0-3.12.19-5.66,4.33-5.6,4.36.06,3.48,3.23,3.5,5.69.07,11-.1,21.94,0,32.91.1,9,4.57,14.24,12.43,14.36,12.13.19,24.27.1,36.4-.1,4.2-.06,8.23-1.16,11-4.84h0c2.93-1.4,1.75-6.54,6.07-6.68h0c3,9.79,5.12,11.93,12,11.89h0c1.82.11,3.65.33,5.47.32,11.62-.12,10,1.07,10.24-10.12C518,167.35,519.05,162.21,512.77,160.1Z"/><path class="cls-1" d="M453.7,77.9q-32.67.15-65.34,0c-3,0-4.3,1.07-4.28,4l-.06,5c.06,2.66.3,5.33.14,8-.22,3.72,1.5,5,5,5q32.18-.12,64.34-.07c3.49,0,4.77-1.5,4.7-4.79-.08-4.16-.24-8.33,0-12.46C458.51,78.94,457.09,77.89,453.7,77.9Z"/><path class="cls-1" d="M380.41,53.92h0c2.68-6.62,2.4-7.07-4.51-7.08-4.15,0-8.31,0-12.46,0-1.57,0-2.24-.38-1.27-1.94,6.66-5.09,9.85-12.26,12.06-20h0c2.54-4.79,5.1-9.57,5.92-15h0l2.06-2A10.26,10.26,0,0,1,382.67,5c1.89-4,.21-4.81-3.59-4.63-6.24.29-12.5.25-18.75.22-3.16,0-5.49.91-6.18,4.31-3.12,5.39-4.25,11.73-8.1,16.77h0l0,0h0c-3,2.07-8.13-1.16-9.7,2.95-1.21,3.19-.37,7.17-.44,10.8,0,.83,0,1.65,0,2.48-.1,10.09-.49,8.91,8.64,8.9,9.53,0,11-2,5.8,9A38.21,38.21,0,0,1,345,67.69c-9.66,2.52-9.66,2.52-9.67,12.73,0,1.32,0,2.65,0,4,0,7.95,0,7.94,8,8.91,1,.11,2,.4,2.92.6a.22.22,0,0,0,.05.08,8.08,8.08,0,0,0-.85.46l.77,87.34c7.31.23,14.61.48,21.91.69,2.83.08,3.65-1.47,3.63-4.12-.17-28.26-.11-56.52-.47-84.77-.12-9,1.2-17.5,4.9-25.66C376.78,63,380,58.89,380.41,53.92Z"/><path class="cls-1" d="M331.11,93c-9.46-1.13-18.94-.24-28.42-.3-41.6-.24-83.21-.28-124.82-.43-6.51,0-7.37.72-7.38,7.5q-.06,38.7-.05,77.4c0,7,0,7,7.32,7l137.81,0c4,0,8,0,12,0,1.85,0,3.52-.69,3.51-2.74-.05-6.92,1.41-13.91-.92-20.73-1.76-.75-3.61-.38-5.41-.38q-56.06,0-112.11,0l-18.29.1c0-.92-.08-1.83-.1-2.75-.21-7.91-.21-7.88,7.71-7.89q24.13,0,48.26-.07c2.67.07,5.33.2,8,.2q36,.06,72,.09a1.79,1.79,0,0,1,.87-.31V113.76l-.15-.49.78,0C331.42,106.53,332.41,99.74,331.11,93ZM226,129.75c-.77,1.14-2.47.6-3.78.37-2.91-.26-5.9,1-8.75-.44l-.16-2.84a3.57,3.57,0,0,1-.8-2.73,33.41,33.41,0,0,0-2.06,4.67c-1.44,1.35-3.16,1-4.85.81-.45-2.92,3.69-6.48-1.23-8.78-.62,2.23-1.28,4.44-1.87,6.67-.31,1.17-.58,2.34-2.18,2.06-1.44-.24-1.53-1.37-1.82-2.56-.5-2,2.21-5.29-1-5.87-2.13-.38-1.44,3.63-3,5.11h0c-.07,1.38.42,3.06-1.5,3.58-1.6.42-2.28-.75-2.82-2,1.06-3.24.07-7,2.26-9.94,1.75-1.93,4.16.76,6-.85,2.51-1.2,4.7-1,6.47,1.29,1.89-1.44,4-1,6.16-.33,2.26,1.91,2.34,3.71,1.74,5.48a4.62,4.62,0,0,1,2.52-1.79c1.15-.42,3.19.29.58-1.57-.76-.54.56-1.63,1.24-2.29l.12-.23a34.62,34.62,0,0,1,4.9-.7c2.38,0,5.37.35,5.68,3C228.16,123.13,228,126.79,226,129.75Zm12.74-3c2,.43,3.5,1.22,3.59,3.45s-1.2,3.28-3.13,3.92a13.73,13.73,0,0,1-6.88.23c-2.65-.49-4.8-1.26-3.13-4.91s.84-8.07,3-11.68l2.16-.89c3.29.35,5.92-1.26,9.05-4.29-1.31,6.69.93,14.2-9.35,12.25C235.37,127.5,237.25,126.48,238.7,126.79Zm9.23,3.25a3.69,3.69,0,0,1-.71-6.78c2.05-.84,4.17-1.5,7-2.48-2.58-1.55-6.28,1.41-6.77-2.79l2.85-1.11c2.79-.88,5.56-1.68,8,.82a1.46,1.46,0,0,0,.67.33c.06,1.15.19,2.3.16,3.45C258.85,129.78,255.91,132,247.93,130Zm23.21-8.11c-1.43,1.35-4.61,3.31-.26,5.54,1.3.66.49,2.15-1,2.39s-3,.23-3.85,1.8c-1.83-1.06-4.2-.34-5.91-1.78.49-1.39.79-2.87,2-3.88,2.62-2.13,4.69-4.39,1.59-7.75-.13-.13.37-.85.57-1.29l5.92-.14C272.93,118.11,273.77,119.45,271.14,121.93Zm8.22,5.62c-.62,2.1-1.88,2.68-3.61,2.34s-1.29-2-1.12-3.25c.26-2,.66-3.88.95-5.83.42-2.78,1.8-4.1,4.7-3.21l.18.18C280.07,121,280.31,124.32,279.36,127.55Zm.95-11.41c-2.08-.59-3.59-1.59-2.88-4.13C280.73,111.76,282.16,112.81,280.31,116.14Zm10.53,14.13a.61.61,0,0,1-.39-.11,19.66,19.66,0,0,0,.79-6.42c0-1.35.23-3.19-1.35-3.27-1.1-.06-1.41,1.42-1.58,2.66q-.48,3.41-1,6.79c-1.67.9-3.35.58-5,0,0-.69,0-1.38-.05-2.07,1.25-2,1.3-4.41,1.42-6.64.16-3.14,1.69-4.36,4.57-4.44,2.66.53,5.61-1.14,8.05,1.06a11.4,11.4,0,0,1,1.39,6.16C297.73,129.14,296.19,130.54,290.84,130.27Zm19.27-5.49c-2.12.17-4.49-1.89-6.29.65a1.88,1.88,0,0,0,.45,1.73c2.31,2,3.73-1,5.68-1.13,1.91,4.08-2.13,3.48-3.76,4.79-6.82-1.51-7.76-2.83-7-9.9,4.37-5.22,9.83-5.58,12.65-.91C313.27,122.41,313,124,310.11,124.78Z"/><path class="cls-1" d="M237.78,132a1.45,1.45,0,0,0-.21-1.18c-1.7-1-3.36-.76-5.52.67A4.64,4.64,0,0,0,237.78,132Z"/><path class="cls-1" d="M238.61,120.25a1.18,1.18,0,0,0-1.48-1,1.71,1.71,0,0,0-1.48,1.71c0,.93.45,1.68,1.51,1.46A1.74,1.74,0,0,0,238.61,120.25Z"/><path class="cls-1" d="M220.28,124.25a1.47,1.47,0,0,0-1.61,1.47,1.3,1.3,0,0,0,1.41,1.57,1.63,1.63,0,0,0,1.63-1.51A1.27,1.27,0,0,0,220.28,124.25Z"/><path class="cls-1" d="M252,124a2.06,2.06,0,0,0-2,2.38c.06,1.09.95,1.28,1.81,1.06a3.12,3.12,0,0,0,2.09-2.49C253.68,123.81,252.78,124,252,124Z"/><path class="cls-1" d="M306.37,119.32c-1,.1-1.95.43-2,1.64,0,.83.75,1,1.41.93,1,0,2-.19,1.95-1.52C307.73,119.61,307.06,119.39,306.37,119.32Z"/></g></g></svg>