<?xml version="1.0" encoding="utf-8"?>
<!-- Generator: Adobe Illustrator 22.1.0, SVG Export Plug-In . SVG Version: 6.00 Build 0)  -->
<svg version="1.1" id="图层_1" xmlns="http://www.w3.org/2000/svg" xmlns:xlink="http://www.w3.org/1999/xlink" x="0px" y="0px"
	 viewBox="0 0 200 200" style="enable-background:new 0 0 200 200;" xml:space="preserve">
<style type="text/css">
	.st0{fill:#FF9901;}
</style>
<path class="st0" d="M109.1,109.1V45.5c0-5-4.1-9.1-9.1-9.1c-5,0-9.1,4.1-9.1,9.1v63.6c0,5,4.1,9.1,9.1,9.1
	C105,118.2,109.1,114.1,109.1,109.1z M100,136.4c-7.5,0-13.6,6.1-13.6,13.6s6.1,13.6,13.6,13.6s13.6-6.1,13.6-13.6
	S107.5,136.4,100,136.4z M100,0c55.2,0,100,44.8,100,100s-44.8,100-100,100S0,155.2,0,100S44.8,0,100,0L100,0z"/>
</svg>
