<?xml version="1.0" encoding="utf-8"?>
<!-- Generator: Adobe Illustrator 22.1.0, SVG Export Plug-In . SVG Version: 6.00 Build 0)  -->
<svg version="1.1" id="图层_1" xmlns="http://www.w3.org/2000/svg" xmlns:xlink="http://www.w3.org/1999/xlink" x="0px" y="0px"
	 viewBox="0 0 200 200" style="enable-background:new 0 0 200 200;" xml:space="preserve">
<style type="text/css">
	.st0{fill:#41CDC0;}
</style>
<g>
	<path class="st0" d="M192.6,189.6H7.4c-4.1,0-7.4-3.3-7.4-7.4V34.1c0-4.1,3.3-7.4,7.4-7.4s7.4,3.3,7.4,7.4v140.7h177.8
		c4.1,0,7.4,3.3,7.4,7.4C200,186.3,196.7,189.6,192.6,189.6z"/>
	<path class="st0" d="M103.7,156.3c-4.1,0-7.4-3.3-7.4-7.4V63.4c0-4.1,3.3-7.4,7.4-7.4c4.1,0,7.4,3.3,7.4,7.4v85.5
		C111.1,153,107.8,156.3,103.7,156.3L103.7,156.3z M59.3,156.4c-4.1,0-7.4-3.3-7.4-7.4v-48.3c0-4.1,3.3-7.4,7.4-7.4s7.4,3.3,7.4,7.4
		V149C66.7,153.1,63.4,156.4,59.3,156.4z M192.6,156.4c-4.1,0-7.4-3.3-7.4-7.4v-129c0-4.1,3.3-7.4,7.4-7.4c4.1,0,7.4,3.3,7.4,7.4
		v129C200,153.1,196.7,156.4,192.6,156.4z M148.1,156.5c-4.1,0-7.4-3.3-7.4-7.4v-115c0-4.1,3.3-7.4,7.4-7.4s7.4,3.3,7.4,7.4v115
		C155.6,153.1,152.2,156.5,148.1,156.5L148.1,156.5z"/>
</g>
</svg>
