<?xml version="1.0" encoding="utf-8"?>
<!-- Generator: Adobe Illustrator 22.1.0, SVG Export Plug-In . SVG Version: 6.00 Build 0)  -->
<svg version="1.1" id="图层_1" xmlns="http://www.w3.org/2000/svg" xmlns:xlink="http://www.w3.org/1999/xlink" x="0px" y="0px"
	 viewBox="0 0 200 200" style="enable-background:new 0 0 200 200;" xml:space="preserve">
<style type="text/css">
	.st0{fill:#FFFFFF;}
	.st1{fill:#3D5570;}
	.st2{fill:none;stroke:#41CDC0;stroke-width:5;stroke-linecap:round;stroke-miterlimit:10;}
	.st3{opacity:0.15;fill:#FFFFFF;}
</style>
<g>
	<circle class="st0" cx="100" cy="100" r="100"/>
	<g>
		<path class="st1" d="M157.4,53.7H42.6c-2.4,0-4.3-1.9-4.3-4.3v0c0-2.4,1.9-4.3,4.3-4.3h114.9c2.4,0,4.3,1.9,4.3,4.3v0
			C161.7,51.8,159.8,53.7,157.4,53.7z"/>
		
			<rect x="89.5" y="136.2" transform="matrix(6.123234e-17 -1 1 6.123234e-17 -39.1075 239.1075)" class="st1" width="21" height="5.8"/>
		<path class="st1" d="M84.1,149.6h31.8c1.6,0,2.9,1.3,2.9,2.9l0,0c0,1.6-1.3,2.9-2.9,2.9H84.1c-1.6,0-2.9-1.3-2.9-2.9l0,0
			C81.2,150.9,82.5,149.6,84.1,149.6z"/>
		<path class="st1" d="M143.3,128.6H56.7c-6.3,0-11.5-5.1-11.5-11.5V57.4h109.7v59.7C154.8,123.5,149.7,128.6,143.3,128.6z"/>
		<g>
			<line class="st2" x1="74.7" y1="104.8" x2="89.7" y2="87.5"/>
			<line class="st2" x1="105.6" y1="103.6" x2="89.7" y2="87.5"/>
			<line class="st2" x1="124.2" y1="84.9" x2="105.6" y2="103.6"/>
			<line class="st2" x1="125.3" y1="96.2" x2="124.2" y2="84.9"/>
			<line class="st2" x1="112.5" y1="84.3" x2="124.2" y2="84.9"/>
		</g>
		<rect x="38.3" y="45.1" class="st3" width="61.7" height="110.3"/>
	</g>
</g>
</svg>
