<?xml version="1.0" encoding="utf-8"?>
<!-- Generator: Adobe Illustrator 22.1.0, SVG Export Plug-In . SVG Version: 6.00 Build 0)  -->
<svg version="1.1" id="图层_1" xmlns="http://www.w3.org/2000/svg" xmlns:xlink="http://www.w3.org/1999/xlink" x="0px" y="0px"
	 viewBox="0 0 200 200" style="enable-background:new 0 0 200 200;" xml:space="preserve">
<style type="text/css">
	.st0{fill:#9EAFBF;}
</style>
<path class="st0" d="M99.9,107.9c-29.6,0-53.8-24-53.8-53.4s24-53.3,53.8-53.3c29.6,0,53.6,23.9,53.6,53.3S129.5,107.9,99.9,107.9z
	 M99.9,17.7C79.6,17.7,63,34.1,63,54.3C63,74.6,79.6,91,99.9,91s36.7-16.4,36.7-36.7C136.6,34.1,120.2,17.7,99.9,17.7z"/>
<path class="st0" d="M199.8,198.8H0v-8.4C0,135.5,44.8,91,99.9,91s99.9,44.7,99.9,99.4V198.8z M17.2,182.1h165.4
	c-4.2-41.6-39.6-74.2-82.7-74.2S21.4,140.4,17.2,182.1L17.2,182.1z"/>
</svg>
