<?xml version="1.0" encoding="utf-8"?>
<!-- Generator: Adobe Illustrator 22.1.0, SVG Export Plug-In . SVG Version: 6.00 Build 0)  -->
<svg version="1.1" id="图层_1" xmlns="http://www.w3.org/2000/svg" xmlns:xlink="http://www.w3.org/1999/xlink" x="0px" y="0px"
	 viewBox="0 0 200 200" style="enable-background:new 0 0 200 200;" xml:space="preserve">
<style type="text/css">
	.st0{fill:#0a2a4c;}
</style>
<g>
	<path class="st0" d="M160.5,200H39.5C17.7,200,0,182.3,0,160.5V39.5C0,17.7,17.7,0,39.5,0H100c4.4,0,7.9,3.5,7.9,7.9
		s-3.5,7.9-7.9,7.9H39.5c-13.1,0-23.7,10.6-23.7,23.7v121.1c0,13.1,10.6,23.7,23.7,23.7h121.1c13.1,0,23.7-10.6,23.7-23.7V100
		c0-4.4,3.5-7.9,7.9-7.9c4.4,0,7.9,3.5,7.9,7.9v60.5C200,182.3,182.3,200,160.5,200z"/>
	<path class="st0" d="M167.1,17.9l7.4,7.5l7.5,7.4l-36.3,36.3l-43.4,43.4l-16.4,1.5l1.5-16.4l43.4-43.4L167.1,17.9 M167.1,0
		c-2.8,0-5.5,1.1-7.5,3.1l-40,40l-46,46.4c-0.9,0.9-1.4,2-1.5,3.2l-2.9,32.8c-0.3,2.9,1.9,5.5,4.8,5.7c0.2,0,0.3,0,0.5,0h0.5
		l32.8-2.9c1.2-0.1,2.3-0.7,3.2-1.5L157,80.6l40-40c4.1-4.1,4.1-10.8,0-14.9c0,0,0,0,0,0l-11.3-11.5L174.6,3.1
		C172.6,1.1,169.9,0,167.1,0L167.1,0z"/>
</g>
</svg>
