<?xml version="1.0" encoding="utf-8"?>
<!-- Generator: Adobe Illustrator 22.1.0, SVG Export Plug-In . SVG Version: 6.00 Build 0)  -->
<svg version="1.1" id="图层_1" xmlns="http://www.w3.org/2000/svg" xmlns:xlink="http://www.w3.org/1999/xlink" x="0px" y="0px"
	 viewBox="0 0 200 200" style="enable-background:new 0 0 200 200;" xml:space="preserve">
<style type="text/css">
	.st0{fill:#9EAFBF;}
</style>
<g>
	<path class="st0" d="M124.4,196l19.2-44.8l45.9,42.7l10.5-11.1l-45.9-42.7l43.8-21.9L83.4,83.6L124.4,196L124.4,196z M94.5,39.4
		c0,5.5-4.5,9.9-10,9.9c-5.5,0-10-4.4-10-9.9V13.9c0-5.5,4.5-9.9,10-9.9c5.5,0,10,4.4,10,9.9C94.5,13.9,94.5,39.4,94.5,39.4z
		 M55.4,47.6c3.9,3.9,3.9,10.1,0,14c-3.9,3.9-10.2,3.9-14.1,0l-18.2-18c-3.9-3.9-3.9-10.1,0-14c3.9-3.9,10.2-3.9,14.1,0L55.4,47.6z
		 M109.9,43.8c-3.9,3.9-3.9,10.2,0,14c3.9,3.9,10.2,3.9,14.1,0l18.1-18c3.9-3.9,3.9-10.2,0-14c-3.9-3.9-10.2-3.9-14.1,0L109.9,43.8
		L109.9,43.8z M36.3,78.4c5.5,0,10,4.4,10,9.9c0,5.5-4.5,9.9-10,9.9l-25.7,0c-5.5,0-10-4.4-10-9.9c0-5.5,4.5-9.9,10-9.9H36.3z
		 M48.3,112.8c3.9-3.9,10.2-3.9,14.1,0c3.9,3.8,3.9,10.1,0,14l-18.2,18c-3.9,3.9-10.2,3.9-14.1,0c-3.9-3.9-3.9-10.2,0-14L48.3,112.8
		z"/>
</g>
</svg>
