<?xml version="1.0" encoding="utf-8"?>
<!-- Generator: Adobe Illustrator 22.1.0, SVG Export Plug-In . SVG Version: 6.00 Build 0)  -->
<svg version="1.1" id="图层_1" xmlns="http://www.w3.org/2000/svg" xmlns:xlink="http://www.w3.org/1999/xlink" x="0px" y="0px"
	 viewBox="0 0 200 200" style="enable-background:new 0 0 200 200;" xml:space="preserve">
<style type="text/css">
	.st0{fill:#41CDC0;}
</style>
<path class="st0" d="M193.1,173.1H13.7v-56.5L52,78.2c2.5,1.1,5.3,1.8,8.2,1.8s5.7-0.7,8.2-1.8l26.8,26.8c-1.2,2.5-1.8,5.3-1.8,8.2
	c0,11,8.9,19.9,19.9,19.9s19.9-8.9,19.9-19.9c0-2.9-0.7-5.7-1.8-8.2l65.9-65.9c2.9-2.9,2.9-7.5,0-10.4c-2.9-2.9-7.5-2.9-10.4,0
	l-66.1,66.1c-2.3-1-4.9-1.5-7.6-1.5s-5.2,0.5-7.6,1.5L78.6,67.7c1-2.3,1.5-4.9,1.5-7.6c0-11-8.9-19.9-19.9-19.9s-19.9,8.9-19.9,19.9
	c0,2.7,0.5,5.2,1.5,7.6L13.7,95.8V20.3c0-3.7-3-6.6-6.6-6.6s-6.6,3-6.6,6.6v90.8c-0.2,0.9-0.2,1.8,0,2.7l0,66c0,3.7,3,6.6,6.6,6.6
	h186.1c3.7,0,6.6-3,6.6-6.6C199.7,176.1,196.8,173.1,193.1,173.1z M113.4,106.6c3.7,0,6.6,3,6.6,6.6s-3,6.6-6.6,6.6s-6.6-3-6.6-6.6
	S109.7,106.6,113.4,106.6z M60.2,53.5c3.7,0,6.6,3,6.6,6.6s-3,6.6-6.6,6.6s-6.6-3-6.6-6.6S56.5,53.5,60.2,53.5z"/>
</svg>
