<?xml version="1.0" encoding="utf-8"?>
<!-- Generator: Adobe Illustrator 22.1.0, SVG Export Plug-In . SVG Version: 6.00 Build 0)  -->
<svg version="1.1" id="图层_1" xmlns="http://www.w3.org/2000/svg" xmlns:xlink="http://www.w3.org/1999/xlink" x="0px" y="0px"
	 viewBox="0 0 200 200" style="enable-background:new 0 0 200 200;" xml:space="preserve">
<style type="text/css">
	.st0{fill:#0a2a4c;}
</style>
<path class="st0" d="M0,100c0,10.4,8.4,18.8,18.8,18.8s18.8-8.4,18.8-18.8s-8.4-18.8-18.8-18.8S0,89.6,0,100z"/>
<path class="st0" d="M81.2,100c0,10.4,8.4,18.8,18.8,18.8s18.8-8.4,18.8-18.8s-8.4-18.8-18.8-18.8S81.2,89.6,81.2,100z"/>
<path class="st0" d="M162.5,100c0,10.4,8.4,18.8,18.8,18.8S200,110.4,200,100s-8.4-18.8-18.8-18.8S162.5,89.6,162.5,100z"/>
</svg>
