<?xml version="1.0" encoding="utf-8"?>
<!-- Generator: Adobe Illustrator 22.1.0, SVG Export Plug-In . SVG Version: 6.00 Build 0)  -->
<svg version="1.1" id="图层_1" xmlns="http://www.w3.org/2000/svg" xmlns:xlink="http://www.w3.org/1999/xlink" x="0px" y="0px"
	 viewBox="0 0 200 200" style="enable-background:new 0 0 200 200;" xml:space="preserve">
<style type="text/css">
	.st0{fill:#41CDC0;}
</style>
<path class="st0" d="M36,54.6v89.4c0,1.1-0.9,2-2,2H23.7c-1.1,0-2-0.9-2-2V74.2c0-1.7-2-2.7-3.3-1.6C14,76,8.8,78.7,2.9,80.7
	c-1.3,0.4-2.7-0.5-2.7-1.9V69c0-0.9,0.6-1.7,1.4-2c3.7-1.1,7.6-2.8,11.8-5.1c4.4-2.7,8.2-5.5,11.2-8.7c0.4-0.4,0.9-0.6,1.5-0.6h7.8
	C35,52.6,36,53.5,36,54.6z"/>
<path class="st0" d="M111.2,58.5c5.6,5.2,8.5,11.9,8.5,20.2c0,8.1-3.1,15.5-9.2,22.1c-3.7,3.8-10.1,8.8-19.4,15.1
	c-8.1,5.3-13.5,10.2-16.4,14.5c-0.9,1.4,0.1,3.2,1.7,3.2h41.3c1.1,0,2.1,0.9,2.1,2.1v8.5c0,1.1-0.9,2.1-2.1,2.1H57.5
	c-1.2,0-2.1-1-2.1-2.2c0.4-8.4,3.5-15.8,9.2-22.3c3.4-4.1,10.5-9.7,21.1-17c6.3-4.5,10.7-8,13.4-10.7c4.2-4.7,6.4-9.8,6.4-15.3
	c0-5.2-1.4-9.2-4.3-11.8c-2.9-2.6-7.2-3.9-12.7-3.9c-5.9,0-10.4,2-13.4,6c-2.9,3.6-4.4,8.6-4.9,15.3c-0.1,1.1-1,1.9-2,1.9H58
	c-1.2,0-2.1-1-2.1-2.2c0.5-9.5,3.5-17.1,9-23c6-6.8,14.1-10.1,24.1-10.1C97.9,50.8,105.4,53.2,111.2,58.5z"/>
<path class="st0" d="M189.8,57.6c5.5,4.6,8.4,10.9,8.4,18.9c0,8.6-3.7,14.9-11,18.7c-1.5,0.8-1.5,2.9,0.1,3.6c3.3,1.6,6,3.6,8,6
	c3.1,3.5,4.7,8.1,4.7,13.6c0,8.6-3,15.7-8.9,21.2c-6.3,5.5-14.5,8.4-24.5,8.4c-9.6,0-17.3-2.5-23.1-7.3c-6.1-5.1-9.7-12.3-10.8-21.7
	c-0.1-1.2,0.8-2.3,2-2.3h10.3c1,0,1.9,0.8,2,1.8c0.5,5.4,2.5,9.6,6,12.7c3.4,3.1,7.9,4.7,13.4,4.7c6,0,10.9-1.8,14.5-5.2
	c3.1-3.1,4.8-6.9,4.8-11.7c0-5.5-1.7-9.6-5.1-12.2c-3.1-2.6-7.9-3.9-14-3.9h-4.8c-1.1,0-2-0.9-2-2v-6.7c0-1.1,0.9-2,2-2h4.6
	c5.8,0,10.1-1.3,13-3.8c2.9-2.5,4.5-6.2,4.5-10.9s-1.4-8.3-4.1-10.7c-2.9-2.6-7.2-3.8-12.7-3.8c-5.6,0-10.1,1.4-13.2,4.3
	c-2.8,2.6-4.7,6.3-5.4,11.2c-0.1,1-1,1.7-2,1.7h-9.9c-1.2,0-2.2-1.1-2-2.3c1.1-8.2,4.5-14.6,10.1-19.4c5.8-5.2,13.2-7.7,22.4-7.7
	C176.5,50.8,184,53,189.8,57.6z"/>
</svg>
