<?xml version="1.0" encoding="utf-8"?>
<!-- Generator: Adobe Illustrator 22.1.0, SVG Export Plug-In . SVG Version: 6.00 Build 0)  -->
<svg version="1.1" id="图层_1" xmlns="http://www.w3.org/2000/svg" xmlns:xlink="http://www.w3.org/1999/xlink" x="0px" y="0px"
	 viewBox="0 0 200 200" style="enable-background:new 0 0 200 200;" xml:space="preserve">
<style type="text/css">
	.st0{fill:#41CDC0;}
</style>
<path class="st0" d="M196.4,104c-2.2-2.6-5.6-4.1-8.9-4.1h-84.1c-1.9,0-3.3-1.5-3.3-3.3V12.5c0-3.3-1.5-6.7-4.1-8.9
	c-2.6-2.2-5.9-3.3-9.6-3C33.7,8-4.1,55.1,0.4,108.5c4.1,47.8,43.4,87.1,91.2,91.2c3,0.4,5.6,0.4,8.5,0.4c49.7,0,92.3-36.7,99.3-86.3
	C199.7,110,198.6,106.6,196.4,104L196.4,104z M92.6,184.8c-40.8-3.3-74.1-36.7-77.4-77.4c-3.7-44.5,26.7-83.7,70-91.5v80.8
	c0,10,8.2,18.2,18.2,18.2h80.8C176.4,158.1,137.1,188.5,92.6,184.8z"/>
<path class="st0" d="M127.1,85.1h57.1c3.7,0,7.4-1.9,9.6-4.8c2.2-3,3-7,1.9-10.7c-10-30.8-34.1-55.2-64.8-64.8
	c-3.7-1.1-7.8-0.4-10.7,1.9c-3.3,1.9-5.2,5.6-5.2,9.6v57.1C114.9,79.6,120.4,85.1,127.1,85.1L127.1,85.1z M129.7,19.9
	c23.3,8.5,41.5,27.1,50.4,50.4h-50.4V19.9z"/>
</svg>
