<?xml version="1.0" encoding="utf-8"?>
<!-- Generator: Adobe Illustrator 22.1.0, SVG Export Plug-In . SVG Version: 6.00 Build 0)  -->
<svg version="1.1" id="图层_1" xmlns="http://www.w3.org/2000/svg" xmlns:xlink="http://www.w3.org/1999/xlink" x="0px" y="0px"
	 viewBox="0 0 200 200" style="enable-background:new 0 0 200 200;" xml:space="preserve">
<style type="text/css">
	.st0{fill:#41CDC0;}
</style>
<path class="st0" d="M200,71.4V28.5C200,12.8,187.2,0,171.4,0H28.5C12.8,0,0,12.8,0,28.5v142.9C0,187.2,12.8,200,28.5,200h142.9
	c15.8,0,28.6-12.8,28.6-28.6V71.4z M18.4,18.4c2.7-2.7,6.3-4.2,10.1-4.2h142.9c7.9,0,14.3,6.4,14.3,14.3c0,0,0,0,0,0v28.6H14.2V28.5
	C14.2,24.8,15.7,21.1,18.4,18.4z M78.5,121.4v-50h42.9v50H78.5z M121.4,135.7v50H78.5v-50H121.4z M64.2,121.4h-50v-50h50
	C64.2,71.4,64.2,121.4,64.2,121.4z M18.4,181.6c-2.7-2.7-4.2-6.3-4.2-10.1v-35.7h50v50H28.5C24.8,185.7,21.1,184.2,18.4,181.6z
	 M185.7,171.5c0,7.9-6.3,14.3-14.2,14.3c0,0,0,0-0.1,0h-35.7v-50h50L185.7,171.5L185.7,171.5z M185.7,121.4h-50v-50h50V121.4z"/>
</svg>
