<svg id="Layer_1" data-name="Layer 1" xmlns="http://www.w3.org/2000/svg" viewBox="0 0 61.13 61.13"><defs><style>.cls-1{fill:#fff;}.cls-2{fill:#006df0;}</style></defs><title>contacts</title><ellipse class="cls-1" cx="30.72" cy="30.45" rx="30.16" ry="30.11"/><path class="cls-2" d="M37.76,39.29,31.24,36a1.8,1.8,0,0,1-1-1.62V32.11c.16-.19.32-.41.49-.65a15.63,15.63,0,0,0,2-4A2.71,2.71,0,0,0,34.34,25V22.29a2.72,2.72,0,0,0-.68-1.79V16.87a6.12,6.12,0,0,0-1.43-4.46c-1.4-1.6-3.68-2.41-6.77-2.41s-5.36.81-6.77,2.41a6.12,6.12,0,0,0-1.43,4.46V20.5a2.72,2.72,0,0,0-.68,1.79V25a2.72,2.72,0,0,0,1,2.12A14.33,14.33,0,0,0,20,32.09v2.26a1.8,1.8,0,0,1-.94,1.58L13,39.26a6.16,6.16,0,0,0-3.21,5.41v2.89H41.17V44.8A6.13,6.13,0,0,0,37.76,39.29Z"/><path class="cls-2" d="M47.63,40.07,41,37.19a1.35,1.35,0,0,1-.48-.53H45s.26,0,.66,0a7.18,7.18,0,0,0,2.73-.48,2,2,0,0,0,.85-3c-1.27-1.81-4.25-6.55-4.34-11.35,0-.08-.27-8.25-8.34-8.32a10.12,10.12,0,0,0-2.3.28,7.38,7.38,0,0,1,.45,3.13v3.23a3.73,3.73,0,0,1,.68,2.15V25a3.75,3.75,0,0,1-1.78,3.18,16.6,16.6,0,0,1-2,3.84l-.3.41v2a.77.77,0,0,0,.43.7l6.52,3.26a7.15,7.15,0,0,1,4,6.43v2.76h8.54V45A5.52,5.52,0,0,0,47.63,40.07Z"/></svg>