<svg id="Layer_1" data-name="Layer 1" xmlns="http://www.w3.org/2000/svg" viewBox="0 0 61.13 61.13"><defs><style>.cls-1{fill:#fff;}.cls-2{fill:#ff8000;stroke:#ff8000;stroke-miterlimit:10;}</style></defs><title>events</title><ellipse class="cls-1" cx="30.72" cy="30.45" rx="30.16" ry="30.11"/><path class="cls-2" d="M25.82,20.52l2.38,2.24a2,2,0,0,0,2.72,0l2.38-2.24H51.56V17.31H33.29l-2.38-2.24a2,2,0,0,0-2.72,0l-2.38,2.24H14V12.06H10.56v34H14V41.27h2.42l2.38,2.24a2,2,0,0,0,2.72,0l2.38-2.24h27.7V38.06H23.86l-2.38-2.24a2,2,0,0,0-2.72,0l-2.38,2.24H14V30.9H41.54l2.38,2.24a2,2,0,0,0,2.72,0L49,30.9h2.55V27.69H49l-2.38-2.24a2,2,0,0,0-2.72,0l-2.38,2.24H14V20.52Z"/></svg>