<svg id="Layer_1" data-name="Layer 1" xmlns="http://www.w3.org/2000/svg" viewBox="0 0 61.13 61.13"><defs><style>.cls-1{fill:#fff;}.cls-2{fill:#ff8000;stroke:#ff8000;stroke-miterlimit:10;}</style></defs><title>events02</title><ellipse class="cls-1" cx="30.72" cy="30.45" rx="30.16" ry="30.11"/><g id="Business_1_Bold" data-name="Business 1 Bold"><polygon class="cls-2" points="31.12 36.62 38.27 31.06 31.12 25.5 31.12 28.68 24.43 28.68 24.43 33.45 31.12 33.45 31.12 36.62"/><path class="cls-2" d="M49.56,14.51H41.94V11.09a1.54,1.54,0,0,0-1.53-1.53H39a1.54,1.54,0,0,0-1.53,1.53v3.42H23.83V11.09A1.54,1.54,0,0,0,22.3,9.56H20.85a1.54,1.54,0,0,0-1.53,1.53v3.42H11.56V47.56h38ZM47.19,45.19H13.94V16.89H47.19Z"/></g></svg>