<?xml version="1.0" encoding="iso-8859-1"?>
<!-- Generator: Adobe Illustrator 22.1.0, SVG Export Plug-In . SVG Version: 6.00 Build 0)  -->
<svg version="1.1" id="&#x56FE;&#x5C42;_1" xmlns="http://www.w3.org/2000/svg" xmlns:xlink="http://www.w3.org/1999/xlink" x="0px"
	 y="0px" viewBox="12.7 12.7 25.8 25.65" style="enable-background:new 0 0 51.024 51.024;" xml:space="preserve">
<path style="fill:#FFFFFF;" d="M17.166,30.628c0.346,0.346,0.799,0.519,1.252,0.519s0.906-0.173,1.252-0.519l3.891-3.891
	c0.112-0.112,0.204-0.236,0.28-0.367h0.878l-0.001,1.686c0,0.048,0.007,0.095,0.014,0.141c-0.003,0.028-0.009,0.055-0.009,0.084
	v3.533c0,1.655,1.342,2.997,2.997,2.997h1.482V36.6c0,0.921,0.747,1.668,1.668,1.668h5.73c0.921,0,1.668-0.747,1.668-1.668v-5.588
	c0-0.978-0.793-1.771-1.771-1.771h-5.523c-0.978,0-1.771,0.793-1.771,1.771v2.029H27.72c-0.677,0-1.226-0.549-1.226-1.226v-3.533
	c0-0.048-0.007-0.094-0.014-0.139c0.003-0.028,0.009-0.055,0.009-0.083l0.006-8.813c0-0.676,0.55-1.226,1.226-1.226h1.482v1.941
	c0,0.978,0.793,1.771,1.771,1.771h5.623c0.923,0,1.672-0.748,1.672-1.672v-5.633c0-0.923-0.748-1.672-1.672-1.672h-5.623
	c-0.978,0-1.771,0.793-1.771,1.771v1.723H27.72c-1.652,0-2.997,1.344-2.997,2.997l-0.003,5.353h-0.879
	c-0.076-0.131-0.167-0.255-0.279-0.367l-3.891-3.891c-0.346-0.346-0.799-0.519-1.252-0.519s-0.906,0.173-1.252,0.519l-3.891,3.891
	c-0.692,0.692-0.692,1.813,0,2.504L17.166,30.628z M30.973,31.012h5.523v5.485h-5.523V31.012z M30.973,14.527h5.523v5.435h-5.523
	V14.527z M18.418,21.593l3.891,3.891l-3.891,3.891l-3.891-3.891L18.418,21.593z"/>
</svg>
