<?xml version="1.0" encoding="iso-8859-1"?>
<!-- Generator: Adobe Illustrator 22.1.0, SVG Export Plug-In . SVG Version: 6.00 Build 0)  -->
<svg version="1.1" id="&#x56FE;&#x5C42;_1" xmlns="http://www.w3.org/2000/svg" xmlns:xlink="http://www.w3.org/1999/xlink" x="0px"
	 y="0px" viewBox="12.5 12.5 25.8 25.8" style="enable-background:new 0 0 51.024 51.024;" xml:space="preserve">
<g>
	<g>
		<path style="fill:#FFFFFF;" d="M31.523,20.83c0-4.486-3.588-8.074-8.074-8.074c-4.486,0-8.074,3.588-8.074,8.074
			c0,3.05,1.615,5.652,4.127,6.998c-3.409,1.346-6.011,4.306-6.729,8.074c-0.09,0.449,0.179,0.987,0.718,1.077h0.179
			c0.449,0,0.807-0.269,0.897-0.718c0.808-4.216,4.486-7.267,8.792-7.356h0.179C27.934,28.904,31.523,25.316,31.523,20.83z
			 M23.538,27.11h-0.269c-3.409-0.09-6.1-2.871-6.1-6.28c0-3.499,2.781-6.28,6.28-6.28c3.499,0,6.28,2.781,6.28,6.28
			C29.729,24.239,26.948,27.02,23.538,27.11z"/>
	</g>
	<path style="fill:#FFFFFF;" d="M37.382,32.486h-3.125v-3.125c0-0.489-0.396-0.885-0.886-0.885c-0.489,0-0.885,0.396-0.885,0.885
		v3.125h-3.125c-0.489,0-0.885,0.396-0.885,0.885c0,0.489,0.396,0.885,0.885,0.885h3.125v3.125c0,0.489,0.396,0.885,0.885,0.885
		c0.489,0,0.886-0.396,0.886-0.885v-3.125h3.125c0.489,0,0.885-0.396,0.885-0.885C38.268,32.883,37.871,32.486,37.382,32.486z"/>
</g>
</svg>
