<?xml version="1.0" encoding="iso-8859-1"?>
<!-- Generator: Adobe Illustrator 22.1.0, SVG Export Plug-In . SVG Version: 6.00 Build 0)  -->
<svg version="1.1" id="&#x56FE;&#x5C42;_1" xmlns="http://www.w3.org/2000/svg" xmlns:xlink="http://www.w3.org/1999/xlink" x="0px"
	 y="0px" viewBox="12.8 13 25.8 25.3" style="enable-background:new 12.7 15 25.8 21;" xml:space="preserve">
<g>
	<path style="fill:#FFFFFF;" d="M31.509,20.811c0-4.482-3.586-8.068-8.068-8.068s-8.068,3.586-8.068,8.068
		c0,3.048,1.614,5.648,4.124,6.992c-3.407,1.345-6.006,4.303-6.724,8.068c-0.09,0.448,0.179,0.986,0.717,1.076h0.179
		c0.448,0,0.807-0.269,0.896-0.717c0.807-4.213,4.482-7.261,8.785-7.351h0.179C27.923,28.879,31.509,25.293,31.509,20.811z
		 M23.53,27.086h-0.269c-3.407-0.09-6.096-2.869-6.096-6.275c0-3.496,2.779-6.275,6.275-6.275s6.275,2.779,6.275,6.275
		C29.716,24.218,26.937,26.997,23.53,27.086z"/>
	<path style="fill:#FFFFFF;" d="M38.171,30.089c-0.151-0.296-0.455-0.482-0.788-0.482H29.27c-0.341,0-0.651,0.196-0.798,0.503
		c-0.147,0.308-0.104,0.672,0.11,0.937l2.438,3.021v2.326c0,0.489,0.396,0.885,0.885,0.885s0.885-0.396,0.885-0.885v-2.638
		c0-0.202-0.069-0.398-0.196-0.556l-1.472-1.824h4.533l-1.343,1.862c-0.109,0.151-0.167,0.333-0.167,0.519l0.005,3.639
		c0.001,0.488,0.397,0.883,0.885,0.883h0.001c0.489-0.001,0.884-0.398,0.883-0.886l-0.005-3.353l2.187-3.032
		C38.295,30.74,38.322,30.385,38.171,30.089z"/>
</g>
</svg>
