<?xml version="1.0" encoding="iso-8859-1"?>
<!-- Generator: Adobe Illustrator 22.1.0, SVG Export Plug-In . SVG Version: 6.00 Build 0)  -->
<svg version="1.1" id="&#x56FE;&#x5C42;_1" xmlns="http://www.w3.org/2000/svg" xmlns:xlink="http://www.w3.org/1999/xlink" x="0px"
	 y="0px" viewBox="12.8 11.7 26.8 27.8" style="enable-background:new 0 0 51.024 51.024;" xml:space="preserve">
<g>
	<path style="fill:#FFFFFF;" d="M22.273,20.205c1.671,0,3.017-1.921,3.017-4.297c0-2.373-1.347-4.293-3.017-4.293
		c-1.667,0-3.02,1.92-3.02,4.293C19.254,18.284,20.607,20.205,22.273,20.205L22.273,20.205z"/>
	<path style="fill:#FFFFFF;" d="M29.461,20.488c2.233,0.29,3.665-2.09,3.952-3.894c0.292-1.803-1.147-3.896-2.729-4.255
		c-1.581-0.363-3.557,2.171-3.737,3.824C26.73,18.184,27.235,20.202,29.461,20.488L29.461,20.488z"/>
	<path style="fill:#FFFFFF;" d="M16.665,26.26c3.021-0.649,2.61-4.261,2.517-5.05c-0.148-1.218-1.578-3.343-3.521-3.175
		c-2.445,0.217-2.802,3.75-2.802,3.75C12.527,23.42,13.649,26.91,16.665,26.26L16.665,26.26z"/>
	<path style="fill:#FFFFFF;" d="M34.927,20.057c-2.662,0-3.021,2.451-3.021,4.185c0,1.656,0.142,3.967,3.45,3.893
		c3.309-0.073,2.947-3.749,2.947-4.617C38.304,22.655,37.587,20.057,34.927,20.057L34.927,20.057z"/>
	<path style="fill:#FFFFFF;" d="M19.872,32.543c-0.087,0.253-0.285,0.902-0.115,1.468c0.339,1.269,1.44,1.324,1.44,1.324h1.583
		v-3.868h-1.694C20.324,31.694,19.956,32.288,19.872,32.543L19.872,32.543z"/>
	<path style="fill:#FFFFFF;" d="M34.927,31.095c0,0-3.45-2.669-5.466-5.557c-2.73-4.254-6.612-2.523-7.908-0.361
		c-1.292,2.165-3.306,3.535-3.593,3.898c-0.289,0.354-4.168,2.45-3.306,6.275c0.861,3.824,3.885,3.748,3.885,3.748
		s2.23,0.221,4.816-0.359c2.584-0.572,4.811,0.144,4.811,0.144s6.044,2.023,7.696-1.875C37.513,33.113,34.927,31.095,34.927,31.095z
		 M24.589,36.891h-3.926c-1.698-0.337-2.375-1.496-2.457-1.695c-0.085-0.197-0.567-1.129-0.313-2.712
		c0.733-2.372,2.825-2.544,2.825-2.544h2.091v-2.569l1.779,0.028V36.891z M31.906,36.863h-4.521
		c-1.751-0.451-1.834-1.694-1.834-1.694v-5.001l1.834-0.029v4.494c0.112,0.48,0.706,0.564,0.706,0.564h1.864v-5.028h1.951V36.863z"
		/>
</g>
</svg>
