<?xml version="1.0" encoding="iso-8859-1"?>
<!-- Generator: Adobe Illustrator 22.1.0, SVG Export Plug-In . SVG Version: 6.00 Build 0)  -->
<svg version="1.1" id="&#x56FE;&#x5C42;_1" xmlns="http://www.w3.org/2000/svg" xmlns:xlink="http://www.w3.org/1999/xlink" x="0px"
	 y="0px" viewBox="12.7 16.8 25.7 17.3" style="enable-background:new 0 0 51.024 51.024;" xml:space="preserve">
<path style="fill:#FFFFFF;" d="M12.803,18.261l0,15.858l25.512-1.434v-15.78L12.803,18.261z M17.892,21.315
	c0.48-0.032,0.597,0.147,0.802,0.418c0.321,0.425,1.081,1.387,1.144,1.476c-0.261,0.02-1.532,0.109-1.939,0.129
	c-0.057,0.003-0.138-0.018-0.169-0.058c-0.485-0.608-0.963-1.222-1.459-1.855C16.511,21.403,17.577,21.336,17.892,21.315z
	 M19.626,25.587l-1.477,0.087c-0.3,0.032-0.47-0.098-0.637-0.314c-0.394-0.514-0.803-1.017-1.206-1.525
	c-0.007-0.009,0-0.055,0.082-0.064c0.143-0.014,1.138-0.076,1.537-0.125c0.323-0.04,0.52,0.094,0.704,0.339
	c0.38,0.508,0.784,1,1.177,1.498C19.814,25.492,19.867,25.573,19.626,25.587z M21.277,27.725c-0.544,0.702-1.079,1.41-1.617,2.117
	c-0.219,0.288-0.434,0.578-0.656,0.864c-0.03,0.038-0.088,0.073-0.135,0.076c-0.34,0.019-2.483,0.187-3.218,0.187
	c-0.105,0-0.127-0.072-0.128-0.112c-0.01-0.379-0.006-1.137-0.006-1.137l1.605-0.09c0,0,0.436-0.019,0.708-0.36
	c0.44-0.604,0.897-1.196,1.358-1.808l-3.697,0.206v-1.245l5.37-0.316v-5.314l1.864-0.101v5.316c0.343-0.024,1.783-0.115,2.186-0.13
	c0.034-0.001,0.099,0.061,0.1,0.095c0.008,0.349,0.009,0.698-0.001,1.047c-0.001,0.042-0.082,0.113-0.129,0.116
	c-0.3,0.023-2.335,0.129-3.052,0.158C21.53,27.305,21.421,27.538,21.277,27.725z M23.184,30.52l-1.468-2.88
	c0,0,1.53-0.111,1.766-0.117c0.247-0.006,0.365,0.068,0.466,0.271c0.424,0.849,0.858,1.694,1.288,2.541
	c0.005,0.01,0.003,0.024,0.007,0.073L23.184,30.52z M26.072,22.491c0.588-0.922,1.165-1.851,1.745-2.778
	c0.024-0.038,0.055-0.07,0.081-0.103c0.476,0.224,0.932,0.444,1.394,0.65c0.09,0.04,0.205,0.026,0.308,0.03
	c0.064,0.002,4.733-0.244,5.448-0.285c0.138-0.008,0.274-0.032,0.436-0.051l0.007,1.825c0.023,0.255-0.086,0.372-0.296,0.471
	c-0.704,0.335-2.491,1.21-2.718,1.318c0.438,0.164,1.839,0.698,2.142,0.783c0.161,0.045,0.803,0.001,0.966-0.018v1.249
	c-0.164,0.016-0.821,0.068-0.979,0.088c-0.415,0.051-2.601-0.791-3.31-1.102c-0.378-0.166-0.672-0.098-1.002,0.068
	c-0.928,0.466-1.86,0.923-2.792,1.379c-0.077,0.038-0.168,0.065-0.253,0.067c-0.376,0.007-0.752,0.003-1.138,0.003v-1.199
	c0.219-0.01,0.44-0.017,0.66-0.032c0.094-0.006,0.197-0.009,0.278-0.049c0.686-0.335,1.368-0.678,2.074-1.03
	c-0.422-0.156-0.829-0.307-1.26-0.466c0.144-0.224,0.489-0.747,0.521-0.795c0.251-0.373,0.252-0.374,0.676-0.214
	c0.537,0.203,1.072,0.412,1.611,0.609c0.07,0.026,0.173,0.014,0.243-0.02c0.827-0.4,1.649-0.811,2.476-1.21
	c0.15-0.072,0.251-0.146,0.174-0.349c-0.305,0.016-4.678,0.249-4.887,0.273c-0.05,0.005-0.108,0.056-0.137,0.102
	c-0.27,0.42-0.542,0.839-0.796,1.269c-0.096,0.163-0.167,0.243-0.376,0.155c-0.4-0.169-0.817-0.299-1.226-0.447
	C26.047,22.645,25.991,22.618,26.072,22.491z M28.047,30.117c-0.06,0.12-0.12,0.165-0.257,0.169
	c-0.486,0.014-1.598,0.073-1.702,0.073c0.283-0.553,1.048-1.983,1.124-2.19c0.073-0.199,0.213-0.243,0.387-0.252
	c0.372-0.017,1.431-0.071,1.628-0.09C29.12,28.038,28.338,29.539,28.047,30.117z M31.805,27.391v2.649l-1.897,0.104v-2.659
	c-0.39,0.021-3.737,0.198-3.802,0.198V26.46c0.165-0.019,3.291-0.201,3.791-0.236v-0.599c0.641-0.039,1.262-0.076,1.899-0.115v0.612
	l3.796-0.228v1.27C35.544,27.17,31.978,27.371,31.805,27.391z M34.179,29.887c-0.056,0-0.133-0.067-0.167-0.123
	c-0.425-0.696-0.844-1.395-1.28-2.119c0.128-0.015,1.264-0.087,1.724-0.12c0.122-0.009,0.189,0.042,0.244,0.133
	c0.411,0.682,0.823,1.363,1.232,2.046c0.059,0.086,0.017,0.091,0.017,0.091C35.757,29.815,34.179,29.887,34.179,29.887z"/>
</svg>
