<?xml version="1.0" standalone="no"?><!DOCTYPE svg PUBLIC "-//W3C//DTD SVG 1.1//EN" "http://www.w3.org/Graphics/SVG/1.1/DTD/svg11.dtd"><svg t="1494385246117" class="icon" style="" viewBox="0 0 1024 1024" version="1.1" xmlns="http://www.w3.org/2000/svg" p-id="10403" xmlns:xlink="http://www.w3.org/1999/xlink" width="48" height="48"><defs><style type="text/css"></style></defs>
<path style="fill:#FFFFFF;" d="M27.428,32.398c-0.777,0.166-1.56,0.361-2.353,0.496c-1.126,0.191-2.261,0.154-3.389-0.001
	c-0.459-0.063-0.909-0.189-1.367-0.268c-0.131-0.022-0.292-0.014-0.409,0.043c-0.954,0.462-1.904,0.933-2.848,1.414
	c-0.331,0.169-0.641,0.198-0.946-0.037c-0.31-0.238-0.328-0.556-0.274-0.914c0.117-0.776,0.217-1.555,0.304-2.335
	c0.011-0.099-0.077-0.235-0.158-0.313c-1.003-0.964-1.882-2.02-2.457-3.301c-0.607-1.354-0.856-2.773-0.667-4.244
	c0.27-2.106,1.257-3.851,2.809-5.277c1.661-1.526,3.639-2.392,5.857-2.744c2.064-0.328,4.085-0.149,6.04,0.572
	c2.619,0.965,4.643,2.623,5.809,5.214c0.514,1.142,0.731,2.345,0.648,3.598c-0.002,0.033-0.007,0.065-0.015,0.134
	c-0.573-0.471-1.177-0.574-1.851-0.244c0.036-0.902-0.099-1.741-0.419-2.552c-0.478-1.212-1.249-2.202-2.254-3.018
	c-1.308-1.062-2.815-1.686-4.467-1.931c-2.513-0.373-4.885,0.062-7.021,1.471c-1.664,1.098-2.811,2.602-3.202,4.594
	c-0.31,1.579,0.004,3.066,0.815,4.448c0.493,0.839,1.142,1.545,1.916,2.13c0.415,0.314,0.583,0.66,0.402,1.18
	c-0.155,0.445-0.245,0.913-0.357,1.373c-0.017,0.071,0.004,0.151,0.008,0.227c0.085-0.013,0.183-0.003,0.252-0.042
	c0.604-0.343,1.204-0.691,1.801-1.045c0.313-0.185,0.625-0.257,0.99-0.149c1.334,0.394,2.699,0.472,4.074,0.312
	c0.594-0.069,1.178-0.225,1.725-0.333C26.592,31.529,27.043,32.125,27.428,32.398z"/>
<path style="fill:#FFFFFF;" d="M32.768,24.591c0.706,0.001,1.362,0.54,1.471,1.236c0.155,0.99,0.597,1.824,1.314,2.518
	c0.039,0.038,0.295,0.307,0.125,0.53c-0.097,0.156-0.305,0.207-0.475,0.068c-0.338-0.279-0.667-0.573-1.03-0.814
	c-0.514-0.34-1.1-0.506-1.704-0.63c-0.789-0.161-1.236-0.846-1.136-1.679C31.41,25.166,32.083,24.59,32.768,24.591z"/>
<path style="fill:#FFFFFF;" d="M38.314,30.328c-0.025,0.716-0.546,1.292-1.252,1.415c-0.942,0.164-1.763,0.574-2.447,1.249
	c-0.059,0.058-0.114,0.119-0.176,0.173c-0.155,0.135-0.316,0.139-0.464-0.005c-0.148-0.143-0.156-0.305-0.019-0.462
	c0.174-0.199,0.365-0.385,0.53-0.592c0.495-0.618,0.773-1.331,0.918-2.106c0.139-0.744,0.87-1.231,1.541-1.16
	C37.75,28.927,38.34,29.591,38.314,30.328z"/>
<path style="fill:#FFFFFF;" d="M34.247,34.581c0.003,0.74-0.574,1.38-1.345,1.432c-0.684,0.047-1.415-0.371-1.556-1.243
	c-0.161-0.996-0.635-1.81-1.341-2.506c-0.184-0.182-0.22-0.406-0.067-0.555c0.19-0.184,0.375-0.1,0.527,0.054
	c0.602,0.612,1.311,1.039,2.14,1.262c0.158,0.042,0.321,0.069,0.481,0.101C33.834,33.279,34.313,33.992,34.247,34.581z"/>
<path style="fill:#FFFFFF;" d="M28.507,31.963c-0.727,0.041-1.299-0.621-1.407-1.139c-0.147-0.706,0.29-1.445,0.904-1.624
	c0.44-0.128,0.881-0.253,1.314-0.404c0.624-0.218,1.135-0.611,1.59-1.084c0.186-0.194,0.347-0.193,0.509-0.001
	c0.159,0.189,0.054,0.343-0.082,0.477c-0.411,0.404-0.755,0.861-0.988,1.385c-0.161,0.364-0.318,0.746-0.376,1.135
	C29.869,31.387,29.506,31.904,28.507,31.963z"/>
</svg>
