<?xml version="1.0" encoding="iso-8859-1"?>
<!-- Generator: Adobe Illustrator 22.1.0, SVG Export Plug-In . SVG Version: 6.00 Build 0)  -->
<svg version="1.1" id="&#x56FE;&#x5C42;_1" xmlns="http://www.w3.org/2000/svg" xmlns:xlink="http://www.w3.org/1999/xlink" x="0px"
	 y="0px" viewBox="12.6 12.56 25.8 25.8" style="enable-background:new 0 0 51.024 51.024;" xml:space="preserve">
<path style="fill:#FFFFFF;" d="M26.4,31.34c3.111,0,5.71-2.288,6.296-5.314c3.128-0.462,5.572-3.991,5.572-8.244
	c0-0.054-0.001-0.108-0.002-0.162l-0.001-0.058c-0.009-0.483-0.404-0.87-0.887-0.87h-4.557v-3.073c0-0.49-0.397-0.888-0.887-0.888
	H18.996c-0.49,0-0.887,0.397-0.887,0.888v3.073h-4.461c-0.483,0-0.878,0.387-0.887,0.87l-0.001,0.058
	c-0.001,0.054-0.002,0.108-0.002,0.162c0,4.208,2.394,7.705,5.473,8.227c0.579,3.034,3.182,5.331,6.299,5.331h0.049v5.178h-4.592
	c-0.49,0-0.887,0.397-0.887,0.887c0,0.49,0.397,0.888,0.887,0.888h10.757c0.49,0,0.887-0.397,0.887-0.888
	c0-0.49-0.397-0.887-0.887-0.887h-4.391V31.34H26.4z M36.468,18.467c-0.209,2.873-1.714,5.201-3.649,5.724v-5.724H36.468z
	 M14.555,18.467h3.553v5.696C16.22,23.589,14.761,21.292,14.555,18.467z M19.883,24.735v-7.14c0-0.005,0.002-0.01,0.002-0.016
	c0-0.005-0.001-0.01-0.002-0.016v-3.058h11.161v10.229c0,2.663-2.084,4.83-4.645,4.83h-1.872
	C21.967,29.565,19.883,27.398,19.883,24.735z"/>
</svg>
