<?xml version="1.0" encoding="utf-8"?>
<!-- Generator: Adobe Illustrator 19.1.0, SVG Export Plug-In . SVG Version: 6.00 Build 0)  -->
<!DOCTYPE svg PUBLIC "-//W3C//DTD SVG 1.1//EN" "http://www.w3.org/Graphics/SVG/1.1/DTD/svg11.dtd">
<svg version="1.1" id="Layer_1" xmlns="http://www.w3.org/2000/svg" xmlns:xlink="http://www.w3.org/1999/xlink" x="0px" y="0px"
	 width="32px" height="32px" viewBox="0 0 32 32" enable-background="new 0 0 32 32" xml:space="preserve">
<g>
	<g>
		<path fill-rule="evenodd" clip-rule="evenodd" fill="#FFFFFF" d="M25,6h-2v2h2V6z M25,3h-2v2h2V3z M25,0h-2v2h2V0z M26,0v2h6V0H26
			z M26,5h6V3h-6V5z M26,8h6V6h-6V8z M22,23h-1.2c1.4-2.3,2.2-5.2,2.2-8c0-5.8-3.6-9-8-9c-4.4,0-8,3.2-8,9c0,2.8,0.9,5.7,2.2,8H8
			c-5.7,0-8,9-8,9h30C30,32,27.7,23,22,23z M9,15c0-4.6,2.6-7,6-7c3.4,0,6,2.4,6,7c0,4.6-2.6,10-6,10C11.6,25,9,19.6,9,15z M3,30
			c0,0,1.6-5,5-5h2.8c1.2,1.2,2.7,2,4.2,2c1.5,0,3-0.8,4.2-2H22c3.4,0,5,5,5,5H3z"/>
	</g>
</g>
</svg>
