<?xml version="1.0" encoding="iso-8859-1"?>
<!-- Generator: Adobe Illustrator 22.1.0, SVG Export Plug-In . SVG Version: 6.00 Build 0)  -->
<svg version="1.1" id="&#x56FE;&#x5C42;_1" xmlns="http://www.w3.org/2000/svg" xmlns:xlink="http://www.w3.org/1999/xlink" x="0px"
	 y="0px" viewBox="14.5 12.65 22 25.7" style="enable-background:new 0 0 51.024 51.024;" xml:space="preserve">
<g>
	<g>
		<path style="fill:#FFFFFF;" d="M35.443,38.268H15.581c-0.236,0-0.461-0.094-0.627-0.261c-0.166-0.167-0.259-0.393-0.258-0.629
			c0.024-5.093,2.465-9.63,6.134-11.753c-3.749-2.119-6.147-6.563-6.136-11.688l0.002-0.296c0-0.489,0.396-0.885,0.885-0.885h19.861
			c0.486,0,0.882,0.392,0.885,0.879l0.002,0.305c0,5.054-2.444,9.567-6.14,11.684c3.672,2.122,6.115,6.66,6.139,11.755
			c0.001,0.235-0.092,0.462-0.258,0.629C35.904,38.174,35.679,38.268,35.443,38.268z M16.499,36.497h18.025
			c-0.33-4.732-3.088-8.871-6.785-10.032c-0.369-0.116-0.62-0.458-0.62-0.845c0-0.387,0.251-0.729,0.62-0.845
			c3.861-1.212,6.603-5.379,6.808-10.25H16.475c0.187,4.916,2.875,8.997,6.813,10.251c0.368,0.117,0.617,0.459,0.617,0.845
			c-0.001,0.386-0.252,0.727-0.62,0.843C19.588,27.626,16.829,31.765,16.499,36.497z"/>
	</g>
	<g>
		<path style="fill:#FFFFFF;" d="M23.836,22.534c-0.036,0-0.073-0.002-0.11-0.007c-2.237-0.277-4.13-2.274-4.603-4.856
			c-0.002-0.008-0.007-0.042-0.008-0.05c-0.074-0.481,0.253-0.94,0.733-1.017c0.479-0.077,0.931,0.239,1.012,0.719
			c0.001,0.004,0.004,0.025,0.005,0.03c0.335,1.83,1.601,3.235,3.079,3.418c0.485,0.06,0.83,0.502,0.77,0.987
			C24.659,22.206,24.277,22.534,23.836,22.534z"/>
	</g>
</g>
</svg>
