<?xml version="1.0" encoding="utf-8"?>
<!-- Generator: Adobe Illustrator 24.0.0, SVG Export Plug-In . SVG Version: 6.00 Build 0)  -->
<svg version="1.1" id="图层_1" xmlns="http://www.w3.org/2000/svg" xmlns:xlink="http://www.w3.org/1999/xlink" x="0px" y="0px"
	 viewBox="0 0 200 200" style="enable-background:new 0 0 200 200;" xml:space="preserve">
<style type="text/css">
	.st0{fill:#FFFFFF;}
</style>
<path class="st0" d="M187.5,51.4c-0.4-0.3-0.8-0.5-1.3-0.5c-2.9,0.1-5.6-0.1-8.3-0.5v-5.4c-6.9,0.3-13.5-1.1-19.4-3.9
	c-8.9-7.8-14.9-19.7-15.8-33.6c0-0.9-0.8-1.6-1.7-1.6h-7.8C132.8,4,132.5,2,132.4,0H99.2v130.6c0,10.9-6.6,20.8-16.7,25
	c-6.5,2.7-13.6,2.7-20,0.3c-7-7.3-9.1-18-5.2-27.4c3.9-9.5,13.2-15.6,23.5-15.5c0.4,0,0.9-0.2,1.2-0.5c0.3-0.3,0.5-0.8,0.5-1.2V77.9
	c0-0.4-0.2-0.9-0.5-1.2c-0.3-0.3-0.8-0.5-1.2-0.5c-2.9,0-5.8,0.2-8.7,0.6v-6.5C39,70.4,12,97.3,12,130.5c0,16.9,6.9,32.1,18.1,43
	c11.2,16,29.7,26.4,50.7,26.4c34.1-0.1,61.7-27.8,61.8-61.9V74.7c12.7,9,28.2,13.4,43.7,12.4c0.9-0.1,1.6-0.8,1.6-1.7V52.7
	C188,52.2,187.8,51.8,187.5,51.4z M139.4,9.3c0.9,9.3,3.8,17.6,8.3,24.5c-6.6-6.2-11.6-14.6-13.9-24.5H139.4z M79.1,79.7L79.1,79.7
	l0,29.7c-15.6,0.9-27.7,14.1-27.1,29.8c0.2,4.6,1.4,8.8,3.4,12.6c-0.8-0.6-1.6-1.3-2.4-2.1c-7.7-7.8-10-19.4-5.8-29.5
	c4.2-10.1,14.1-16.7,25-16.7V80.3C74.5,80,76.8,79.8,79.1,79.7z M184.6,83.6c-15.4,0.6-30.5-4.2-42.6-13.7c-0.5-0.4-1.2-0.5-1.8-0.2
	c-0.6,0.3-0.9,0.9-0.9,1.5v66.8c0,32.1-25.8,58.1-57.9,58.5c-13.9,0.1-26.6-4.6-36.7-12.5c8.2,4.2,17.6,6.7,27.5,6.7
	c33.2,0,60.2-27,60.2-60.2V63.7c12.9,10.1,29.1,15.1,45.5,14V53.9c2.2,0.3,4.5,0.5,6.8,0.5V83.6z"/>
</svg>
