<?xml version="1.0" encoding="utf-8"?>
<!-- Generator: Adobe Illustrator 19.1.0, SVG Export Plug-In . SVG Version: 6.00 Build 0)  -->
<!DOCTYPE svg PUBLIC "-//W3C//DTD SVG 1.1//EN" "http://www.w3.org/Graphics/SVG/1.1/DTD/svg11.dtd">
<svg version="1.1" id="Layer_1" xmlns="http://www.w3.org/2000/svg" xmlns:xlink="http://www.w3.org/1999/xlink" x="0px" y="0px"
	 width="32px" height="32px" viewBox="0 0 32 32" enable-background="new 0 0 32 32" xml:space="preserve">
<path fill-rule="evenodd" clip-rule="evenodd" fill="#FFFFFF" d="M16,0C7.2,0,0,7.2,0,16c0,8.8,7.2,16,16,16c8.8,0,16-7.2,16-16
	C32,7.2,24.8,0,16,0z M16,30C8.3,30,2,23.7,2,16C2,8.3,8.3,2,16,2c7.7,0,14,6.3,14,14C30,23.7,23.7,30,16,30z"/>
<path fill-rule="evenodd" clip-rule="evenodd" fill="#FFFFFF" d="M23,20c-1.2,0-14,0-14,0s-1,0.3-1,1.5v0.2c0,0,0,1.3,1,1.3
	c1.2,0,14,0,14,0s1,0,1-1.3c0-0.1,0-0.2,0-0.3C24,21.4,23.9,20,23,20z M24,21.5L24,21.5C24,21.5,24,20.7,24,21.5z M23,18l1-1.4
	L16.6,7h-1.2L8,16.6L9,18H23z"/>
</svg>
