<?xml version="1.0" encoding="iso-8859-1"?>
<!-- Generator: Adobe Illustrator 22.1.0, SVG Export Plug-In . SVG Version: 6.00 Build 0)  -->
<svg version="1.1" id="&#x56FE;&#x5C42;_1" xmlns="http://www.w3.org/2000/svg" xmlns:xlink="http://www.w3.org/1999/xlink" x="0px"
	 y="0px" viewBox="12.8 13 25.8 25.3" style="enable-background:new 12.8 13 25.8 25.3;" xml:space="preserve">
<path style="fill:#FFFFFF;" d="M38.314,28.539c-0.067-0.964-0.6-1.747-1.059-2.556c-0.149-0.264-0.389-0.162-0.605-0.042
	c-0.84,0.473-1.679,0.952-2.526,1.413c-0.359,0.197-0.424,0.434-0.217,0.78c0.483,0.8,0.962,1.602,1.423,2.414
	c0.202,0.351,0.441,0.434,0.79,0.217c0.506-0.314,1.029-0.608,1.517-0.947C38.075,29.515,38.332,29.092,38.314,28.539L38.314,28.539
	z M38.314,28.539"/>
<path style="fill:#FFFFFF;" d="M23.191,27.036c0.369,0.648,1.045,1.013,1.742,1.013c0.334,0,0.673-0.084,0.985-0.261l4.64-2.632
	l5.223-2.963c0.047-0.027,0.086-0.062,0.13-0.092l1.923-1.096c-1.902-5.176-7.002-8.808-12.914-8.462
	c-6.546,0.383-11.89,5.831-12.154,12.383c-0.299,7.392,5.605,13.479,12.931,13.479c2.882,0,5.542-0.943,7.693-2.536
	c0.289-0.214,0.353-0.625,0.158-0.928l-0.839-1.305c-0.52-0.809-1.586-1.045-2.408-0.546c-1.606,0.976-3.542,1.461-5.607,1.233
	c-4.089-0.45-7.414-3.772-7.859-7.862c-0.584-5.372,3.608-9.916,8.862-9.916c2.649,0,5.02,1.161,6.651,2.996l-8.403,4.767
	C22.983,24.854,22.646,26.075,23.191,27.036z"/>
</svg>
