<?xml version="1.0" encoding="iso-8859-1"?>
<!-- Generator: Adobe Illustrator 22.1.0, SVG Export Plug-In . SVG Version: 6.00 Build 0)  -->
<svg version="1.1" id="&#x56FE;&#x5C42;_1" xmlns="http://www.w3.org/2000/svg" xmlns:xlink="http://www.w3.org/1999/xlink" x="0px"
	 y="0px" viewBox="12.6 12.7 25.8 25.7" style="enable-background:new 0 0 51.024 51.024;" xml:space="preserve">
<path style="fill:#FFFFFF;" d="M36.479,18.509l-8.75,7.018c-0.493,0.398-1.088,0.609-1.722,0.609s-1.229-0.21-1.722-0.609
	l-5.408-4.372c-0.38-0.307-0.938-0.248-1.245,0.132c-0.307,0.38-0.248,0.938,0.132,1.245l5.408,4.372
	c0.8,0.647,1.807,1.003,2.835,1.003c1.028,0,2.035-0.356,2.834-1.002L37.4,20.06c0.095-0.071,0.366-0.289,0.575-0.597
	c0.245-0.36,0.286-0.845,0.292-1.037c0.001-0.01,0.001-1.235,0.001-1.235c0-2.446-1.99-4.437-4.437-4.437H17.193
	c-2.446,0-4.437,1.99-4.437,4.437v16.642c0,2.446,1.99,4.437,4.437,4.437h16.638c2.446,0,4.437-1.99,4.437-4.437v-9.104
	c0-0.489-0.397-0.886-0.886-0.886s-0.886,0.397-0.886,0.886v9.104c0,1.47-1.196,2.666-2.666,2.666H17.193
	c-1.47,0-2.666-1.196-2.666-2.666V17.191c0-1.47,1.196-2.666,2.666-2.666H33.83c1.47,0,2.666,1.196,2.666,2.666L36.479,18.509z"/>
</svg>
