<?xml version="1.0" encoding="iso-8859-1"?>
<!-- Generator: Adobe Illustrator 22.1.0, SVG Export Plug-In . SVG Version: 6.00 Build 0)  -->
<svg version="1.1" id="&#x56FE;&#x5C42;_1" xmlns="http://www.w3.org/2000/svg" xmlns:xlink="http://www.w3.org/1999/xlink" x="0px"
	 y="0px" viewBox="12.6 15.3 25.8 20.4" style="enable-background:new 0 0 51.024 51.024;" xml:space="preserve">
<path style="fill:#FFFFFF;" d="M37.741,16.2c-0.446-0.51-1.148-0.765-2.105-0.765h-5.513c-1.531,0-1.934,0.21-2.599,0.835
	c-0.471,0.442-1.901,1.716-1.901,1.716s-1.531-1.339-1.85-1.658c-0.702-0.638-1.467-0.957-2.296-0.957h-5.804
	c-1.85,0-2.87,0.957-2.87,2.679V32.91c0,1.722,0.957,2.743,2.742,2.743h20.346c1.531-0.064,2.424-1.021,2.424-2.615V18.305
	C38.315,17.412,38.188,16.646,37.741,16.2L37.741,16.2z M21.414,16.965c0.51,0,0.829,0.128,1.212,0.51
	c0.383,0.319,1.658,1.467,1.977,1.722c0.574,0.574,1.339,0.574,1.913,0.064c0.446-0.383,1.478-1.308,2.019-1.786
	c0.716-0.632,1.298-0.51,1.571-0.51h4.638c-0.893,0.702-8.657,6.779-8.865,6.952c-0.227,0.189-0.415,0.143-0.638,0
	c-0.228-0.146-7.335-5.613-9.057-7.016C16.248,16.965,20.138,16.965,21.414,16.965L21.414,16.965z M31.555,21.447v7.636h-2.934
	c-0.574-0.702-1.148-1.467-1.722-2.169c-0.446-0.574-0.957-0.702-1.276-0.702c-0.319,0-0.829,0.128-1.339,0.638l-1.818,2.232h-3.03
	V21.58c0.51,0.383,4.465,3.421,4.656,3.549c0.528,0.353,0.893,0.51,1.339,0.51c0.51,0,0.957-0.191,1.403-0.51
	C27.026,25.001,31.555,21.447,31.555,21.447z M15.546,34.058c-0.893,0-1.148-0.255-1.148-1.148V18.05c0-0.191,0-0.383,0.064-0.51
	c1.021,0.829,2.551,2.041,4.082,3.189c-0.574,0.446-0.638,0.893-0.638,1.403v6.761c0,0.574,0.191,1.021,0.638,1.339
	c0.319,0.255,0.765,0.383,1.212,0.383h2.615c0.574,0,1.148-0.319,1.467-0.765c0.51-0.702,1.722-2.105,1.722-2.168
	c0,0,3.635,4.656,4.975,6.314C27.218,34.058,19.564,34.058,15.546,34.058L15.546,34.058z M36.784,17.986v15.052
	c0,0.829-0.383,0.957-0.957,1.02h-3.317c-0.446-0.574-1.531-1.977-2.679-3.444h1.658c0.51,0,0.893-0.128,1.212-0.446
	c0.319-0.319,0.446-0.702,0.446-1.212v-6.888c0-0.446-0.064-0.957-0.638-1.339c1.85-1.467,3.572-2.806,4.146-3.253
	C36.784,17.731,36.784,17.731,36.784,17.986L36.784,17.986z M36.784,17.986"/>
<line style="fill:#FFFFFF;" x1="30.286" y1="22.414" x2="32.823" y2="20.481"/>
</svg>
