<?xml version="1.0" encoding="utf-8"?>
<!-- Generator: Adobe Illustrator 19.1.0, SVG Export Plug-In . SVG Version: 6.00 Build 0)  -->
<!DOCTYPE svg PUBLIC "-//W3C//DTD SVG 1.1//EN" "http://www.w3.org/Graphics/SVG/1.1/DTD/svg11.dtd">
<svg version="1.1" id="Layer_1" xmlns="http://www.w3.org/2000/svg" xmlns:xlink="http://www.w3.org/1999/xlink" x="0px" y="0px"
	 width="32px" height="32px" viewBox="-33 35 32 32" enable-background="new -33 35 32 32" xml:space="preserve">
<g>
	<g>
		<path fill="#FFFFFF" d="M-2,44h-1v13h-28V46h20l-3-2h-18l-1,1v13l1,1h30l1-1V45L-2,44z M-9,53h2v-2h-2V53z M-8,42c1,0,2,0.3,2,2
			c0,1-0.8,2-1.5,2H-8c-0.8,0-1,1.5-1,2v2h2v-2c2.7-0.9,3-2.4,3-4c0-3.1-1.6-4-4-4c-2.7,0-4,1.3-4,4h2C-10,43.3-9.6,42-8,42z"/>
	</g>
</g>
</svg>
