<?xml version="1.0" encoding="iso-8859-1"?>
<!-- Generator: Adobe Illustrator 22.1.0, SVG Export Plug-In . SVG Version: 6.00 Build 0)  -->
<svg version="1.1" id="&#x56FE;&#x5C42;_1" xmlns="http://www.w3.org/2000/svg" xmlns:xlink="http://www.w3.org/1999/xlink" x="0px"
	 y="0px" viewBox="12.5 12.6 26 25.8" style="enable-background:new 12.5 12.6 26 25.8;" xml:space="preserve">
<g>
	<path style="fill:#FFFFFF;" d="M37.382,23.708c-0.489,0-0.886,0.397-0.886,0.886v10.013c0,1.046-0.851,1.898-1.898,1.898H16.433
		c-1.046,0-1.898-0.851-1.898-1.898v-5.011c0-0.062-0.007-0.123-0.019-0.182c0.005-0.037,0.011-0.073,0.011-0.112l0.008-12.159
		c0-1.046,0.851-1.898,1.898-1.898h9.517c0.489,0,0.886-0.397,0.886-0.886c0-0.489-0.397-0.886-0.886-0.886h-9.517
		c-2.024,0-3.67,1.646-3.67,3.67L12.756,29.3c0,0.063,0.007,0.124,0.019,0.183c-0.005,0.037-0.011,0.075-0.011,0.114v5.011
		c0,2.024,1.646,3.67,3.67,3.67h18.165c2.024,0,3.67-1.646,3.67-3.67V24.594C38.268,24.105,37.871,23.708,37.382,23.708z"/>
	<path style="fill:#FFFFFF;" d="M20.411,26.281l-1.017,4.327c-0.071,0.301,0.02,0.617,0.241,0.834
		c0.168,0.165,0.392,0.255,0.622,0.255c0.072,0,0.144-0.009,0.215-0.026l4.274-1.07c0.156-0.039,0.298-0.12,0.411-0.233
		l12.458-12.458c0.871-0.871,0.871-2.288,0-3.159L36.263,13.4c-0.871-0.871-2.288-0.871-3.159,0L20.647,25.857
		C20.53,25.974,20.448,26.121,20.411,26.281z M34.357,14.653c0.18-0.18,0.473-0.18,0.653,0l1.351,1.351
		c0.18,0.18,0.18,0.473,0,0.653l-1.445,1.445l-2.004-2.004L34.357,14.653z M22.078,26.932l9.582-9.582l2.004,2.004l-9.587,9.586
		l-2.625,0.658L22.078,26.932z"/>
</g>
</svg>
