<?xml version="1.0" encoding="iso-8859-1"?>
<!-- Generator: Adobe Illustrator 22.1.0, SVG Export Plug-In . SVG Version: 6.00 Build 0)  -->
<svg version="1.1" id="&#x56FE;&#x5C42;_1" xmlns="http://www.w3.org/2000/svg" xmlns:xlink="http://www.w3.org/1999/xlink" x="0px"
	 y="0px" viewBox="0 0 51.024 51.024" style="enable-background:new 0 0 51.024 51.024;" xml:space="preserve">
<g>
	<path style="fill:#FFFFFF;" d="M34.264,22.906h3.157l-0.491-0.957h1.228c0.197,0,0.305,0.15,0.355,0.244
		c0.119,0.223,0.342,0.725,0.342,0.725l1.644-1.743h-5.952l0.171-1.088c0,0,4.909,0.004,7.2-0.005
		c0.294-0.001,0.499,0.093,0.608,0.362c0.107,0.265-0.007,0.48-0.191,0.663l-1.827,1.806l0.99,0c0,0,0.757-0.065,0.605,0.688
		c-0.242,1.459-0.884,5.265-0.884,5.265h-1.591l0.197-1.205h-1.711l-0.127,0.788h-1.41l0.127-0.789h-1.637l-0.2,1.196h-1.593
		L34.264,22.906z M40.291,24.761l0.114-0.651c0.045-0.273-0.284-0.233-0.284-0.233h-1.396l-0.143,0.884H40.291z M37.314,23.881
		h-1.619l-0.027,0.155l-0.114,0.718h1.624L37.314,23.881z M40.128,25.777h-1.71l-0.139,0.862h1.709L40.128,25.777z M37.008,25.777
		h-1.63l-0.02,0.125l-0.125,0.729h1.638L37.008,25.777z"/>
	<path style="fill:#FFFFFF;" d="M33.493,19.775c-0.112,0.732-0.217,1.425-0.325,2.136c-0.552,0-1.093,0-1.67,0
		c0.103-0.71,0.205-1.418,0.308-2.136C32.378,19.775,32.92,19.775,33.493,19.775z"/>
	<path style="fill:#FFFFFF;" d="M20.379,20.72h-3.119l0.133-0.937h-2.329l-0.155,0.937l-4.631,0.006L8.551,31.248
		c0,0,1.23-0.674,1.629-1.211c0.696-0.938,1.066-2.002,1.247-3.145c0.147-0.931,0.708-4.177,0.863-5.073h8.089
		c0.304,0,0.55-0.246,0.55-0.55S20.682,20.72,20.379,20.72z"/>
	<g>
		<path style="fill:#FFFFFF;" d="M28.404,30.651h-10.4c-0.309,0-0.559-0.25-0.559-0.559c0-0.309,0.25-0.559,0.559-0.559h10.4
			c0.309,0,0.559,0.25,0.559,0.559C28.963,30.401,28.713,30.651,28.404,30.651z"/>
	</g>
	<path style="fill:#FFFFFF;" d="M41.44,29.534h-8.859c-0.416-0.014-0.603-0.224-0.545-0.629c0.044-0.305,0.685-4.27,0.968-5.992
		c-0.536,0-1.028,0.008-1.519-0.004c-0.214-0.005-0.238,0.126-0.263,0.281c-0.206,1.304-0.859,5.431-0.895,6.194
		c-0.04,0.831,0.454,1.279,1.283,1.279c0.278,0,9.829,0.003,9.829,0.003c0.313,0,0.566-0.254,0.566-0.567
		S41.753,29.534,41.44,29.534z"/>
	<path style="fill:#FFFFFF;" d="M29.459,20.811h-4.123l0.162-1.025h-1.9l-0.515,3.26c-2.916,0.134-5.199,1.35-5.199,2.832
		c0,1.572,2.568,2.846,5.736,2.846s5.736-1.274,5.736-2.846c0-1.34-1.87-2.461-4.383-2.763l0.19-1.205h4.297
		c0.304,0,0.55-0.246,0.55-0.55S29.763,20.811,29.459,20.811z M27.16,25.376c0,0.899-1.624,1.628-3.627,1.628
		c-2.003,0-3.627-0.729-3.627-1.628c0-0.812,1.329-1.48,3.061-1.603l-0.088,0.559c-0.924,0.106-1.601,0.424-1.601,0.805
		c0,0.467,1.01,0.846,2.255,0.846s2.255-0.379,2.255-0.846c0-0.297-0.409-0.557-1.025-0.708l0.09-0.567
		C26.202,24.1,27.16,24.686,27.16,25.376z"/>
</g>
</svg>
