<?xml version="1.0" encoding="iso-8859-1"?>
<!-- Generator: Adobe Illustrator 22.1.0, SVG Export Plug-In . SVG Version: 6.00 Build 0)  -->
<svg version="1.1" id="&#x56FE;&#x5C42;_1" xmlns="http://www.w3.org/2000/svg" xmlns:xlink="http://www.w3.org/1999/xlink" x="0px"
	 y="0px" viewBox="0 0 51.024 51.024" style="enable-background:new 0 0 51.024 51.024;" xml:space="preserve">
<g>
	<path style="fill:#FFFFFF;" d="M10.637,25.416c-0.608,0-1.207,0-1.822,0c0.017-0.136,0.028-0.264,0.051-0.389
		c0.045-0.239,0.128-0.465,0.258-0.671c0.015-0.023,0.041-0.047,0.041-0.047s1.825-0.002,2.718-0.002
		c0.01,0,0.019,0.002,0.039,0.004c0,0.133,0.007,0.267-0.001,0.4c-0.037,0.637-0.224,1.226-0.588,1.751
		c-0.49,0.707-1.151,1.169-2.003,1.321c-0.897,0.16-1.711-0.056-2.421-0.625C6.25,26.631,5.85,25.94,5.72,25.112
		c-0.186-1.187,0.131-2.228,1.007-3.066c0.626-0.599,1.388-0.875,2.255-0.825c0.731,0.042,1.363,0.329,1.895,0.831
		c0.118,0.111,0.226,0.234,0.342,0.355c-0.206,0.202-0.423,0.36-0.678,0.46c-0.101,0.04-0.208,0.067-0.314,0.091
		c-0.027,0.006-0.07-0.01-0.092-0.031c-0.372-0.343-0.805-0.538-1.314-0.541c-0.646-0.003-1.168,0.266-1.562,0.77
		C6.842,23.69,6.701,24.3,6.825,24.963c0.126,0.674,0.486,1.19,1.095,1.516c0.697,0.373,1.583,0.253,2.167-0.279
		c0.219-0.2,0.392-0.433,0.517-0.702C10.615,25.474,10.623,25.449,10.637,25.416z"/>
	<path style="fill:#FFFFFF;" d="M45.354,24.51c0.004,0.787-0.217,1.467-0.665,2.068c-0.407,0.547-0.933,0.932-1.59,1.133
		c-0.483,0.147-0.971,0.169-1.466,0.068c-0.814-0.166-1.443-0.611-1.922-1.279c-0.299-0.417-0.487-0.883-0.566-1.388
		c-0.13-0.83,0.001-1.616,0.434-2.344c0.379-0.638,0.913-1.099,1.607-1.362c0.522-0.197,1.062-0.243,1.611-0.133
		c0.837,0.168,1.488,0.62,1.969,1.317C45.17,23.178,45.364,23.832,45.354,24.51z M42.175,26.704
		c0.361-0.001,0.645-0.066,0.907-0.204c0.658-0.347,1.034-0.904,1.134-1.631c0.103-0.747-0.11-1.407-0.662-1.934
		c-0.458-0.437-1.012-0.617-1.639-0.512c-0.606,0.102-1.063,0.441-1.379,0.964c-0.248,0.41-0.352,0.857-0.313,1.336
		c0.047,0.584,0.277,1.08,0.712,1.476C41.304,26.533,41.741,26.699,42.175,26.704z"/>
	<path style="fill:#FFFFFF;" d="M32.973,28.98c0.312-0.264,0.642-0.447,1.035-0.496c0.024-0.003,0.055,0.003,0.074,0.017
		c0.455,0.322,1.058,0.178,1.356-0.321c0.11-0.184,0.167-0.382,0.162-0.592c-0.152,0.058-0.3,0.13-0.456,0.172
		c-0.658,0.178-1.259,0.045-1.789-0.375c-0.529-0.419-0.796-0.981-0.835-1.651c-0.036-0.608,0.138-1.154,0.531-1.62
		c0.36-0.426,0.822-0.672,1.379-0.733c0.39-0.042,0.755,0.045,1.103,0.217c0.021,0.01,0.071,0.034,0.071,0.034v-0.379
		c0,0,0.258,0.013,0.381,0.033c0.24,0.04,0.462,0.135,0.673,0.254c0.044,0.025,0.059,0.041,0.059,0.041s0.009,2.689-0.005,4.002
		c-0.009,0.833-0.358,1.503-1.081,1.94c-0.769,0.466-1.751,0.352-2.422-0.293C33.128,29.154,33.055,29.069,32.973,28.98z
		 M33.624,25.59c-0.004,0.271,0.081,0.534,0.27,0.767c0.335,0.413,0.958,0.459,1.346,0.096c0.455-0.426,0.486-1.167,0.069-1.633
		c-0.332-0.372-0.877-0.423-1.267-0.114C33.767,24.924,33.64,25.218,33.624,25.59z"/>
	<path style="fill:#FFFFFF;" d="M18.819,23.369l1.182-0.002l0.961,2.687l0.713-2.601l1.118,0.001l0.707,2.604l0.967-2.687
		l1.192-0.001c0,0-1.078,3.003-1.55,4.324c-0.025,0.071-0.063,0.103-0.136,0.113c-0.316,0.045-0.631,0.051-0.947,0
		c-0.064-0.011-0.098-0.034-0.117-0.102c-0.217-0.763-0.677-2.322-0.677-2.322s-0.513,1.755-0.675,2.319
		c-0.015,0.053-0.042,0.072-0.094,0.081c-0.33,0.057-0.66,0.054-0.991,0.006c-0.045-0.006-0.071-0.024-0.088-0.071
		C20.02,26.703,18.819,23.369,18.819,23.369z"/>
	<path style="fill:#FFFFFF;" d="M32.051,27.834c-0.373,0-0.737,0-1.11,0c0-0.03,0-0.059,0-0.087c0-0.7,0-1.401-0.001-2.101
		c-0.001-0.353-0.108-0.665-0.381-0.9c-0.516-0.443-1.141-0.214-1.419,0.232c-0.124,0.198-0.18,0.414-0.18,0.646
		c0,0.708,0,1.416,0,2.123c0,0.027,0,0.053,0,0.085c-0.369,0-0.734,0-1.11,0c0-0.024,0-0.05,0-0.075
		c0-1.372-0.001-4.177-0.001-4.177s0.018-0.02,0.065-0.046c0.3-0.17,0.617-0.277,0.965-0.278c0.017,0,0.081,0.008,0.081,0.008
		s0,0.332,0,0.51c0.029-0.02,0.048-0.032,0.066-0.045c0.958-0.682,2.317-0.351,2.851,0.697c0.116,0.227,0.175,0.468,0.175,0.725
		c-0.001,0.866,0,1.733,0,2.599C32.051,27.774,32.051,27.801,32.051,27.834z"/>
	<path style="fill:#FFFFFF;" d="M19.032,25.605c-0.023,0.711-0.279,1.31-0.828,1.772c-0.631,0.532-1.568,0.609-2.285,0.182
		c-0.612-0.364-0.963-0.91-1.064-1.607c-0.111-0.758,0.097-1.428,0.639-1.975c0.39-0.394,0.874-0.602,1.432-0.603
		c0.526-0.001,0.988,0.188,1.374,0.544c0.423,0.389,0.653,0.879,0.716,1.448C19.024,25.445,19.027,25.526,19.032,25.605z
		 M17.916,25.697c0.002-0.308-0.054-0.508-0.161-0.693c-0.375-0.652-1.247-0.666-1.641-0.026c-0.259,0.42-0.233,0.939,0.066,1.345
		c0.271,0.366,0.759,0.485,1.162,0.273C17.738,26.387,17.894,26.033,17.916,25.697z"/>
	<path style="fill:#FFFFFF;" d="M38.516,21.251c0,2.193,0,4.387,0,6.584c-0.369,0-0.735,0-1.107,0
		c-0.002-0.031-0.005-0.059-0.005-0.087c0-2.004,0.001-4.008-0.003-6.012c0-0.123,0.025-0.2,0.143-0.257
		c0.286-0.138,0.578-0.246,0.902-0.237c0.019,0,0.039,0.001,0.058,0.002C38.508,21.245,38.512,21.249,38.516,21.251z"/>
	<path style="fill:#FFFFFF;" d="M13.606,27.831h-1.11l-0.002-4.255c0,0,0.019-0.02,0.076-0.05c0.298-0.162,0.61-0.271,0.954-0.266
		c0.024,0,0.048,0,0.081,0c0,0.128,0,0.248,0,0.359c0.182-0.062,0.357-0.13,0.536-0.18c0.213-0.06,0.432-0.071,0.653-0.046
		c0.044,0.005,0.06,0.022,0.056,0.065c-0.039,0.351-0.102,0.695-0.296,1c-0.018,0.029-0.055,0.057-0.088,0.063
		c-0.329,0.063-0.568,0.244-0.725,0.537c-0.095,0.178-0.135,0.369-0.135,0.57V27.831z"/>
	<path style="fill:#FFFFFF;" d="M27.142,23.26c0,1.529,0,3.048,0,4.572c-0.368,0-0.733,0-1.109,0c0-0.023,0-0.047,0-0.07
		c-0.001-1.369-0.001-2.738-0.003-4.107c0-0.042,0.007-0.073,0.047-0.096C26.403,23.366,26.756,23.272,27.142,23.26z"/>
	<path style="fill:#FFFFFF;" d="M27.142,21.616c0,0.33,0,0.656,0,0.99c-0.391,0.019-0.762,0.115-1.106,0.33
		c-0.002-0.026-0.005-0.046-0.005-0.065c0-0.276,0.004-0.552-0.002-0.827c-0.002-0.082,0.029-0.122,0.096-0.157
		c0.279-0.149,0.574-0.239,0.89-0.262C27.055,21.621,27.096,21.618,27.142,21.616z"/>
</g>
</svg>
