<?xml version="1.0" encoding="UTF-8" standalone="no"?><!DOCTYPE svg PUBLIC "-//W3C//DTD SVG 1.1//EN" "http://www.w3.org/Graphics/SVG/1.1/DTD/svg11.dtd"><svg xmlns="http://www.w3.org/2000/svg" xmlns:xl="http://www.w3.org/1999/xlink" version="1.1" viewBox="-1 -1 87 87" width="87pt" height="87pt" xmlns:dc="http://purl.org/dc/elements/1.1/"><g stroke="none" stroke-opacity="1" stroke-dasharray="none" fill="none" fill-opacity="1"><path d="M 62.10204 5.0408163 L 21.10204 9.040816 C 19.10204 10.040816 19.10204 12.040816 19.10204 12.040816 L 19.10204 63.04082 C 18.10204 66.04082 21.10204 68.04082 21.10204 68.04082 L 48.10204 80.04082 C 52.10204 80.04082 52.10204 77.04082 52.10204 77.04082 L 52.10204 64.04082 L 63.10204 63.04082 C 66.10204 61.040816 66.10204 59.040816 66.10204 59.040816 L 66.10204 9.040816 C 66.10204 4.0408163 62.10204 5.0408163 62.10204 5.0408163 Z M 61.10204 55.040816 C 61.10204 55.040816 61.10204 57.040816 59.10204 58.040816 L 52.10204 58.040816 L 52.10204 25.040816 C 52.10204 25.040816 52.10204 23.040816 50.10204 22.040816 L 33.10204 14.040816 L 58.10204 11.040816 C 58.10204 11.040816 61.10204 11.040816 61.10204 14.040816 Z" fill="white"/></g></svg>
