<?xml version="1.0" encoding="utf-8"?>
<!-- Generator: Adobe Illustrator 22.1.0, SVG Export Plug-In . SVG Version: 6.00 Build 0)  -->
<svg version="1.1" id="图层_1" xmlns="http://www.w3.org/2000/svg" xmlns:xlink="http://www.w3.org/1999/xlink" x="0px" y="0px"
	 viewBox="0 0 200 200" style="enable-background:new 0 0 200 200;" xml:space="preserve">
<style type="text/css">
	.st0{fill:#FFFFFF;}
</style>
<path class="st0" d="M185.4,164.5h-14.2V87.7c0-30.2-19-56.1-45.6-66.4c-2.4-12-13-21.1-25.7-21.1S76.5,9.3,74.1,21.3
	C47.4,31.8,28.4,57.7,28.4,88v76.5H14.6c-3.9,0.2-7,3.5-6.8,7.5c0.2,3.7,3.1,6.6,6.8,6.8h53.7c5.1,12.4,17.3,21.1,31.5,21.1
	s26.4-8.7,31.5-21.1h54c3.9-0.2,7-3.5,6.8-7.5C192,167.6,189,164.7,185.4,164.5L185.4,164.5z M99.8,11.3c4.8,0,9.3,2.3,12.1,6.2
	c-4-0.7-8-1-12-1c-4.1,0-8.2,0.4-12.3,1.1C90.5,13.7,95,11.3,99.8,11.3z M42.7,88c0-7.6,1.5-15.2,4.5-22.2
	C53.1,52,64,41.1,77.8,35.2c14.1-6,30.1-6,44.3,0c13.7,5.8,24.6,16.7,30.4,30.4c3,7,4.5,14.5,4.5,22.1v76.7H42.7V88z M99.8,188.7
	c-7.5,0-14.6-3.7-18.9-9.9h37.8C114.4,184.9,107.4,188.7,99.8,188.7z"/>
</svg>
