<?xml version="1.0" encoding="iso-8859-1"?>
<!-- Generator: Adobe Illustrator 22.1.0, SVG Export Plug-In . SVG Version: 6.00 Build 0)  -->
<svg version="1.1" id="&#x56FE;&#x5C42;_1" xmlns="http://www.w3.org/2000/svg" xmlns:xlink="http://www.w3.org/1999/xlink" x="0px"
	 y="0px" viewBox="0 0 51.024 51.024" style="enable-background:new 0 0 51.024 51.024;" xml:space="preserve">
<path style="fill:#FFFFFF;" d="M37.004,19.877c-3.262-6.611-11.445-9.115-17.823-5.417c-5.795,3.349-8.038,10.717-5.067,16.687
	c3.262,6.611,11.445,9.115,17.823,5.417C37.732,33.244,39.975,25.876,37.004,19.877L37.004,19.877z M33.306,18.508
	c1.747,1.747-1.543,3-2.213,3c-0.233,0-0.437-0.087-0.553-0.204c-0.117-0.117-0.204-0.291-0.204-0.553
	C30.306,20.022,31.558,16.761,33.306,18.508L33.306,18.508z M24.598,15.246c2.446-0.379,1.543,3,1.107,3.553
	c-0.146,0.204-0.32,0.291-0.495,0.32c-0.146,0.029-0.379,0-0.582-0.146C24.103,18.595,22.181,15.654,24.598,15.246L24.598,15.246z
	 M19.793,28.526c-0.262,0.641-2.767,3.116-3.64,0.815c-0.874-2.301,2.621-2.126,3.262-1.806c0.233,0.117,0.349,0.262,0.408,0.408
	C19.88,28.089,19.88,28.293,19.793,28.526L19.793,28.526z M20.434,22.177c-0.087,0.146-0.233,0.262-0.466,0.35
	c-0.67,0.204-4.165-0.175-2.912-2.301c1.252-2.126,3.291,0.699,3.466,1.398C20.55,21.828,20.521,22.032,20.434,22.177L20.434,22.177
	z M22.589,35.69c-2.33-0.757,0-3.378,0.641-3.669c0.233-0.117,0.437-0.117,0.582-0.058c0.146,0.058,0.32,0.175,0.437,0.379
	C24.569,32.953,24.919,36.447,22.589,35.69L22.589,35.69z M29.928,27.536l-5.388,2.883c-1.223,0.641-2.679-0.262-2.621-1.631
	l0.204-6.116c0.058-1.369,1.573-2.184,2.738-1.456l5.184,3.233C31.18,25.177,31.122,26.895,29.928,27.536L29.928,27.536z
	 M31.529,34.496c-2.068,1.34-2.621-2.126-2.446-2.796c0.058-0.233,0.175-0.408,0.32-0.495c0.146-0.087,0.349-0.146,0.582-0.087
	C30.685,31.234,33.597,33.156,31.529,34.496L31.529,34.496z M36.422,27.128c-0.262,2.446-3.291,0.699-3.728,0.146
	c-0.146-0.204-0.204-0.408-0.175-0.553c0.029-0.146,0.116-0.35,0.291-0.524C33.335,25.759,36.655,24.682,36.422,27.128
	L36.422,27.128z M36.422,27.128"/>
</svg>
