<?xml version="1.0" encoding="UTF-8" standalone="no"?><!DOCTYPE svg PUBLIC "-//W3C//DTD SVG 1.1//EN" "http://www.w3.org/Graphics/SVG/1.1/DTD/svg11.dtd"><svg xmlns="http://www.w3.org/2000/svg" xmlns:xl="http://www.w3.org/1999/xlink" version="1.1" viewBox="0 0 75 75" width="75pt" height="75pt" xmlns:dc="http://purl.org/dc/elements/1.1/"><g stroke="none" stroke-opacity="1" stroke-dasharray="none" fill="none" fill-opacity="1"><path d="M 22.83308 49.84486 C 23.162446 49.36765 23.35844 48.811113 23.4008 48.23277 C 23.51984 46.40085 23.4008 42.8286 21.061236 40.854706 C 20.145555 39.938745 15.351965 37.50229 7.518314 41.89432 C 7.518314 41.89432 11.808279 48.02668 13.30084 49.469315 C 14.7934 50.911953 16.826211 52.299634 20.461465 51.20048 C 20.456887 51.18216 22.095956 50.852416 22.83308 49.84486 Z" fill="white"/><path d="M 42.570584 32.59274 C 44.06772 34.136135 48.4401 32.40497 49.47024 31.90119 C 50.46833 31.47527 62.67894 26.78097 52.36379 7.5 C 52.36379 7.5 33.816673 16.132929 40.991034 30.444813 C 41.36976 31.258595 41.90672 31.988774 42.570584 32.59274 Z" fill="white"/><path d="M 25.447348 35.63831 C 26.61468 35.56418 27.775666 35.41117 28.922358 35.18033 C 30.02977 34.94427 31.10549 34.57841 32.12724 34.090337 C 32.84543 33.751744 33.484848 33.266575 34.004388 32.666018 C 35.794544 30.834097 35.80828 26.32757 35.506105 24.055988 C 35.40121 22.949965 35.150267 21.862723 34.759824 20.822647 C 31.70603 13.79265 25.259634 13.627777 16.849103 11.076826 C 16.849103 11.076826 9.065815 8.631211 7.5 7.5 C 7.518314 7.5 9.271843 36.81532 25.447348 35.63831 Z" fill="white"/><path d="M 49.59386 62.709526 C 48.536246 62.938516 37.978443 65.081864 37.978443 58.798374 C 37.99162 57.01219 38.214435 55.233736 38.64231 53.49954 C 39.979206 48.84646 44.086036 44.825395 44.50267 44.42695 C 44.520905 44.38775 44.520905 44.3425 44.50267 44.3033 L 43.715185 38.766316 C 43.715185 38.734257 43.655666 38.67472 43.573254 38.743417 C 42.886494 39.56778 39.36112 43.59801 37.621328 41.25773 L 33.926555 36.916075 C 33.89438 36.873368 33.835322 36.861552 33.789203 36.888596 L 29.581648 38.990726 C 29.544496 39.020313 29.53305 39.07184 29.554178 39.11438 C 29.929607 39.975384 32.75906 46.6161 32.07688 50.23414 C 32.07688 50.23414 30.941435 55.56961 28.478253 59.32505 C 28.478253 59.32505 25.831934 64.17048 20.33327 63.657545 C 20.3058 63.657545 20.232545 63.657545 20.232545 63.72624 L 19.774704 67.5 C 19.774704 67.5 37.172644 67.47252 50.376765 67.47252 C 50.092903 65.70014 49.767837 63.23162 49.70832 62.77364 C 49.680847 62.718686 49.662533 62.69121 49.59386 62.709526 Z" fill="white"/><path d="M 55.04674 34.891802 C 54.3095 35.05452 53.60514 35.340994 52.963564 35.739066 C 51.498474 36.655026 50.64689 38.16636 49.969287 39.81967 C 49.891454 40.05782 48.72854 42.924777 49.287104 44.857454 C 49.744945 46.56572 53.17875 47.403824 53.760206 47.52748 C 54.524275 47.70269 55.30007 47.82208 56.08146 47.884703 C 56.33903 47.90352 56.597634 47.90352 56.85521 47.884703 C 59.217665 47.76105 64.386684 45.64976 67.5 35.560453 C 67.5 35.519235 63.57631 34.832265 63.25582 34.777307 C 60.53792 34.28269 57.749794 34.32158 55.04674 34.891802 Z" fill="white"/></g></svg>
