<?xml version="1.0" encoding="iso-8859-1"?>
<!-- Generator: Adobe Illustrator 22.1.0, SVG Export Plug-In . SVG Version: 6.00 Build 0)  -->
<svg version="1.1" id="&#x56FE;&#x5C42;_1" xmlns="http://www.w3.org/2000/svg" xmlns:xlink="http://www.w3.org/1999/xlink" x="0px"
	 y="0px" viewBox="0 0 51.024 51.024" style="enable-background:new 0 0 51.024 51.024;" xml:space="preserve">
<g>
	<path style="fill:#FFFFFF;" d="M23.948,16.703c-2.974,0-5.493,1.986-6.301,4.701c-2.788,0.762-4.843,3.316-4.843,6.342
		c0,3.625,2.949,6.574,6.574,6.574c0.004,0,0.009,0,0.013,0v0h11.131V23.277c0-1.725-0.669-3.297-1.76-4.472
		C27.56,17.513,25.847,16.703,23.948,16.703z M28.762,32.56h-4.913c0,0,0.001-0.001,0.001-0.001h-4.427
		c-0.015,0-0.031,0.001-0.046,0.001c-0.011,0-0.022-0.001-0.033-0.001H19.3v-0.001c-2.619-0.042-4.737-2.183-4.737-4.812
		c0-1.94,1.154-3.615,2.812-4.376c0.544-0.25,1.142-0.402,1.772-0.432c0.044-0.627,0.207-1.222,0.47-1.761
		c0.781-1.605,2.429-2.714,4.331-2.714c2.654,0,4.814,2.16,4.814,4.814v4.471V32.56z"/>
	<path style="fill:#FFFFFF;" d="M31.741,21.173v1.76c2.654,0,4.814,2.16,4.814,4.814c0,2.654-2.16,4.814-4.814,4.814v1.76
		c3.625,0,6.574-2.949,6.574-6.574C38.315,24.122,35.366,21.173,31.741,21.173z"/>
</g>
</svg>
