<?xml version="1.0" encoding="utf-8"?>
<!-- Generator: Adobe Illustrator 22.1.0, SVG Export Plug-In . SVG Version: 6.00 Build 0)  -->
<svg version="1.1" id="图层_1" xmlns="http://www.w3.org/2000/svg" xmlns:xlink="http://www.w3.org/1999/xlink" x="0px" y="0px"
	 viewBox="0 0 136.8 136.8" style="enable-background:new 0 0 136.8 136.8;" xml:space="preserve">
<style type="text/css">
	.st0{fill:#F4A23B;}
	.st1{fill:#54BCB5;}
	.st2{fill:#EA605D;}
</style>
<g>
	<path class="st0" d="M41.2,118.4c-1.7-0.3-3.3-0.6-4.9-1.1c3.4,11.8,11.8,19.4,23.6,19.4c12.2,0,19.8-7.4,23.2-18.3
		c-2.1,0.4-4.4,0.7-6.8,0.8C66.4,119.7,51.7,120.1,41.2,118.4z"/>
	<path class="st0" d="M95.2,66.1c15.7-0.1,25.2-11.3,25.2-24c0-13-9-23.7-28-24.7c-7.2-0.4-17.3-0.6-26.2-0.1c0.9,2.7,1.6,5.6,2,8.7
		C69.9,39.4,71,52.4,71,62.8c0,1.3,1.6,7.7,7.9,7.8c3.3,0.1,6.4,0.5,9.1,1.4C88.8,69.6,90.6,66.1,95.2,66.1z"/>
	<path class="st1" d="M32.9,68.6c0.9-34,6.2-47.5,24.6-50.4c2.7-0.4,5.7-0.7,8.9-0.9C62.9,6.9,55.4,0,43.6,0
		c-14.2,0-22.9,10.7-25,27c-2.2,14.8-2.5,25.2-2.1,41.2c0.8,30.8,5.3,44.6,19.8,49.1c-0.7-2.4-0.9-4.4-1.3-7.4
		C33.9,96.9,32.5,84.6,32.9,68.6z"/>
	<path class="st1" d="M84.8,110.7c-0.4,2.7-0.9,5.3-1.7,7.8c14.4-2.9,21.3-12.5,21.3-23.9c0-10.1-6-19.3-16.4-22.6
		c-0.3,0.9-0.4,1.6-0.4,1.9C87.6,84.3,86.5,96.8,84.8,110.7z"/>
	<path class="st2" d="M71.2,62.8c0-10.4-1.1-23.4-2.8-36.8c-0.4-3.1-1.1-6-2-8.7c-3.2,0.2-6.2,0.5-8.9,0.9
		c-18.4,2.9-23.7,16.4-24.6,50.4c-0.4,15.2,0.8,28.2,2.1,41.2c0.3,2.7,0.6,5.2,1.3,7.6c1.5,0.5,3.2,0.8,5,1.1
		c10.2,1.6,25.3,1.3,35.1,0.8c2.4-0.1,4.6-0.4,6.7-0.8c0.8-2.4,1.3-5,1.7-7.8c1.7-13.4,2.8-26.4,2.8-36.8c0-0.3,0.1-1,0.4-1.9
		c-2.7-0.9-5.6-1.3-8.8-1.4C72.8,70.6,71.2,64.1,71.2,62.8z"/>
</g>
</svg>
