<?xml version="1.0" encoding="UTF-8" standalone="no"?><!DOCTYPE svg PUBLIC "-//W3C//DTD SVG 1.1//EN" "http://www.w3.org/Graphics/SVG/1.1/DTD/svg11.dtd"><svg xmlns="http://www.w3.org/2000/svg" xmlns:xl="http://www.w3.org/1999/xlink" version="1.1" viewBox="0 0 75 75" width="75pt" height="75pt" xmlns:dc="http://purl.org/dc/elements/1.1/"><g stroke="none" stroke-opacity="1" stroke-dasharray="none" fill="none" fill-opacity="1"><path d="M 62.89714 32.654547 C 37.702403 19.076418 35.196463 61.42877 17.711839 55.239244 C 4.2390457 50.417205 13.281127 33.88731 25.649764 36.316086 C 21.469524 18.336026 42.61385 13.48092 48.852976 26.552595 L 54.95921 25.940195 C 51.17703 17.720565 46.60241 12.834839 34.19825 13.122054 C 28.26716 14.346854 19.344497 19.162154 18.932964 30.21291 C 9.327475 30.969835 -.42988936 43.66672 8.552177 55.849806 C 15.156907 64.80677 31.372026 62.69031 35.419376 52.797606 C 42.16986 55.407654 47.33729 64.14354 58.62259 61.34303 C 70.49335 58.39739 74.89528 39.1221 62.89714 32.654547 Z M 40.30449 49.13545 L 39.69209 47.914327 C 48.55045 33.617852 55.085367 34.73242 59.84004 37.537824 C 70.53683 45.89647 61.75134 65.50123 40.30449 49.13545 Z" fill="white"/></g></svg>
