<?xml version="1.0" encoding="iso-8859-1"?>
<!-- Generator: Adobe Illustrator 22.1.0, SVG Export Plug-In . SVG Version: 6.00 Build 0)  -->
<svg version="1.1" id="&#x56FE;&#x5C42;_1" xmlns="http://www.w3.org/2000/svg" xmlns:xlink="http://www.w3.org/1999/xlink" x="0px"
	 y="0px" viewBox="0 0 51.024 51.024" style="enable-background:new 0 0 51.024 51.024;" xml:space="preserve">
<g>
	<path style="fill:#FFFFFF;" d="M34.14,12.755h-17.26c-2.278,0-4.125,1.847-4.125,4.125v13.042c0,2.278,1.847,4.125,4.125,4.125
		h4.187c0.489,0,0.885-0.396,0.885-0.885c0-0.489-0.396-0.886-0.885-0.886h-4.187c-1.3,0-2.354-1.054-2.354-2.354V16.88
		c0-1.3,1.054-2.354,2.354-2.354h17.26c1.296,0,2.357,1.061,2.357,2.357l-0.002,13.04c0,1.3-1.054,2.353-2.354,2.353h-5.128
		c-0.121,0-0.237,0.048-0.323,0.133l-4.398,4.344c-0.348,0.344-0.351,0.904-0.008,1.252c0.173,0.175,0.401,0.263,0.63,0.263
		c0.225,0,0.45-0.085,0.622-0.255l3.88-3.833c0.086-0.085,0.202-0.133,0.323-0.133h4.401c2.278,0,4.124-1.846,4.125-4.124
		l0.002-13.04C38.268,14.613,36.411,12.755,34.14,12.755z"/>
	<path style="fill:#FFFFFF;" d="M32.718,23.177c0-0.816-0.661-1.477-1.477-1.477c-0.816,0-1.477,0.662-1.477,1.477
		s0.661,1.477,1.477,1.477C32.056,24.654,32.718,23.993,32.718,23.177z"/>
	<path style="fill:#FFFFFF;" d="M18.579,23.177c0,0.816,0.661,1.477,1.477,1.477c0.816,0,1.477-0.661,1.477-1.477
		S20.872,21.7,20.056,21.7C19.24,21.7,18.579,22.361,18.579,23.177z"/>
	<path style="fill:#FFFFFF;" d="M25.648,24.654c0.816,0,1.477-0.661,1.477-1.477S26.464,21.7,25.648,21.7s-1.477,0.662-1.477,1.477
		S24.832,24.654,25.648,24.654z"/>
</g>
</svg>
