<svg xmlns="http://www.w3.org/2000/svg" viewBox="0 0 156.95 148.25"><defs><style>.cls-1{fill:#fff;}</style></defs><title>di9DDc</title><g id="图层_2" data-name="图层 2"><g id="mudu"><g id="di9DDc"><path class="cls-1" d="M141.24,53.43C104.58,36.3,68,19,31.15,2.3,16.12-4.51.85,4.43.87,21c0,29.81.64,59.62-.79,89.41,0,5.16-.2,10.33,0,15.49.87,18.48,16,27.43,32.6,19.45,5-2.37,10-4.66,14.93-7q46.61-21.74,93.24-43.46c6.52-3,12.28-6.85,14.79-14C159.62,69.68,154.32,59.54,141.24,53.43ZM119.1,77.24Q75.53,97.9,31.88,118.44c-4.86,2.28-5.95,1.63-6-3.71-.09-13.5,0-27,0-40.5,0-13.33-.06-26.67,0-40,0-5.79.95-6.44,6.07-4.06q43.76,20.28,87.42,40.75c1.44.67,3.6,1.14,3.64,3C123.07,76.17,120.66,76.51,119.1,77.24Z"/></g></g></g></svg>