<?xml version="1.0" encoding="UTF-8"?><svg width="128px" height="128px" viewBox="0 0 128 128" version="1.1" xmlns="http://www.w3.org/2000/svg" xmlns:xlink="http://www.w3.org/1999/xlink"><g id="tool" stroke="none" stroke-width="1" fill="none" fill-rule="evenodd"><g><rect id="矩形" fill="#D8D8D8" opacity="0" x="0" y="0" width="128" height="128"></rect><path d="M111.713375,45.8812261 C111.100846,42.5862069 106.889714,41.3601533 104.516166,43.7356322 L84.3792944,63.8122605 C81.5463505,66.6475096 76.8758214,66.6475096 73.9663114,63.8122605 L63.6298944,53.467433 C60.7203845,50.5555556 60.7203845,45.9578544 63.6298944,43.1226054 L83.9198981,22.8927203 C86.2934457,20.5172414 85.144955,16.302682 81.8526147,15.6896552 C69.9848767,13.3908046 57.2749122,16.8390805 48.086986,26.0344828 C37.9037011,36.0727969 34.764493,50.5555556 38.6693616,63.4291188 C39.28189,65.4980843 38.8990598,67.7969349 37.3677387,69.3295019 L15.1747559,91.4726193 C13.6630312,92.9809472 13.6099786,95.3978533 15.0175701,96.9699272 L15.1808748,97.1419244 L15.1808748,97.1419244 L30.3313622,112.193248 C31.8937075,113.745368 34.4167814,113.742633 35.975758,112.18713 L58.3468369,89.8659004 C59.8781579,88.3333333 62.0985734,87.8735632 64.2424229,88.48659 C77.0289535,92.2413793 91.3468051,89.0996169 101.453524,78.9846743 C110.411752,70.0191571 113.857224,57.5287356 111.713375,45.8812261 Z" id="路径" fill="#0C2A4C" fill-rule="nonzero"></path></g></g></svg>
