<?xml version="1.0" encoding="iso-8859-1"?>
<!-- Generator: Adobe Illustrator 22.1.0, SVG Export Plug-In . SVG Version: 6.00 Build 0)  -->
<svg version="1.1" id="&#x56FE;&#x5C42;_1" xmlns="http://www.w3.org/2000/svg" xmlns:xlink="http://www.w3.org/1999/xlink" x="0px"
	 y="0px" viewBox="0 0 51.024 51.024" style="enable-background:new 0 0 51.024 51.024;" xml:space="preserve">
<g>
	<path style="fill:#FFFFFF;" d="M38.159,22.67c-0.095,1.714-0.615,3.257-1.849,4.505c-0.048,0.049-0.147,0.118-0.165,0.114
		c-0.097-0.019-0.091-0.13-0.102-0.217c-0.179-1.423-0.695-2.722-1.445-3.936c-0.16-0.259-0.158-0.506,0.083-0.717
		c0.081-0.071,0.173-0.135,0.27-0.184c0.761-0.386,1.522-0.771,2.286-1.15c0.454-0.226,0.713-0.101,0.821,0.39
		c0.042,0.189,0.082,0.381,0.098,0.573C38.172,22.254,38.159,22.462,38.159,22.67z"/>
	<path style="fill:#FFFFFF;" d="M38.315,25.076c-0.08,0.149-0.377,0.981-0.449,1.134c-1.714,3.65-6.31,4.617-9.394,2.301
		c-1.693-1.272-2.425-3.034-2.483-5.101c-0.033-1.158-0.005-2.319-0.004-3.478c0.001-1.003-0.065-1.998-0.387-2.959
		c-0.365-1.088-1.042-1.877-2.145-2.279c-0.424-0.155-1.307-0.349-2.093-0.349c-0.428,0-0.895,0.052-0.94,0.06
		c-2.389,0.411-4.205,1.72-5.631,3.62c-1.735,2.311-2.28,4.924-1.839,7.745c0.588,3.762,2.46,6.738,5.644,8.837
		c2.476,1.633,5.221,2.261,8.178,2.025c1.726-0.138,3.351-0.6,4.875-1.404c2.48-1.308,4.344-3.229,5.568-5.753
		c0.522-1.076,0.906-2.205,1.06-3.401C38.317,25.849,38.315,25.076,38.315,25.076z M22.129,21.877
		c-0.596,0.004-1.122-0.521-1.12-1.119c0.001-0.583,0.545-1.114,1.138-1.109c0.565,0.004,1.092,0.538,1.094,1.106
		C23.243,21.364,22.738,21.874,22.129,21.877z"/>
</g>
</svg>
