<?xml version="1.0" standalone="no"?><!DOCTYPE svg PUBLIC "-//W3C//DTD SVG 1.1//EN" "http://www.w3.org/Graphics/SVG/1.1/DTD/svg11.dtd"><svg t="1507623572666" class="icon" style="" viewBox="0 0 1024 1024" version="1.1" xmlns="http://www.w3.org/2000/svg" p-id="2510" xmlns:xlink="http://www.w3.org/1999/xlink" width="32" height="32"><defs><style type="text/css"></style></defs><path d="M557.714715 769.426746l256.68229-256.733455c13.235456-13.235456 30.822013-20.510147 49.533186-20.510147 18.722429 0 36.288521 7.274691 49.534209 20.510147l23.324241 23.335498c27.29365 27.304907 27.29365 71.763512 0 99.067395l-256.701733 256.752898-196.18539 73.038553L557.714715 769.426746 557.714715 769.426746zM554.508694 894.300926l102.967219-38.358671 2.763953-2.784419-64.196155-64.185922-2.814095 2.843771L554.508694 894.300926 554.508694 894.300926zM689.331467 824.075445l168.669683-168.699359-64.205365-64.215598-168.649216 168.708568L689.331467 824.075445 689.331467 824.075445zM887.084564 626.282439l20.742437-20.721971c11.265589-11.285032 11.265589-29.625767 0.020466-40.90159l-23.304799-23.324241c-5.47674-5.447064-12.731988-8.452518-20.470238-8.452518-7.717783 0-14.993497 3.005453-20.440562 8.452518l-20.721971 20.751647L887.084564 626.282439 887.084564 626.282439zM957.24967 939.683578c-0.050142-1.727343-0.291643-3.476175-0.884137-6.079468l-1.265831-9.295723c-9.849332-71.993756-34.027012-138.902699-69.762946-197.159579l-36.700913 35.656117c28.731397 49.10135 48.72989 104.503203 57.442328 163.393511l0.924046 6.28106 1.035587 0.110517 0 7.677874c0 13.567007 11.054788 24.620772 24.631005 24.620772 13.436024 0 24.369038-10.792821 24.591096-24.841806L957.24967 939.683578 957.24967 939.683578zM719.068774 565.966665c-9.345865-5.246496-18.843179-10.251492-28.600414-14.844095l-10.732446-5.044905 8.993847-7.717783c60.648349-52.005496 95.448981-127.37719 95.448981-206.797086 0-150.237873-122.241211-272.449408-272.459641-272.449408-150.238896 0-272.469874 122.211535-272.469874 272.449408 0 79.419897 34.791422 154.79159 95.439771 206.797086l9.00408 7.717783-10.713003 5.044905c-142.902807 67.221051-241.828986 206.746944-264.641574 373.185817l-1.598406 11.717891 0 4.241608c0 13.567007 11.065021 24.620772 24.620772 24.620772 13.587473 0 24.661704-11.053765 24.661704-24.590073l-0.340761-2.915402 1.657758-11.184748c23.998601-162.046838 132.552054-298.195817 276.580499-346.876589l2.87447-0.984422 2.763953 1.256621c35.635651 16.199977 73.360895 15.958476 112.161635 15.958476 38.780274 0 76.515751 0.241501 112.141168-15.958476l2.774186-1.256621 2.87447 0.984422c19.354833 6.532793 37.987211 14.763253 55.924763 24.309686L719.068774 565.966665 719.068774 565.966665zM623.769196 531.215151c-19.002815 10.542111-43.38311 14.309928-64.718042 18.93323-15.827493 3.427056-31.74606 5.135979-47.332052 5.135979-15.606458 0-31.525026-1.708923-47.312609-5.135979-21.304233-4.592603-41.775494-12.310386-60.809008-22.882173-71.31121-39.524218-115.5979-114.513195-115.5979-195.702389 0-123.346382 100.352669-223.709285 223.720541-223.709285 123.346382 0 223.700075 100.362902 223.700075 223.709285C735.419177 412.751991 695.080407 491.670467 623.769196 531.215151L623.769196 531.215151zM623.769196 531.215151" p-id="2511" fill="#fff"></path></svg>