<?xml version="1.0" encoding="iso-8859-1"?>
<!-- Generator: Adobe Illustrator 22.1.0, SVG Export Plug-In . SVG Version: 6.00 Build 0)  -->
<svg version="1.1" id="&#x56FE;&#x5C42;_1" xmlns="http://www.w3.org/2000/svg" xmlns:xlink="http://www.w3.org/1999/xlink" x="0px"
	 y="0px" viewBox="0 0 51.024 51.024" style="enable-background:new 0 0 51.024 51.024;" xml:space="preserve">
<g>
	<path style="fill:#FFFFFF;" d="M24.006,21.516c-0.872-0.007-1.536-0.699-1.532-1.596c0.004-0.847,0.722-1.514,1.619-1.504
		c0.809,0.009,1.494,0.721,1.488,1.547C25.575,20.842,24.884,21.523,24.006,21.516z"/>
	<path style="fill:#FFFFFF;" d="M37.788,22.466c-0.738-2.057-2.06-3.644-3.933-4.752c-1.831-1.083-3.823-1.417-5.926-1.146
		c-1.265,0.163-1.723,1.376-1.281,2.256c0.334,0.665,0.94,0.93,1.838,0.815c0.905-0.116,1.783-0.036,2.655,0.241
		c3.477,1.102,5.127,5.251,3.352,8.453c-1.379,2.488-4.208,3.65-6.943,2.833c-2.266-0.677-3.972-2.744-4.151-5.122
		c-0.077-1.02-0.196-2.027-0.656-2.963c-1.514-3.082-5.708-3.848-8.314-1.375c-1.359,1.29-1.857,2.947-1.529,4.803
		c0.653,3.701,5.082,5.507,8.173,3.341c0.179-0.126,0.248-0.109,0.355,0.075c1.236,2.136,3.024,3.576,5.408,4.253
		c2.354,0.669,4.629,0.431,6.754-0.756c3.082-1.721,4.6-4.417,4.724-7.917C38.331,24.452,38.138,23.444,37.788,22.466z
		 M18.106,27.692c-1.209,0.011-2.186-0.974-2.191-2.207c-0.004-1.169,0.957-2.118,2.156-2.128c1.218-0.037,2.146,0.934,2.181,2.117
		C20.287,26.673,19.298,27.681,18.106,27.692z"/>
</g>
</svg>
