<?xml version="1.0" encoding="iso-8859-1"?>
<!-- Generator: Adobe Illustrator 22.1.0, SVG Export Plug-In . SVG Version: 6.00 Build 0)  -->
<svg version="1.1" id="&#x56FE;&#x5C42;_1" xmlns="http://www.w3.org/2000/svg" xmlns:xlink="http://www.w3.org/1999/xlink" x="0px"
	 y="0px" viewBox="12.5 16.5 26 18" style="enable-background:new 0 0 51.024 51.024;" xml:space="preserve">
<g>
	<path style="fill:#FFFFFF;" d="M32.818,19.004c-0.795,0-1.551,0.167-2.228,0.471c-0.785-1.394-2.248-2.336-3.936-2.336
		c-1.266,0-2.415,0.54-3.239,1.394c-0.903-1.188-2.336-1.953-3.946-1.953c-2.729,0-4.957,2.218-4.947,4.937
		c0,0.707,0.147,1.374,0.412,1.973c-1.276,0.746-2.13,2.14-2.13,3.73c0,2.385,1.904,4.309,4.26,4.309
		c0.295,0,0.589-0.029,0.874-0.088c0.648,1.757,2.336,3.004,4.309,3.004c1.894,0,3.524-1.158,4.221-2.798
		c0.53,0.255,1.129,0.402,1.757,0.402c1.512,0,2.827-0.834,3.514-2.061c0.344,0.069,0.707,0.108,1.08,0.108
		c3.033,0,5.497-2.483,5.497-5.546C38.315,21.487,35.861,19.004,32.818,19.004z"/>
</g>
</svg>
