<?xml version="1.0" encoding="iso-8859-1"?>
<!-- Generator: Adobe Illustrator 22.1.0, SVG Export Plug-In . SVG Version: 6.00 Build 0)  -->
<svg version="1.1" id="&#x56FE;&#x5C42;_1" xmlns="http://www.w3.org/2000/svg" xmlns:xlink="http://www.w3.org/1999/xlink" x="0px"
	 y="0px" viewBox="0 0 51.024 51.024" style="enable-background:new 0 0 51.024 51.024;" xml:space="preserve">
<g>
	<path style="fill:#FFFFFF;" d="M12.803,18.461v14.101h17.11l8.402-14.101H12.803z M29.085,26.723h-0.727v2.257h-3.481l-0.344-1.084
		c-0.37,0.115-0.778,0.178-1.211,0.178c-0.446,0-0.88-0.064-1.25-0.191l-0.357,1.084h-2.116l0.23-0.637l-0.089,0.064
		c-0.535,0.421-1.186,0.65-2.002,0.676H17.61c-0.931,0-1.861-0.255-2.639-0.701l0.727-1.415c0.778,0.459,1.262,0.561,1.925,0.548
		c0.344,0,0.587-0.064,0.752-0.242c0.102-0.102,0.14-0.23,0.153-0.357c0-0.37-0.523-0.548-1.16-0.74
		c-0.523-0.166-1.122-0.383-1.581-0.727c-0.548-0.408-0.816-0.918-0.803-1.632c0.013-0.523,0.204-0.982,0.561-1.364
		c0.51-0.535,1.339-0.854,2.333-0.854c0.854,0,1.887,0.242,2.639,0.625l-0.816,1.402c-0.829-0.395-1.237-0.433-1.696-0.459
		c-0.701-0.038-1.045,0.217-1.058,0.484c0,0.331,0.663,0.625,1.288,0.829c0.956,0.306,2.155,0.701,2.346,1.874l1.747-4.641h2.014
		l2.04,5.546v-5.533h2.333c2.231,0,3.277,0.79,3.277,2.524C31.979,25.792,30.895,26.723,29.085,26.723L29.085,26.723z
		 M29.085,26.723"/>
	<path style="fill:#FFFFFF;" d="M28.868,23.064h-0.485v1.912h0.485c0.676,0,1.224-0.242,1.224-0.969
		C30.092,23.306,29.543,23.064,28.868,23.064L28.868,23.064z M23.334,23.854l-0.739,2.32c0.217,0.089,0.472,0.127,0.752,0.127
		c0.268,0,0.51-0.038,0.727-0.115L23.334,23.854z M23.334,23.854"/>
</g>

</svg>
