<?xml version="1.0" encoding="iso-8859-1"?>
<!-- Generator: Adobe Illustrator 22.1.0, SVG Export Plug-In . SVG Version: 6.00 Build 0)  -->
<svg version="1.1" id="&#x56FE;&#x5C42;_1" xmlns="http://www.w3.org/2000/svg" xmlns:xlink="http://www.w3.org/1999/xlink" x="0px"
	 y="0px" viewBox="0 0 51.024 51.024" style="enable-background:new 0 0 51.024 51.024;" xml:space="preserve">
<g>
	<path style="fill:#FFFFFF;" d="M32.652,12.805H18.486c-0.915,0-1.657-0.742-1.657-1.657s0.742-1.657,1.657-1.657h14.167
		c0.915,0,1.657,0.742,1.657,1.657S33.568,12.805,32.652,12.805z"/>
</g>
<g>
	<path style="fill:#FFFFFF;" d="M32.652,41.533H18.486c-0.915,0-1.657-0.742-1.657-1.657c0-0.915,0.742-1.657,1.657-1.657h14.167
		c0.915,0,1.657,0.742,1.657,1.657C34.31,40.791,33.568,41.533,32.652,41.533z"/>
</g>
<g>
	<path style="fill:#FFFFFF;" d="M24.07,17.593h-9.609c-0.915,0-1.657-0.742-1.657-1.657s0.742-1.657,1.657-1.657h9.609
		c0.915,0,1.657,0.742,1.657,1.657S24.985,17.593,24.07,17.593z"/>
</g>
<g>
	<path style="fill:#FFFFFF;" d="M36.421,36.745h-9.609c-0.915,0-1.657-0.742-1.657-1.657c0-0.915,0.742-1.657,1.657-1.657h9.609
		c0.915,0,1.657,0.742,1.657,1.657C38.078,36.003,37.336,36.745,36.421,36.745z"/>
</g>
<g>
	<path style="fill:#FFFFFF;" d="M20.794,22.381h-6.334c-0.915,0-1.657-0.742-1.657-1.657s0.742-1.657,1.657-1.657h6.334
		c0.915,0,1.657,0.742,1.657,1.657S21.71,22.381,20.794,22.381z"/>
</g>
<g>
	<path style="fill:#FFFFFF;" d="M28.775,27.169h-6.334c-0.915,0-1.657-0.742-1.657-1.657s0.742-1.657,1.657-1.657h6.334
		c0.915,0,1.657,0.742,1.657,1.657S29.691,27.169,28.775,27.169z"/>
</g>
<g>
	<path style="fill:#FFFFFF;" d="M36.613,31.957H30.28c-0.915,0-1.657-0.742-1.657-1.657s0.742-1.657,1.657-1.657h6.334
		c0.915,0,1.657,0.742,1.657,1.657S37.529,31.957,36.613,31.957z"/>
</g>
<g>
	<circle style="fill:#FFFFFF;" cx="36.678" cy="15.936" r="1.638"/>
</g>
<g>
	<circle style="fill:#FFFFFF;" cx="14.461" cy="35.088" r="1.638"/>
</g>
</svg>
