<?xml version="1.0" encoding="UTF-8"?><svg width="128px" height="128px" viewBox="0 0 128 128" version="1.1" xmlns="http://www.w3.org/2000/svg" xmlns:xlink="http://www.w3.org/1999/xlink"><g id="setting" stroke="none" stroke-width="1" fill="none" fill-rule="evenodd"><g><rect id="矩形" stroke="#6A6C8A" fill="#6A6C8A" opacity="0" x="0.5" y="0.5" width="127" height="127"></rect><path d="M76.0339889,8 C78.2431279,8 80.0339889,9.790861 80.0339889,12 L80.0339219,22.9994964 C84.2153431,24.6324562 88.0857055,26.8866115 91.5315577,29.648511 L101.06731,24.1435935 C102.98048,23.039024 105.426842,23.6945247 106.531412,25.6076952 L118.531412,46.3923048 C119.635981,48.3054753 118.98048,50.751837 117.06731,51.8564065 L107.536158,57.3593855 C107.864012,59.5251557 108.033989,61.7427277 108.033989,64 C108.033989,66.2572723 107.864012,68.4748443 107.536158,70.6406145 L117.06731,76.1435935 C118.98048,77.248163 119.635981,79.6945247 118.531412,81.6076952 L106.531412,102.392305 C105.426842,104.305475 102.98048,104.960976 101.06731,103.856406 L91.5315577,98.351489 C88.0857055,101.113388 84.2153431,103.367544 80.0339219,105.000504 L80.0339889,116 C80.0339889,118.209139 78.2431279,120 76.0339889,120 L52.0339889,120 C49.8248499,120 48.0339889,118.209139 48.0339889,116 L48.0330536,105.000112 C43.8520162,103.367184 39.981997,101.113168 36.5364201,98.351489 L27.0006679,103.856406 C25.0874974,104.960976 22.6411358,104.305475 21.5365663,102.392305 L9.53656629,81.6076952 C8.43199679,79.6945247 9.08749741,77.248163 11.0006679,76.1435935 L20.5318195,70.6406145 C20.2039662,68.4748443 20.0339889,66.2572723 20.0339889,64 C20.0339889,61.7427277 20.2039662,59.5251557 20.5318195,57.3593855 L11.0006679,51.8564065 C9.08749741,50.751837 8.43199679,48.3054753 9.53656629,46.3923048 L21.5365663,25.6076952 C22.6411358,23.6945247 25.0874974,23.039024 27.0006679,24.1435935 L36.5364201,29.648511 C39.981997,26.8868322 43.8520162,24.6328165 48.0330536,22.9998878 L48.0339889,12 C48.0339889,9.790861 49.8248499,8 52.0339889,8 L76.0339889,8 Z M70.5329889,17.5 L57.5329889,17.5 L57.5325019,29.488655 L51.4891028,31.8489399 C48.4560258,33.0335259 45.6079878,34.6453562 43.0268504,36.6302593 L42.4778646,37.0612862 L37.410761,41.1226417 L27.0129889,35.12 L20.5129889,46.379 L30.8948965,52.3729535 L29.9248054,58.7812912 C29.6653477,60.4952465 29.5339889,62.2376643 29.5339889,64 C29.5339889,65.5105735 29.6304974,67.0065133 29.8214615,68.4824388 L29.9248054,69.2187088 L30.8948965,75.6270465 L20.5129889,81.62 L27.0129889,92.879 L37.410761,86.8773583 L42.4778646,90.9387138 C45.0204557,92.9766366 47.8357946,94.645356 50.8420198,95.8907005 L51.4891028,96.1510601 L57.5325019,98.511345 L57.5339889,110.5 L70.5329889,110.5 L70.5338824,98.5117958 L76.5780907,96.1513664 C79.6114427,94.9667591 82.4597338,93.3548341 85.0410827,91.3697751 L85.5901132,90.9387138 L90.6572168,86.8773583 L101.053989,92.879 L107.553989,81.62 L97.1730813,75.6270465 L98.1431724,69.2187088 C98.4026301,67.5047535 98.5339889,65.7623357 98.5339889,64 C98.5339889,62.4894265 98.4374804,60.9934867 98.2465163,59.5175612 L98.1431724,58.7812912 L97.1730813,52.3729535 L107.553989,46.379 L101.053989,35.12 L90.6572168,41.1226417 L85.5901132,37.0612862 C83.0473166,35.0231987 80.2317292,33.3543751 77.2252323,32.1089989 L76.5780907,31.8486336 L70.5338824,29.4882042 L70.5329889,17.5 Z M64.0339889,40 C77.2888229,40 88.0339889,50.745166 88.0339889,64 C88.0339889,77.254834 77.2888229,88 64.0339889,88 C50.7791549,88 40.0339889,77.254834 40.0339889,64 C40.0339889,50.745166 50.7791549,40 64.0339889,40 Z M64.0339889,49.5 C56.02586,49.5 49.5339889,55.9918711 49.5339889,64 C49.5339889,72.0081289 56.02586,78.5 64.0339889,78.5 C72.0421178,78.5 78.5339889,72.0081289 78.5339889,64 C78.5339889,55.9918711 72.0421178,49.5 64.0339889,49.5 Z" id="形状结合" fill="#6A6C8A" fill-rule="nonzero"></path></g></g></svg>
