<?xml version="1.0" encoding="utf-8"?>
<!-- Generator: Adobe Illustrator 22.1.0, SVG Export Plug-In . SVG Version: 6.00 Build 0)  -->
<svg version="1.1" id="图层_1" xmlns="http://www.w3.org/2000/svg" xmlns:xlink="http://www.w3.org/1999/xlink" x="0px" y="0px"
	 viewBox="0 0 20 20" style="enable-background:new 0 0 20 20;" xml:space="preserve">
<style type="text/css">
	.st0{fill:#FFFFFF;}
</style>
<path class="st0" d="M13.3,12.4c0.5-1.1,1.1-2.1,1.6-3.2c0.3-0.7,0.5-1.4,0.7-2.1c0.2-0.5-0.1-0.8-0.6-0.8c-1.1,0-2.1,0-3.2,0
	c-0.2,0-0.4,0.1-0.5,0.3c-0.3,0.4-0.5,0.9-0.8,1.4c-0.2,0.4-0.3,0.4-0.7,0.1C9.5,7.7,9,7.3,8.6,7C8.3,6.8,8.4,6.7,8.5,6.4
	c0.6-1,1.1-2,1.3-3.2c0.2-0.8,0.1-0.8,0.9-0.8c0.4,0,0.9,0,1.3,0c0.3,0,0.4,0.1,0.4,0.4c-0.1,0.7-0.2,1.4-0.4,2
	c-0.1,0.4,0,0.5,0.4,0.5c1.8,0,3.7,0,5.5,0c0.7,0,0.9,0.2,0.8,0.9c-0.2,0-0.5,0-0.7,0c-0.3,0-0.5,0.2-0.5,0.5
	c-0.4,2.5-1.1,5-2.4,7.2c0,0.1-0.1,0.1-0.1,0.2c1,0.9,2.1,1.9,3.3,2.5c0.5,0.2,0.5,0.3,0.3,0.7c-0.4,0.8-0.8,1.5-1.1,2.3
	C17.3,20,17.2,20,17,19.8c-1.1-1-2.2-2-3.3-3.1c-0.3-0.2-0.4-0.3-0.6,0C12,18,10.7,19,9.4,19.8C9.1,20,9,20,8.9,19.7
	c-0.3-0.7-0.7-1.5-1-2.2c-0.1-0.3,0-0.4,0.2-0.5c1.3-0.6,2.4-1.4,3.4-2.4c0.2-0.2,0.2-0.3,0-0.5c-0.8-1.1-1.5-2.3-2.3-3.4
	c-0.2-0.3-0.1-0.4,0.1-0.6C9.5,9.8,9.8,9.6,10,9.4c0.2-0.2,0.4-0.2,0.6,0c0.8,0.9,1.6,1.8,2.4,2.8c0.1,0.1,0.1,0.1,0.1,0.2
	C13.1,12.4,13.2,12.4,13.3,12.4z"/>
<path class="st0" d="M6.7,2.5c0,0.3,0,0.4,0,0.6c0,5.4,0,10.9,0,16.3c0,0.4-0.1,0.6-0.5,0.5c-0.7,0-1.4,0-2.1,0
	c-0.5,0-0.4,0-0.4-0.5c0.2-1,0.3-2,0.5-3C4.2,16,4,15.9,3.5,15.9c-1,0-2,0-3,0c-0.6,0-0.6,0-0.5-0.6c0.3-2.1,0.4-4.2,0.3-6.3
	c0-1-0.1-1.9-0.2-2.9c0-0.3,0-0.4,0.3-0.5C1,5.3,1.4,5.1,1.9,4.9c0.3-0.2,0.5-0.1,0.5,0.3c0.1,2.2,0.1,4.5,0.1,6.7
	c0,0.9-0.1,1.8-0.1,2.6c0,0.3,0.1,0.4,0.3,0.4c0.4,0,0.7,0,1.1,0c0.5,0,0.6-0.1,0.6-0.6c0-0.8,0.1-1.5,0.1-2.3
	c0-1.9-0.1-3.8-0.2-5.6c0-0.6-0.1-1.3-0.2-1.9c0-0.3,0-0.5,0.3-0.7C5,3.4,5.6,3.1,6.2,2.7C6.3,2.6,6.5,2.6,6.7,2.5z"/>
<path class="st0" d="M16.4,1.8c0.3-0.1,0.6-0.2,1-0.2c0.3-0.1,0.5-0.2,0.5-0.5C18,0.7,18.1,0.4,18.3,0c0.1,0.3,0.2,0.7,0.3,1
	c0.1,0.4,0.3,0.6,0.7,0.6c0.2,0,0.5,0.1,0.8,0.3c-0.2,0-0.4,0.1-0.5,0.1c-0.5,0.1-0.9,0.2-0.9,0.8c0,0.2-0.1,0.5-0.2,0.8
	C18.2,3.3,18,3,18,2.7c-0.1-0.4-0.3-0.5-0.6-0.6c-0.3,0-0.6-0.1-0.9-0.2C16.4,1.9,16.4,1.9,16.4,1.8z"/>
</svg>
