<?xml version="1.0" standalone="no"?><!DOCTYPE svg PUBLIC "-//W3C//DTD SVG 1.1//EN" "http://www.w3.org/Graphics/SVG/1.1/DTD/svg11.dtd"><svg t="1482200271620" class="icon" style="" viewBox="0 0 1095 1024" version="1.1" xmlns="http://www.w3.org/2000/svg" p-id="24081" xmlns:xlink="http://www.w3.org/1999/xlink" width="213.8671875" height="200"><defs><style type="text/css"></style></defs><path d="M273.513036 354.647943c-37.76668 0-68.40014 31.771274-68.40014 70.938341 0 39.167067 30.63346 70.938341 68.40014 70.938341 37.76668 0 68.356378-31.771274 68.356378-70.938341C341.869414 386.375455 311.279716 354.647943 273.513036 354.647943L273.513036 354.647943zM547.026072 354.647943c-37.76668 0-68.40014 31.771274-68.40014 70.938341 0 39.167067 30.63346 70.938341 68.40014 70.938341 37.76668 0 68.356378-31.771274 68.356378-70.938341C615.382449 386.375455 584.792751 354.647943 547.026072 354.647943L547.026072 354.647943zM820.539107 354.647943c-37.76668 0-68.40014 31.771274-68.40014 70.938341 0 39.167067 30.63346 70.938341 68.40014 70.938341 37.76668 0 68.356378-31.771274 68.356378-70.938341C888.939247 386.375455 858.305787 354.647943 820.539107 354.647943L820.539107 354.647943zM957.295625 0 136.756518 0C61.223158 0 0 63.542548 0 141.876682l0 531.971914c0 78.334133 62.623545 150.585337 139.863626 150.585337l208.395052 0c36.322531 38.685684 186.689058 194.347423 186.689058 194.347423 6.695599 6.958172 17.504834 6.958172 24.156671 0 0 0 110.061646-124.809468 181.787704-194.347423l213.296406 0c77.240081 0 139.863626-72.207441 139.863626-150.585337L1094.052143 141.876682C1094.052143 63.542548 1032.828985 0 957.295625 0L957.295625 0zM1025.695765 673.848596c0 39.167067-32.865326 80.259665-71.507248 80.259665l-209.751677 0c-25.425772 0-48.225818 26.125965-48.225818 26.125965l-147.259418 152.729679-147.259418-152.729679c0 0-28.051497-26.125965-52.076882-26.125965L139.863626 754.108261c-38.641922 0-71.463486-41.092598-71.463486-80.259665L68.40014 141.876682c0-39.167067 30.63346-70.938341 68.356378-70.938341l820.539107 0c37.76668 0 68.40014 31.771274 68.40014 70.938341L1025.695765 673.848596 1025.695765 673.848596zM1025.695765 673.848596" p-id="24082" fill="#ffffff"></path></svg>