<?xml version="1.0" encoding="utf-8"?>
<!-- Generator: Adobe Illustrator 19.1.0, SVG Export Plug-In . SVG Version: 6.00 Build 0)  -->
<!DOCTYPE svg PUBLIC "-//W3C//DTD SVG 1.1//EN" "http://www.w3.org/Graphics/SVG/1.1/DTD/svg11.dtd">
<svg version="1.1" id="Layer_1" xmlns="http://www.w3.org/2000/svg" xmlns:xlink="http://www.w3.org/1999/xlink" x="0px" y="0px"
	 width="32px" height="32px" viewBox="0 0 32 32" enable-background="new 0 0 32 32" xml:space="preserve">
<g>
	<g>
		<path fill-rule="evenodd" clip-rule="evenodd" fill="#FFFFFF" d="M27,7H5v6h22V7z M26,12H6V8h20V12z M31,0h-2v2h-2l-1-2H6L5,2H3V0
			H1C0,0,0,1,0,1s0,27.1,0,30c0,0.9,1,1,1,1h30c0,0,1,0,1-1c0-2.1,0-26,0-26V1C32,1,31.9,0,31,0z M30,30H2V4h28V30z M27,15H5v6h22
			V15z M26,20H6v-4h20V20z M27,23H5v4h22V23z"/>
	</g>
</g>
</svg>
