<?xml version="1.0" encoding="iso-8859-1"?>
<!-- Generator: Adobe Illustrator 22.1.0, SVG Export Plug-In . SVG Version: 6.00 Build 0)  -->
<svg version="1.1" id="&#x56FE;&#x5C42;_1" xmlns="http://www.w3.org/2000/svg" xmlns:xlink="http://www.w3.org/1999/xlink" x="0px"
	 y="0px" viewBox="0 0 51.024 51.024" style="enable-background:new 0 0 51.024 51.024;" xml:space="preserve">
<g>
	<path style="fill:#FFFFFF;" d="M18.06,21.985"/>
	<path style="fill:#FFFFFF;" d="M27.207,26.564c-0.782,0.188-1.553,0.374-2.323,0.56c-0.141,0.034-0.15,0.024-0.127-0.124
		c0.09-0.598,0.181-1.196,0.268-1.795c0.012-0.085,0.053-0.116,0.133-0.135c0.426-0.101,0.851-0.206,1.276-0.311
		c0.145-0.036,0.178-0.097,0.135-0.24c-0.038-0.126-0.079-0.251-0.12-0.376c-0.029-0.09-0.078-0.12-0.179-0.094
		c-0.429,0.11-0.86,0.21-1.291,0.314c-0.054,0.013-0.11,0.022-0.193,0.039c0.014-0.129,0.022-0.24,0.039-0.35
		c0.075-0.503,0.158-1.005,0.227-1.509c0.02-0.145,0.064-0.229,0.224-0.245c0.125-0.012,0.247-0.058,0.37-0.089
		c0.155-0.039,0.173-0.07,0.126-0.22c-0.192-0.615-0.384-1.23-0.577-1.844c-0.053-0.168-0.042-0.186,0.128-0.186
		c0.637,0,1.274,0.002,1.911-0.002c0.103-0.001,0.155,0.027,0.188,0.133c0.14,0.452,0.291,0.901,0.437,1.351
		c0.06,0.184,0.102,0.208,0.288,0.163c0.085-0.021,0.171-0.04,0.255-0.061c0.147-0.037,0.184-0.094,0.14-0.237
		c-0.11-0.36-0.359-1.145-0.369-1.179c-0.041-0.139-0.023-0.165,0.12-0.166c0.558-0.001,1.116,0.001,1.674-0.003
		c0.092-0.001,0.133,0.036,0.159,0.119c0.09,0.284,0.19,0.565,0.275,0.85c0.031,0.102,0.073,0.118,0.17,0.092
		c0.284-0.075,0.571-0.139,0.856-0.21c0.096-0.024,0.132,0.008,0.117,0.105c-0.095,0.611-0.186,1.222-0.287,1.832
		c-0.008,0.047-0.073,0.109-0.122,0.121c-0.795,0.198-1.591,0.39-2.388,0.583c-0.161,0.039-0.198,0.096-0.15,0.25
		c0.03,0.096,0.063,0.192,0.095,0.287c0.063,0.185,0.099,0.205,0.29,0.159c0.805-0.196,1.609-0.393,2.414-0.589
		c0.07-0.017,0.142-0.029,0.243-0.049c-0.027,0.198-0.048,0.37-0.073,0.541c-0.067,0.451-0.139,0.901-0.203,1.353
		c-0.016,0.113-0.054,0.172-0.178,0.2c-0.534,0.12-1.065,0.254-1.597,0.382c-0.174,0.042-0.208,0.098-0.155,0.273
		c0.042,0.138,0.093,0.274,0.131,0.414c0.024,0.09,0.072,0.107,0.155,0.087c0.553-0.137,1.106-0.272,1.659-0.407
		c0.067-0.016,0.135-0.028,0.234-0.049c-0.025,0.191-0.045,0.358-0.07,0.525c-0.069,0.464-0.142,0.927-0.209,1.391
		c-0.014,0.099-0.054,0.151-0.159,0.173c-0.24,0.05-0.477,0.116-0.715,0.174c-0.215,0.052-0.244,0.101-0.172,0.314
		c0.213,0.631,0.427,1.262,0.64,1.893c0.066,0.197,0.007,0.282-0.202,0.283c-0.655,0.001-1.309-0.002-1.964,0.001
		c-0.089,0-0.131-0.029-0.159-0.116c-0.171-0.534-0.349-1.066-0.524-1.599c-0.059-0.18-0.058-0.181-0.234-0.138
		c-1.069,0.26-2.137,0.521-3.206,0.782c-0.174,0.042-0.18,0.034-0.153-0.143c0.085-0.559,0.17-1.118,0.246-1.678
		c0.02-0.145,0.072-0.214,0.225-0.249c0.781-0.181,1.558-0.379,2.338-0.565c0.113-0.027,0.145-0.066,0.104-0.179
		C27.329,26.97,27.272,26.768,27.207,26.564z"/>
	<path style="fill:#FFFFFF;" d="M8.757,31.044c-0.216,0-0.226-0.013-0.188-0.227c0.105-0.595,0.214-1.19,0.314-1.786
		c0.021-0.125,0.068-0.168,0.195-0.168c0.967,0.004,1.934,0,2.9,0.005c0.132,0.001,0.185-0.038,0.204-0.17
		c0.147-1.042,1.24-8.466,1.258-8.614c0.011-0.097,0.054-0.133,0.154-0.133c0.712,0.003,1.424,0.003,2.136,0
		c0.113,0,0.149,0.045,0.133,0.152c-0.05,0.338-0.31,2.152-0.395,2.72c-0.018,0.117,0.048,0.117,0.131,0.117
		c1.112-0.001,3.406-0.002,3.441,0c0.09,0.005,0.123,0.052,0.107,0.141c-0.081,0.453-0.31,1.694-0.328,1.864
		c-0.014,0.136-0.076,0.171-0.206,0.171c-1.085-0.004-2.171-0.002-3.256-0.002c-0.183,0-0.213,0.019-0.24,0.201
		c-0.088,0.576-0.412,2.841-0.498,3.395c-0.02,0.13,0.021,0.157,0.142,0.157c1.323-0.003,2.646-0.002,3.968-0.002
		c0.228,0,0.232,0.001,0.192,0.23c-0.105,0.609-0.213,1.217-0.319,1.826c-0.014,0.081-0.054,0.127-0.141,0.124
		C18.407,31.042,10.361,31.044,8.757,31.044z"/>
	<path style="fill:#FFFFFF;" d="M39.589,22.073c0,0-6.655,0.001-6.681,0c-0.151-0.004-0.179-0.036-0.152-0.183
		c0.105-0.578,0.215-1.155,0.315-1.733c0.024-0.14,0.081-0.182,0.224-0.182c3.028,0.005,6.055,0,9.083,0
		c0.205,0,0.209,0.007,0.171,0.216c-0.091,0.509-0.181,1.018-0.278,1.526c-0.066,0.344-0.248,0.634-0.441,0.919
		c-0.588,0.869-1.173,1.74-1.761,2.609c-0.187,0.276-0.275,0.584-0.317,0.91c-0.113,0.865-0.227,1.73-0.349,2.594
		c-0.035,0.25-0.136,0.482-0.293,0.682c-0.349,0.446-0.706,0.886-1.057,1.331c-0.147,0.186-0.339,0.279-0.571,0.279
		c-0.997,0.003-1.995,0.002-2.992,0.001c-0.137,0-0.166-0.037-0.142-0.167c0.117-0.638,0.238-1.275,0.349-1.914
		c0.02-0.114,0.07-0.144,0.174-0.144c0.664,0.002,1.327,0.001,1.991,0.001c0.186,0,0.239-0.049,0.265-0.234
		c0.149-1.073,0.298-2.145,0.449-3.217c0.048-0.337,0.189-0.636,0.382-0.914C38.484,23.691,39.589,22.073,39.589,22.073z"/>
	<path style="fill:#FFFFFF;" d="M23.302,26.254c0,0,0.604,0,0.898,0c0.222,0,0.229,0.012,0.189,0.237
		c-0.094,0.53-0.187,1.061-0.274,1.593c-0.019,0.118-0.068,0.163-0.189,0.162c-1.028-0.003-2.056-0.001-3.084-0.002
		c-0.159,0-0.187-0.042-0.137-0.194c0.345-1.04,1.085-3.282,1.085-3.282s-0.702,0-1.044,0c-0.218,0-0.242-0.029-0.171-0.239
		c0.498-1.483,0.998-2.966,1.494-4.45c0.031-0.091,0.08-0.122,0.173-0.121c0.606,0.003,1.213,0.001,1.819,0.002
		c0.154,0,0.18,0.039,0.132,0.185c-0.263,0.795-0.795,2.418-0.795,2.418s0.544-0.001,0.75,0c0.245,0.001,0.32,0.103,0.246,0.332
		C24.204,23.474,23.302,26.254,23.302,26.254z"/>
	<path style="fill:#FFFFFF;" d="M23.734,28.767c0.321-0.01,0.319-0.009,0.264,0.306c-0.088,0.513-0.171,1.028-0.253,1.542
		c-0.029,0.178-0.036,0.188-0.212,0.192c-0.772,0.02-2.798,0.077-3.04,0.079c-0.182,0.002-0.26-0.101-0.227-0.281
		c0.094-0.521,0.186-1.043,0.278-1.565c0.031-0.178,0.04-0.187,0.216-0.192C20.817,28.848,22.853,28.794,23.734,28.767z"/>
</g>
</svg>
