<?xml version="1.0" encoding="UTF-8" standalone="no"?><!DOCTYPE svg PUBLIC "-//W3C//DTD SVG 1.1//EN" "http://www.w3.org/Graphics/SVG/1.1/DTD/svg11.dtd"><svg xmlns="http://www.w3.org/2000/svg" xmlns:xl="http://www.w3.org/1999/xlink" version="1.1" viewBox="12.5 16.8 26.3 17.3" xmlns:dc="http://purl.org/dc/elements/1.1/"><g stroke="none" stroke-opacity="1" stroke-dasharray="none" fill="none" fill-opacity="1"><path d="M 69.55 12.3 L 57.35 27.5 L 60.55 27.5 L 60.55 53.7 L 51.35 53.7 L 62.35 67.7 L 72.85 67.7 C 72.85 67.7 75.95 66.9 75.95 63.9 L 75.95 16.1 C 75.95 16.1 75.95 13.1 72.85 12.3 Z" fill="white"/><path d="M 10.55 12.3 L 7.15 12.3 C 7.15 12.3 4.05 13.1 4.05 16.1 L 4.05 63.9 C 4.05 63.9 4.05 66.9 7.15 67.7 L 59.85 67.7 L 40.05 44.1 L 32.35 53.7 L 18.55 53.7 L 18.55 27.5 L 21.75 27.5 Z" fill="white"/><path d="M 10.55 12.3 L 30.55 12.3 L 40.05 21.3 L 49.55 12.3 L 69.55 12.3 L 40.05 41.3 Z" fill="white"/></g></svg>
