<?xml version="1.0" encoding="iso-8859-1"?>
<!-- Generator: Adobe Illustrator 22.1.0, SVG Export Plug-In . SVG Version: 6.00 Build 0)  -->
<svg version="1.1" id="&#x56FE;&#x5C42;_1" xmlns="http://www.w3.org/2000/svg" xmlns:xlink="http://www.w3.org/1999/xlink" x="0px"
	 y="0px" viewBox="12.5 12.5 25.8 25.8" style="enable-background:new 0 0 51.024 51.024;" xml:space="preserve">
<g>
	<g>
		<path style="fill:#FFFFFF;" d="M13.859,30.698c-0.008-0.07,0.084-0.104,0.13-0.052c0.508,0.578,0.997,1.097,1.542,1.562
			c1.461,1.246,3.123,2.075,5.025,2.355c2.104,0.309,4.122-0.058,6.08-0.867c1.597-0.66,2.979-1.657,4.366-2.654
			c0.426-0.307,0.868-0.562,1.4-0.675c1.392-0.294,2.604,0.892,2.732,2.053c0.083,0.755-0.116,1.402-0.646,1.977
			c-1.835,1.993-4.097,3.218-6.745,3.669c-4.324,0.736-8.093-0.464-11.262-3.484c-1.096-1.045-1.943-2.29-2.547-3.688
			c-0.027-0.062-0.055-0.124-0.072-0.188C13.86,30.704,13.86,30.701,13.859,30.698z"/>
		<path style="fill:#FFFFFF;" d="M35.814,32.944c-0.055,0.045-0.137-0.007-0.119-0.076c0.132-0.501,0.297-0.986,0.416-1.486
			c0.902-3.804-0.078-7.066-2.811-9.827c-1.46-1.475-3.219-2.484-5.113-3.288c-0.689-0.292-1.395-0.557-1.904-1.16
			c-0.622-0.738-0.729-1.55-0.364-2.419c0.354-0.842,0.992-1.355,1.916-1.432c1.139-0.095,2.18,0.306,3.173,0.782
			c3.557,1.706,5.862,4.493,6.836,8.304c0.926,3.623,0.321,7.039-1.708,10.19C36.043,32.676,35.953,32.83,35.814,32.944z"/>
		<path style="fill:#FFFFFF;" d="M26.97,12.854c0.07,0.024,0.066,0.125-0.007,0.143c-0.607,0.148-1.195,0.274-1.774,0.451
			c-1.326,0.406-2.533,1.02-3.61,1.907c-1.316,1.084-2.255,2.431-2.896,3.995c-0.502,1.226-0.77,2.508-0.889,3.827
			c-0.138,1.525,0.034,3.038,0.125,4.554c0.068,1.125-0.49,2.109-1.603,2.487c-1.063,0.362-2.293-0.091-2.853-1.046
			c-0.264-0.45-0.367-0.968-0.464-1.466c-0.184-0.941-0.278-1.896-0.235-2.862c0.055-1.238,0.277-2.449,0.689-3.605
			c0.842-2.362,2.269-4.327,4.269-5.854c0.914-0.698,1.907-1.246,2.981-1.684c0.859-0.35,1.741-0.586,2.634-0.763
			c1.112-0.22,2.253-0.215,3.387-0.142C26.808,12.804,26.889,12.826,26.97,12.854z"/>
	</g>
	<path style="fill:#FFFFFF;" d="M30.79,27.403c-0.056-0.654-0.28-1.259-0.534-1.854c-0.128-0.3-0.275-0.596-0.482-0.852
		c-0.089-0.11-0.077-0.23-0.077-0.357c0.001-1.009-0.172-1.982-0.732-2.838c-0.657-1.004-1.649-1.442-2.812-1.519
		c-0.152-0.01-0.303-0.015-0.453-0.016c-0.15,0-0.302,0.006-0.453,0.016c-1.163,0.077-2.155,0.515-2.812,1.519
		c-0.561,0.856-0.733,1.829-0.732,2.838c0,0.127,0.012,0.247-0.077,0.357c-0.207,0.257-0.354,0.552-0.482,0.852
		c-0.254,0.595-0.478,1.2-0.534,1.854c-0.014,0.169,0.043,0.212,0.207,0.22c0.325,0.016,0.588-0.118,0.786-0.341
		c0.206-0.233,0.265-0.137,0.361,0.078c0.115,0.259,0.249,0.511,0.399,0.752c0.137,0.22,0.168,0.323-0.145,0.426
		c-0.293,0.097-0.583,0.298-0.572,0.689c0.01,0.358,0.309,0.484,0.564,0.568c0.978,0.323,1.971,0.374,2.946-0.009
		c0.188-0.074,0.366-0.108,0.545-0.104c0.178-0.004,0.357,0.03,0.545,0.104c0.975,0.383,1.969,0.332,2.946,0.009
		c0.255-0.084,0.554-0.21,0.564-0.568c0.011-0.39-0.279-0.592-0.572-0.689c-0.313-0.103-0.283-0.206-0.145-0.426
		c0.15-0.24,0.284-0.493,0.399-0.752c0.095-0.214,0.155-0.311,0.361-0.078c0.198,0.224,0.461,0.358,0.786,0.341
		C30.747,27.615,30.805,27.571,30.79,27.403z"/>
</g>
</svg>
