<?xml version="1.0" encoding="iso-8859-1"?>
<!-- Generator: Adobe Illustrator 22.1.0, SVG Export Plug-In . SVG Version: 6.00 Build 0)  -->
<svg version="1.1" id="&#x56FE;&#x5C42;_1" xmlns="http://www.w3.org/2000/svg" xmlns:xlink="http://www.w3.org/1999/xlink" x="0px"
	 y="0px" viewBox="12.5 12.5 25.8 25.8" style="enable-background:new 0 0 51.024 51.024;" xml:space="preserve">
<g>
	<path style="fill:#FFFFFF;" d="M25.512,12.756c-7.034,0-12.756,5.722-12.756,12.756c0,7.034,5.722,12.756,12.756,12.756
		s12.756-5.722,12.756-12.756C38.268,18.478,32.545,12.756,25.512,12.756z M25.512,36.495c-6.056,0-10.983-4.927-10.983-10.983
		s4.927-10.983,10.983-10.983s10.983,4.927,10.983,10.983S31.568,36.495,25.512,36.495z"/>
	<path style="fill:#FFFFFF;" d="M31.505,24.649h-5.102v-6.684c0-0.489-0.397-0.886-0.886-0.886s-0.886,0.397-0.886,0.886v7.571
		c0,0.489,0.397,0.886,0.886,0.886h5.988c0.489,0,0.886-0.397,0.886-0.886C32.391,25.046,31.995,24.649,31.505,24.649z"/>
</g>
</svg>
