<?xml version="1.0" encoding="utf-8"?>
<!-- Generator: Adobe Illustrator 22.1.0, SVG Export Plug-In . SVG Version: 6.00 Build 0)  -->
<svg version="1.1" id="图层_1" xmlns="http://www.w3.org/2000/svg" xmlns:xlink="http://www.w3.org/1999/xlink" x="0px" y="0px"
	 viewBox="0 0 25.5 25.2" style="enable-background:new 0 0 25.5 25.2;" xml:space="preserve">
<style type="text/css">
	.st0{fill:#FFFFFF;}
</style>
<g>
	<path class="st0" d="M18.7,6.8c0,1,0,2,0,3c0,0.2-0.2,0.6-0.4,0.7c-1.7,1-3.5,2-5.2,3c-0.2,0.1-0.5,0.1-0.7,0c-1.8-1-3.5-2-5.2-3
		C7,10.4,6.9,10.1,6.8,9.9c0-2,0-4.1,0-6.1c0-0.2,0.2-0.5,0.4-0.7c1.7-1,3.5-2,5.2-3c0.2-0.1,0.5-0.1,0.7,0c1.7,1,3.5,2,5.2,3
		c0.2,0.1,0.3,0.4,0.4,0.7C18.7,4.8,18.7,5.8,18.7,6.8z"/>
	<path class="st0" d="M0,18.5c0-1,0-2,0-3c0-0.2,0.2-0.6,0.4-0.7c1.7-1,3.4-2,5.1-3c0.2-0.1,0.6-0.1,0.8,0c1.8,1,3.5,2,5.2,3
		c0.2,0.1,0.4,0.4,0.4,0.6c0,2,0,4.1,0,6.1c0,0.2-0.2,0.5-0.4,0.7c-1.7,1-3.5,2-5.2,3c-0.2,0.1-0.5,0.1-0.6,0c-1.8-1-3.5-2-5.3-3
		c-0.2-0.1-0.3-0.4-0.4-0.7C-0.1,20.5,0,19.5,0,18.5z"/>
	<path class="st0" d="M23.4,14.2c0,0.6-0.1,1.1,0,1.6s0.6,0.8,1.1,0.9c0.7,0.1,0.9,0.6,1,1.1c0,0.4,0,0.9,0,1.3
		c0,0.7-0.2,1.1-0.9,1.3c-1.1,0.3-1.3,0.7-1.2,1.9c0.1,0.7-0.2,1.1-0.7,1.3c-0.2,0.1-0.5,0.2-0.7,0.4c-0.5,0.3-1,0.3-1.5-0.1
		c-0.8-0.7-0.9-0.8-1.8-0.1c-0.6,0.4-1.2,0.5-1.8,0.1c-0.2-0.2-0.5-0.3-0.7-0.4c-0.4-0.2-0.6-0.5-0.5-1c0.3-1.1-0.1-1.8-1.2-2
		c-0.6-0.1-0.8-0.5-0.8-1c0-0.6,0-1.2,0-1.7s0.2-0.9,0.8-1c0.9-0.1,1.4-1,1.2-1.9c-0.1-0.2-0.1-0.5,0-0.7c0.5-1,2.2-1.4,3.1-0.7
		c0.5,0.4,1,0.4,1.5,0c0.9-0.6,2.3-0.4,3,0.4C23.3,14,23.4,14.1,23.4,14.2z M21.5,18.7c0-1.2-0.8-2-1.9-2c-1.2,0-2.1,0.8-2.1,2
		c0,1,1,2.1,2.1,2C20.6,20.7,21.4,20.1,21.5,18.7z"/>
</g>
</svg>
