<?xml version="1.0" encoding="iso-8859-1"?>
<!-- Generator: Adobe Illustrator 22.1.0, SVG Export Plug-In . SVG Version: 6.00 Build 0)  -->
<svg version="1.1" id="&#x56FE;&#x5C42;_1" xmlns="http://www.w3.org/2000/svg" xmlns:xlink="http://www.w3.org/1999/xlink" x="0px"
	 y="0px" viewBox="0 0 51.024 51.024" style="enable-background:new 0 0 51.024 51.024;" xml:space="preserve">
<g>
	<path style="fill:#FFFFFF;" d="M20.545,25.743c0,1.008-0.82,1.828-1.828,1.828H18.59c-1.008,0-1.828-0.82-1.828-1.828v-3.246
		h-0.993v3.246c0,1.556,1.266,2.822,2.821,2.822h0.127c1.556,0,2.821-1.266,2.821-2.822v-3.246h-0.993V25.743z"/>
	<path style="fill:#FFFFFF;" d="M25.546,22.508h-2.978v6.056h2.978c1.556,0,2.821-1.328,2.821-2.961v-0.135
		C28.368,23.836,27.102,22.508,25.546,22.508z M27.374,25.603c0,1.085-0.82,1.967-1.828,1.967h-1.985v-4.07h1.985
		c1.008,0,1.828,0.883,1.828,1.967V25.603z"/>
	<path style="fill:#FFFFFF;" d="M37.84,25.032h-0.654h-0.51c-0.384,0-0.697-0.345-0.697-0.768l0,0c0-0.424,0.313-0.768,0.697-0.768
		h2.627v-0.993h-2.627c-0.932,0-1.69,0.79-1.69,1.761l0,0c0,0.932,0.7,1.69,1.579,1.75v0.012h0.11h0.51h0.654
		c0.384,0,0.697,0.344,0.697,0.768v0.009c0,0.424-0.313,0.768-0.697,0.768h-2.802v0.993h2.802c0.932,0,1.69-0.79,1.69-1.762v-0.009
		C39.53,25.822,38.772,25.032,37.84,25.032z"/>
	<polygon style="fill:#FFFFFF;" points="29.47,28.564 33.977,28.564 33.977,27.571 30.464,27.571 30.464,25.965 32.967,25.965 
		32.967,24.972 30.464,24.972 30.464,23.501 33.977,23.501 33.977,22.508 29.47,22.508 	"/>
	<polygon style="fill:#FFFFFF;" points="41.488,26.144 41.533,26.1 43.997,28.564 45.402,28.564 42.235,25.398 45.125,22.508 
		43.72,22.508 41.488,24.739 41.488,22.536 40.495,22.536 40.495,28.553 41.488,28.553 	"/>
	<g>
		<polygon style="fill:#FFFFFF;" points="13.398,20.977 13.398,20.958 9.806,20.958 9.806,23.596 		"/>
		<path style="fill:#FFFFFF;" d="M9.806,24.304v1.932c0,0.131-0.107,0.238-0.258,0.238c-0.132,0-0.238-0.107-0.238-0.238v-5.277
			H5.717v5.277c0,2.112,1.718,3.83,3.85,3.83c2.112,0,3.831-1.718,3.831-3.83v-4.551L9.806,24.304z"/>
	</g>
</g>
</svg>
