<?xml version="1.0" encoding="UTF-8" standalone="no"?><!DOCTYPE svg PUBLIC "-//W3C//DTD SVG 1.1//EN" "http://www.w3.org/Graphics/SVG/1.1/DTD/svg11.dtd"><svg xmlns="http://www.w3.org/2000/svg" xmlns:xl="http://www.w3.org/1999/xlink" version="1.1" viewBox="0 0 75 75" width="75pt" height="75pt" xmlns:dc="http://purl.org/dc/elements/1.1/"><g stroke="none" stroke-opacity="1" stroke-dasharray="none" fill="none" fill-opacity="1"><path d="M 5 53.65188 C 5 56.93281 7.661397 59.591826 10.941359 59.591826 L 43.91831 59.591826 C 42.443725 57.20318 41.594546 54.390173 41.594546 51.3791 C 41.594546 42.725287 48.6128 35.707106 57.265946 35.707106 C 59.36905 35.707106 61.37287 36.12248 63.20649 36.873854 L 63.20649 31.0821 L 5 31.0821 L 5 53.65188 Z M 57.266095 38.646682 C 50.23439 38.646682 44.534197 44.3468 44.534197 51.3791 C 44.534197 58.41029 50.234314 64.11152 57.266095 64.11152 C 64.29892 64.11152 70 58.41029 70 51.3791 C 70 44.3468 64.29892 38.646682 57.266095 38.646682 Z M 64.72499 56.05442 L 62.19596 58.58256 L 57.2681 53.65188 L 52.336453 58.58256 L 49.80928 56.05442 L 54.737136 51.12314 L 49.80928 46.1935 L 52.336453 43.664914 L 57.266095 48.59515 L 62.19596 43.664914 L 64.72499 46.1935 L 59.79416 51.12314 Z M 40.62772 43.807385 L 40.62772 47.10979 L 36.103565 47.10979 L 36.103565 48.43707 L 40.62772 48.43707 L 40.62772 51.69132 L 36.103565 51.69132 L 36.103565 55.215496 L 32.468726 55.215496 L 32.468726 51.69132 L 27.96308 51.69132 L 27.96308 48.43707 L 32.468726 48.43707 L 32.468726 47.10979 L 27.96308 47.10979 L 27.96308 43.807385 L 30.70422 43.807385 L 26.526326 35.66519 L 30.66632 35.66519 L 33.35001 41.244685 C 33.69337 41.96358 33.933646 42.40222 34.07753 42.94847 C 34.249803 42.35703 34.488 41.91594 34.805196 41.244685 L 37.544183 35.66519 L 41.680237 35.66519 L 37.45091 43.807385 L 40.62772 43.807385 Z M 10.941434 10.88848 C 7.659465 10.88848 5.0000744 13.547871 5.0000744 16.82813 L 5.0000744 22.767335 L 63.20664 22.767335 L 63.20664 16.82813 C 63.20656 13.547871 60.549104 10.88848 57.2681 10.88848 Z" fill="white"/></g></svg>
