<?xml version="1.0" encoding="utf-8"?>
<!-- Generator: Adobe Illustrator 22.1.0, SVG Export Plug-In . SVG Version: 6.00 Build 0)  -->
<svg version="1.1" id="图层_1" xmlns="http://www.w3.org/2000/svg" xmlns:xlink="http://www.w3.org/1999/xlink" x="0px" y="0px"
	 viewBox="0 0 51 51" style="enable-background:new 0 0 51 51;" xml:space="preserve">
<style type="text/css">
	.st0{fill:#FFFFFF;}
</style>
<g>
	<path class="st0" d="M37.1,17.5c-1.3-0.3-2.5-0.7-3.7-1c-0.3-0.1-0.5-0.2-0.4-0.6c0.1-0.8,0.1-1.6,0.1-2.4c0-2.9-2.2-6-5.3-6.8
		c-4.2-1.1-8.2,0.9-9.4,5.1c-0.9,3.1-0.2,5.7,2.6,8c0.9,0.7,1.9,1.3,2.8,1.9c-0.6,1.1-1.3,2.2-1.9,3.2c-1.4,2.3-2.7,4.7-4.2,7
		c-0.7,1.2-0.6,2.3-0.3,3.5c0.7,2.4-0.4,4.6-2.3,5.7C11.8,43,8.3,41,7.4,37.8C6.6,35,9,32.2,11.2,31.7c0.2-0.1,0.5-0.2,0.7-0.2
		c0.9,0.2,1.3-0.4,1.7-1.1c1.2-2.1,2.5-4.2,3.7-6.3c0.2-0.4,0.2-0.6-0.1-1c-1.4-1.5-2.6-3.2-3.3-5.2s-0.7-4.1-0.4-6.1
		c0.4-2.7,1.7-4.9,3.7-6.7c2.4-2.2,5.1-3.3,8.4-3.3c3.9,0,7.1,1.6,9.5,4.6c2.5,3.1,3.3,6.8,2.2,10.7C37.3,17.2,37.2,17.3,37.1,17.5z
		"/>
	<path class="st0" d="M10.6,28.9c-1.2,0.9-2.4,1.7-3.5,2.6c-1,0.8-1.7,1.8-2.1,3.1c-0.8,2.9,0,5.5,2.1,7.6c1.7,1.6,3.7,2.2,6.1,2
		c3.9-0.4,5.9-3,6.4-6.2c0.2-1.1,0.2-2.2,0.3-3.4c0.2,0,0.4,0,0.7,0c3.7,0,7.3,0,11,0c1.4,0,2.5-0.5,3.5-1.5
		c2.6-2.8,7.1-1.3,8.2,1.9c1,2.7-0.2,5.3-2.7,6.5c-2.2,1.1-4.9,0.3-6.3-1.8c-0.5-0.7-0.9-0.9-1.8-0.9c-2.4,0.1-4.8,0-7.3,0
		c-0.6,0-0.8,0.2-1,0.7c-1.3,4.6-4.3,7.8-8.9,8.9C8.7,50,2.7,46.5,0.6,40.1c-1.3-4-0.4-7.8,2.2-11.2c1.6-2,3.6-3.3,6.1-4.1
		c0.4-0.1,0.7-0.1,0.8,0.4C9.9,26.6,10.3,27.8,10.6,28.9z"/>
	<path class="st0" d="M30.1,45.4c1-0.9,2-1.7,3-2.5c0.2-0.1,0.6-0.1,0.8,0c1.3,0.7,2.6,1.3,4.1,1.6c2.1,0.4,3.9-0.3,5.5-1.6
		c1.8-1.5,2.7-3.4,2.7-5.7c0-2.2-0.8-4.2-2.4-5.7c-2.4-2.2-5-2.4-7.9-1.3c-0.8,0.3-1.6,0.8-2.4,1.2c-0.4,0.3-0.6,0.2-0.9-0.2
		c-1.8-3.2-3.6-6.3-5.3-9.5c-0.7-1.3-1.7-2.1-3.2-2.4c-2.2-0.4-3.8-2.6-3.7-5c0.1-2,1-3.6,2.8-4.5c1.9-0.9,3.7-0.8,5.4,0.5
		c1.8,1.3,2.7,3.6,1.7,5.9c-0.4,0.9-0.4,1.6,0.2,2.5c1.3,2.1,2.4,4.2,3.6,6.3c0.2,0.4,0.5,0.4,0.8,0.3c1.3-0.2,2.7-0.6,4-0.5
		c3.8,0.1,6.9,1.7,9.3,4.6c1.8,2.2,2.6,4.8,2.6,7.6c0,4.9-2.8,9.3-7.5,11.3c-2.1,0.9-4.3,1.2-6.6,0.8c-2.6-0.4-4.8-1.6-6.7-3.5
		C30.2,45.5,30.2,45.5,30.1,45.4z"/>
</g>
</svg>
