<?xml version="1.0" encoding="utf-8"?>
<!-- Generator: Adobe Illustrator 22.1.0, SVG Export Plug-In . SVG Version: 6.00 Build 0)  -->
<svg version="1.1" id="图层_1" xmlns="http://www.w3.org/2000/svg" xmlns:xlink="http://www.w3.org/1999/xlink" x="0px" y="0px"
	 viewBox="0 0 51 51" style="enable-background:new 0 0 51 51;" xml:space="preserve">
<style type="text/css">
	.st0{fill:#FFFFFF;}
</style>
<g>
	<g>
		<g>
			<path class="st0" d="M11.8,23.5c-1.6,0-2.4,0.8-2.4,2.3v1.6c0,1.5,0.8,2.2,2.5,2.2c0.7,0,1.5-0.1,2.1-0.4l-0.2-1
				c-0.6,0.2-1.2,0.3-1.8,0.3c-0.9,0-1.2-0.3-1.2-1V27h2.8c0.3,0,0.5-0.2,0.5-0.5v-0.7C14,24.9,13.8,23.5,11.8,23.5z M12.7,26h-2
				v-0.3c0-0.7,0.3-1,1-1c0.8,0,0.9,0.5,0.9,1V26H12.7z M49.9,23.5c-1,0-1.6,0.5-1.6,1.6v4.5h1.4v-4.2c0-0.2,0.2-0.3,0.4-0.4H51
				v-1.5C51,23.5,49.9,23.5,49.9,23.5z M6.6,27.4c-0.1,0.3-0.1,0.7-0.1,0.7s0-0.4-0.1-0.7c0-0.2-0.6-2.2-1-3.3
				c-0.1-0.5-0.7-0.6-0.9-0.6c-0.3,0-0.8,0.1-0.9,0.6c-0.3,1.1-0.9,3.1-1,3.3c-0.1,0.3-0.1,0.7-0.1,0.7s0-0.4-0.1-0.7
				c0-0.3-1-3.8-1-3.8H0c0,0,0.9,3.4,1.4,5.2c0.2,0.9,0.8,0.9,1,0.9s0.8-0.1,1.1-0.9c0.4-1.2,0.9-3.1,0.9-3.1c0-0.1,0-0.2,0-0.2l0,0
				c0,0,0,0.1,0,0.2s0.5,1.9,0.9,3.1c0.2,0.8,0.9,0.9,1.1,0.9s0.8,0,1-0.9C8.1,27,9,23.5,9,23.5H7.6C7.6,23.5,6.6,27,6.6,27.4z
				 M17.7,23.4c-0.4,0-0.8,0-1.1,0.1l0,0v-2.4h-1.4v6.1v0.1c0,1.5,0.9,2.2,2.6,2.2s2.6-0.8,2.6-2.3v-1.5
				C20.2,24.2,19.4,23.4,17.7,23.4z M18.8,27.3c0,0.7-0.4,1.1-1.1,1.1s-1.1-0.3-1.1-1.1v-1.6c0-0.7,0.4-1.1,1.1-1.1s1.1,0.3,1.1,1.1
				V27.3z M23.9,23.5c-1.7,0-2.5,0.8-2.6,2.2v0.1v6.1h1.4v-2.4l0,0c0.3,0.1,0.7,0.1,1.1,0.1c1.7,0,2.6-0.8,2.6-2.3v-1.5
				C26.5,24.2,25.6,23.5,23.9,23.5z M25.1,27.3c0,0.7-0.4,1.1-1.1,1.1s-1.1-0.3-1.1-1.1v-1.6c0-0.7,0.4-1.1,1.1-1.1s1.1,0.3,1.1,1.1
				V27.3z M45,23.5c-1.6,0-2.4,0.8-2.4,2.3v1.6c0,1.5,0.8,2.2,2.5,2.2c0.7,0,1.5-0.1,2.1-0.4l-0.2-1c-0.6,0.2-1.2,0.3-1.8,0.3
				c-0.9,0-1.2-0.3-1.2-1V27h2.8c0.3,0,0.5-0.2,0.5-0.5v-0.7C47.2,24.9,47,23.5,45,23.5z M45.9,26h-2v-0.3c0-0.7,0.3-1,1-1
				c0.8,0,0.9,0.5,0.9,1L45.9,26L45.9,26z M39.7,27.4c-0.1,0.3-0.1,0.7-0.1,0.7s0-0.4-0.1-0.7c0-0.2-0.6-2.2-1-3.3
				c-0.1-0.5-0.7-0.6-0.9-0.6s-0.8,0.1-0.9,0.6c-0.3,1.1-0.9,3.1-1,3.3c-0.1,0.3-0.1,0.7-0.1,0.7s0-0.4-0.1-0.7
				c-0.1-0.4-1-3.8-1-3.8h-1.4c0,0,0.9,3.4,1.4,5.2c0.2,0.9,0.8,0.9,1,0.9s0.8-0.1,1.1-0.9c0.4-1.2,0.9-3.1,0.9-3.1
				c0-0.1,0-0.2,0-0.2l0,0c0,0,0,0.1,0,0.2s0.5,1.9,0.9,3.1c0.2,0.8,0.9,0.9,1.1,0.9s0.8,0,1-0.9c0.5-1.8,1.4-5.2,1.4-5.2h-1.4
				C40.7,23.5,39.8,27,39.7,27.4z"/>
		</g>
	</g>
	<path class="st0" d="M30.1,23.5c-1.7,0-2.6,0.8-2.6,2.3v1.5c0,1.5,0.9,2.3,2.6,2.3s2.6-0.8,2.6-2.3v-1.5
		C32.6,24.3,31.8,23.5,30.1,23.5z M31.2,27.3c0,0.7-0.4,1.1-1.1,1.1c-0.8,0-1.1-0.3-1.1-1.1v-0.6c0-0.6,0.2-0.9,0.7-1
		c-0.2-0.1-0.3-0.4-0.3-0.6c0-0.4,0.3-0.8,0.8-0.8c0.4,0,0.8,0.3,0.8,0.8c0,0.2-0.1,0.5-0.3,0.6c0.5,0.1,0.7,0.4,0.7,1L31.2,27.3
		L31.2,27.3z"/>
</g>
</svg>
