<?xml version="1.0" encoding="iso-8859-1"?>
<!-- Generator: Adobe Illustrator 22.1.0, SVG Export Plug-In . SVG Version: 6.00 Build 0)  -->
<svg version="1.1" id="&#x56FE;&#x5C42;_1" xmlns="http://www.w3.org/2000/svg" xmlns:xlink="http://www.w3.org/1999/xlink" x="0px"
	 y="0px" viewBox="12.5 12.5 25.8 25.8" style="enable-background:new 0 0 51.024 51.024;" xml:space="preserve">
<g>
	<path style="fill:#FFFFFF;" d="M20.919,34.338h-3.982c-1.33,0-2.411-1.131-2.411-2.521V19.69c0.02,0.001,0.04,0.006,0.061,0.006
		h20.263v2.529c0,0.489,0.396,0.885,0.885,0.885s0.885-0.396,0.885-0.885v-5.17c0-2.367-1.876-4.292-4.182-4.292H16.938
		c-2.306,0-4.182,1.925-4.182,4.292v14.762c0,2.367,1.876,4.292,4.182,4.292h3.982c0.489,0,0.885-0.396,0.885-0.885
		C21.805,34.734,21.408,34.338,20.919,34.338z M16.938,14.534H32.44c1.329,0,2.411,1.131,2.411,2.521v0.87H14.587
		c-0.021,0-0.04,0.005-0.061,0.006v-0.876C14.527,15.665,15.608,14.534,16.938,14.534z"/>
	<circle style="fill:#FFFFFF;" cx="30.234" cy="30.241" r="0.922"/>
	<path style="fill:#FFFFFF;" d="M37.382,29.355h-0.487c-0.397-2.999-2.777-5.379-5.775-5.776v-0.494
		c0-0.489-0.396-0.885-0.885-0.885s-0.885,0.396-0.885,0.885v0.494c-2.999,0.397-5.379,2.777-5.776,5.776H23.1
		c-0.489,0-0.885,0.396-0.885,0.885s0.396,0.885,0.885,0.885h0.474c0.397,3.004,2.786,5.388,5.793,5.778v0.472
		c0,0.489,0.396,0.886,0.885,0.886s0.885-0.396,0.885-0.886V36.9c2.991-0.403,5.363-2.78,5.759-5.774h0.487
		c0.489,0,0.885-0.396,0.885-0.885S37.871,29.355,37.382,29.355z M34.685,31.126h0.416c-0.366,2.015-1.952,3.606-3.964,3.979v-0.427
		c0-0.489-0.396-0.885-0.885-0.885s-0.885,0.396-0.885,0.885v0.432c-2.028-0.361-3.63-1.958-3.998-3.984h0.43
		c0.489,0,0.885-0.396,0.885-0.885s-0.396-0.885-0.885-0.885h-0.43c0.367-2.02,1.961-3.614,3.981-3.981v0.409
		c0,0.489,0.396,0.885,0.885,0.885s0.885-0.396,0.885-0.885v-0.409c2.02,0.367,3.614,1.961,3.981,3.981h-0.416
		c-0.489,0-0.885,0.396-0.885,0.885S34.196,31.126,34.685,31.126z"/>
</g>
</svg>
