<?xml version="1.0" encoding="iso-8859-1"?>
<!-- Generator: Adobe Illustrator 22.1.0, SVG Export Plug-In . SVG Version: 6.00 Build 0)  -->
<svg version="1.1" id="&#x56FE;&#x5C42;_1" xmlns="http://www.w3.org/2000/svg" xmlns:xlink="http://www.w3.org/1999/xlink" x="0px"
	 y="0px" viewBox="12.5 12.5 25.8 25.8" style="enable-background:new 12.5 12.5 25.8 25.8;" xml:space="preserve">
<g>
	<path style="fill:#FFFFFF;" d="M21.051,35.257h-4.054c-1.362,0-2.471-1.159-2.471-2.583V20.485h20.723v1.888
		c0,0.489,0.396,0.885,0.885,0.885c0.489,0,0.885-0.396,0.885-0.885V17.11c0-2.401-1.903-4.354-4.241-4.354H16.997
		c-2.339,0-4.241,1.953-4.241,4.354v15.565c0,2.401,1.903,4.353,4.241,4.353h4.054c0.489,0,0.885-0.396,0.885-0.885
		C21.936,35.653,21.54,35.257,21.051,35.257z M14.527,17.11c0-1.424,1.108-2.583,2.471-2.583h15.782c1.362,0,2.47,1.159,2.47,2.583
		v1.604H14.527V17.11z"/>
	<path style="fill:#FFFFFF;" d="M36.322,26.469h-9.099c-1.073,0-1.946,0.873-1.946,1.946v7.907c0,1.073,0.873,1.946,1.946,1.946
		h9.099c1.073,0,1.946-0.873,1.946-1.946v-7.907C38.268,27.342,37.395,26.469,36.322,26.469z M36.497,36.322
		c0,0.096-0.079,0.175-0.175,0.175h-9.099c-0.097,0-0.175-0.079-0.175-0.175v-7.907c0-0.097,0.079-0.175,0.175-0.175h9.099
		c0.096,0,0.175,0.078,0.175,0.175V36.322z"/>
</g>
</svg>
