<?xml version="1.0" encoding="iso-8859-1"?>
<!-- Generator: Adobe Illustrator 22.1.0, SVG Export Plug-In . SVG Version: 6.00 Build 0)  -->
<svg version="1.1" id="&#x56FE;&#x5C42;_1" xmlns="http://www.w3.org/2000/svg" xmlns:xlink="http://www.w3.org/1999/xlink" x="0px"
	 y="0px" viewBox="12.7 15 25.8 21" style="enable-background:new 0 0 51.024 51.024;" xml:space="preserve">
<path style="fill:#FFFFFF;" d="M21.833,15.075c-4.963,0-9.03,3.428-9.03,7.782c0,2.513,1.353,4.576,3.614,6.177l-0.748,2.278
	c-0.057,0.175,0.125,0.332,0.289,0.248l2.712-1.378c1.13,0.226,2.036,0.458,3.163,0.458c0.242,0,0.482-0.012,0.721-0.028
	c-0.206-0.642-0.315-1.313-0.315-2c0-1.968,0.876-3.81,2.466-5.186c1.57-1.359,3.667-2.107,5.904-2.107
	c0.098,0,0.196,0.002,0.293,0.005C30.035,17.726,26.201,15.075,21.833,15.075z M18.786,21.603c-0.773,0-1.399-0.628-1.399-1.403
	s0.627-1.403,1.399-1.403s1.399,0.628,1.399,1.403S19.559,21.603,18.786,21.603z M25.17,21.603c-0.773,0-1.399-0.628-1.399-1.403
	s0.627-1.403,1.399-1.403s1.399,0.628,1.399,1.403S25.943,21.603,25.17,21.603z"/>
<path style="fill:#FFFFFF;" d="M38.315,28.613c0-3.657-3.629-6.638-7.707-6.638c-4.316,0-7.717,2.981-7.717,6.638
	c0,3.664,3.4,6.638,7.717,6.638c0.905,0,1.816-0.229,2.723-0.458l2.047,1.131c0.161,0.089,0.349-0.063,0.296-0.24l-0.537-1.804
	C36.96,32.503,38.315,30.675,38.315,28.613z M28.201,27.581c-0.532,0-0.964-0.432-0.964-0.966c0-0.533,0.431-0.966,0.964-0.966
	c0.532,0,0.964,0.433,0.964,0.966C29.165,27.148,28.733,27.581,28.201,27.581z M33.156,27.581c-0.532,0-0.964-0.432-0.964-0.966
	c0-0.533,0.431-0.966,0.964-0.966s0.964,0.433,0.964,0.966C34.12,27.148,33.689,27.581,33.156,27.581z"/>
</svg>
