<?xml version="1.0" encoding="iso-8859-1"?>
<!-- Generator: Adobe Illustrator 22.1.0, SVG Export Plug-In . SVG Version: 6.00 Build 0)  -->
<svg version="1.1" id="&#x56FE;&#x5C42;_1" xmlns="http://www.w3.org/2000/svg" xmlns:xlink="http://www.w3.org/1999/xlink" x="0px"
	 y="0px" viewBox="12.5 13.5 25.8 23.8" style="enable-background:new 0 0 51.024 51.024;" xml:space="preserve">
<g>
	<path style="fill:#FFFFFF;" d="M19.977,37.192c-3.982,0-7.221-3.157-7.221-7.038c0-3.111,2.139-5.89,5.202-6.759
		c0.897-0.255,1.829,0.267,2.083,1.163c0.254,0.896-0.266,1.829-1.163,2.083c-1.618,0.459-2.747,1.903-2.747,3.512
		c0,2.02,1.726,3.664,3.847,3.664s3.847-1.643,3.847-3.664v-9.333c0-3.881,3.24-7.038,7.222-7.038c3.982,0,7.221,3.157,7.221,7.038
		c0,3.111-2.139,5.89-5.201,6.758c-0.897,0.255-1.829-0.266-2.083-1.163c-0.254-0.897,0.266-1.829,1.163-2.083
		c1.618-0.459,2.748-1.903,2.748-3.512c0-2.02-1.726-3.664-3.847-3.664s-3.847,1.643-3.847,3.664v9.333
		C27.199,34.035,23.959,37.192,19.977,37.192z"/>
</g>
</svg>
