<?xml version="1.0" encoding="iso-8859-1"?>
<!-- Generator: Adobe Illustrator 22.1.0, SVG Export Plug-In . SVG Version: 6.00 Build 0)  -->
<svg version="1.1" id="&#x56FE;&#x5C42;_1" xmlns="http://www.w3.org/2000/svg" xmlns:xlink="http://www.w3.org/1999/xlink" x="0px"
	 y="0px" viewBox="0 0 51.024 51.024" style="enable-background:new 0 0 51.024 51.024;" xml:space="preserve">
<path style="fill:#FFFFFF;" d="M30.317,14.543c0.969,0.397,1.894,0.969,2.731,1.63c0.352,0.264,0.705,0.573,1.013,0.881
	c0.749,0.749,1.366,1.586,1.894,2.467c0.132,0.22,0.264,0.441,0.352,0.661l-5.991,5.947C30.361,25.776,30.317,14.543,30.317,14.543
	L30.317,14.543z M24.238,13.706c0.441-0.044,0.881-0.088,1.366-0.088c1.057,0,2.114,0.132,3.084,0.397
	c0.264,0.088,0.485,0.132,0.749,0.22v8.458c-0.264-0.308-8.282-8.194-8.282-8.194C22.123,14.102,23.136,13.838,24.238,13.706
	L24.238,13.706z M16.22,18.067c0.264-0.352,0.573-0.661,0.881-1.013c0.749-0.749,1.586-1.366,2.467-1.894
	c0.22-0.132,0.441-0.264,0.661-0.352l5.991,5.947c-0.352-0.044-11.63,0-11.63,0C15.031,19.829,15.559,18.904,16.22,18.067
	L16.22,18.067z M13.753,26.833c-0.044-0.44-0.088-0.881-0.088-1.321c0-1.057,0.132-2.071,0.397-3.084
	c0.088-0.264,0.132-0.485,0.22-0.749h8.458c-0.264,0.22-8.194,8.238-8.194,8.238C14.15,28.948,13.885,27.935,13.753,26.833
	L13.753,26.833z M18.07,34.807c-0.352-0.264-0.705-0.573-1.013-0.881c-0.749-0.749-1.366-1.586-1.894-2.467
	c-0.132-0.22-0.264-0.44-0.352-0.661l5.991-5.947c-0.044,0.352,0,11.63,0,11.586C19.832,35.996,18.951,35.468,18.07,34.807
	L18.07,34.807z M26.881,37.318c-0.44,0.044-0.881,0.088-1.321,0.088c-1.057,0-2.115-0.132-3.084-0.397
	c-0.264-0.088-0.485-0.132-0.749-0.22v-8.458c0.22,0.308,8.282,8.194,8.282,8.194C28.995,36.922,27.982,37.186,26.881,37.318
	L26.881,37.318z M34.81,33.001c-0.264,0.352-0.573,0.705-0.881,1.013c-0.749,0.749-1.586,1.366-2.467,1.894
	c-0.22,0.132-0.441,0.264-0.661,0.352L24.81,30.27c0.352,0.044,11.63,0,11.63,0C36.044,31.239,35.515,32.12,34.81,33.001
	L34.81,33.001z M37.057,28.595c-0.088,0.264-0.132,0.485-0.22,0.749h-8.502c0.308-0.22,8.238-8.238,8.238-8.238
	c0.397,0.969,0.661,1.982,0.793,3.084c0.044,0.441,0.088,0.881,0.088,1.322C37.454,26.613,37.321,27.626,37.057,28.595
	L37.057,28.595z M37.057,28.595"/>
</svg>
