<?xml version="1.0" encoding="iso-8859-1"?>
<!-- Generator: Adobe Illustrator 22.1.0, SVG Export Plug-In . SVG Version: 6.00 Build 0)  -->
<svg version="1.1" id="&#x56FE;&#x5C42;_1" xmlns="http://www.w3.org/2000/svg" xmlns:xlink="http://www.w3.org/1999/xlink" x="0px"
	 y="0px" viewBox="0 0 51.024 51.024" style="enable-background:new 0 0 51.024 51.024;" xml:space="preserve">
<path style="fill:#FFFFFF;" d="M24.814,31.662c-0.648,0-1.173,0.526-1.173,1.174c0,0.649,0.525,1.174,1.173,1.174
	c0.648,0,1.173-0.526,1.173-1.174C25.987,32.188,25.462,31.662,24.814,31.662L24.814,31.662z M19.787,31.662
	c-0.647,0-1.173,0.526-1.173,1.174c0,0.649,0.526,1.174,1.173,1.174c0.648,0,1.173-0.526,1.173-1.174
	C20.96,32.188,20.435,31.662,19.787,31.662L19.787,31.662z M37.422,17.067h-4.188c-0.421,0-0.668,0.297-0.844,0.552l-4.643,7.751
	l-2.939-4.77c-0.219-0.383-0.705-0.514-1.085-0.293c0,0-0.188,0.127-0.426,0.475l-1.025,1.657l-1.004-1.804
	c-0.141-0.243-0.385-0.355-0.385-0.355c-0.38-0.22-0.867-0.09-1.087,0.291l-2.758,4.782l-2.702-4.838
	c-0.219-0.383-0.705-0.514-1.085-0.293l-0.073,0.042c-0.38,0.221-0.511,0.71-0.291,1.093l4.981,9.369
	c0.2,0.349,0.707,0.419,0.876,0.43h6.769c0.476,0,0.761-0.013,0.956-0.352l7.207-12.062h2.41l-1.421,2.416
	c-0.22,0.381-0.09,0.869,0.291,1.089l0.073,0.042c0.381,0.22,0.867,0.089,1.087-0.292l1.968-3.363
	C38.514,17.91,38.873,17.067,37.422,17.067L37.422,17.067z M26.641,27.067l-1.576,2.498h-5.696l-1.398-2.521l2.487-4.357
	l1.089,1.761c0.577,0.873,1.11,0.336,1.34,0l1.192-1.748L26.641,27.067z M26.62,27.153"/>
</svg>
