<?xml version="1.0" encoding="iso-8859-1"?>
<!-- Generator: Adobe Illustrator 22.1.0, SVG Export Plug-In . SVG Version: 6.00 Build 0)  -->
<svg version="1.1" id="&#x56FE;&#x5C42;_1" xmlns="http://www.w3.org/2000/svg" xmlns:xlink="http://www.w3.org/1999/xlink" x="0px"
	 y="0px" viewBox="12.8 12.9 25.5 25.2" style="enable-background:new 0 0 51.024 51.024;" xml:space="preserve">
<g>
	<path style="fill:#FFFFFF;" d="M35.643,17.995c-2.293-3.071-5.956-5.06-10.084-5.06c-4.653,0-8.712,2.528-10.888,6.284
		c-0.982,1.696-1.581,3.642-1.675,5.72c-0.009,0.19-0.014,0.381-0.014,0.573c0,1.942,0.441,3.781,1.227,5.423
		c0.987-0.547,1.716-1.595,1.716-2.803c0-0.173-0.123-6.822,0.437-7.962c0.229-1.129,0.589-1.669,0.589-1.669
		s1.831,2.607,2.291,2.737c0.048-1.005,0.79-3.187,0.79-3.187s1.349,1.304,2.564,3.887c0.562,0.054,1.132,0.082,1.709,0.082
		c3.389,0,6.557-0.938,9.264-2.567c1.33,1.512,2.138,3.494,2.138,5.666c0,2.011-0.693,3.859-1.851,5.322
		c-1.572,1.987-4.003,3.263-6.734,3.263c-0.509,0-1.006-0.047-1.49-0.132c-1.077,1.209-1.851,2.693-2.203,4.334
		c0.693,0.118,1.404,0.183,2.13,0.183c4.878,0,9.104-2.779,11.19-6.837c0.885-1.721,1.387-3.671,1.387-5.739
		C38.136,22.693,37.209,20.092,35.643,17.995z"/>
	<circle style="fill:#FFFFFF;" cx="24.606" cy="24.542" r="1.11"/>
	<path style="fill:#FFFFFF;" d="M32.747,29.991c0,0.35-0.284,0.634-0.634,0.634c-0.35,0-0.634-0.284-0.634-0.634
		C31.479,29.806,32.747,29.839,32.747,29.991z"/>
</g>
</svg>
