<?xml version="1.0" encoding="iso-8859-1"?>
<!-- Generator: Adobe Illustrator 22.1.0, SVG Export Plug-In . SVG Version: 6.00 Build 0)  -->
<svg version="1.1" id="&#x56FE;&#x5C42;_1" xmlns="http://www.w3.org/2000/svg" xmlns:xlink="http://www.w3.org/1999/xlink" x="0px"
	 y="0px" viewBox="0 0 51.024 51.024" style="enable-background:new 0 0 51.024 51.024;" xml:space="preserve">
<g>
	<polygon style="fill:#FFFFFF;" points="34.08,21.48 25.261,21.48 24.784,22.291 33.603,22.291 	"/>
	<polygon style="fill:#FFFFFF;" points="19.639,25.814 20.116,25.004 16.481,25.004 16.004,25.814 	"/>
	<polygon style="fill:#FFFFFF;" points="39.095,21.48 38.619,22.291 43.063,22.291 39.644,29.286 36.59,29.286 36.113,30.097 
		40.164,30.097 43.966,22.291 44.925,22.291 45.402,21.48 	"/>
	<polygon style="fill:#FFFFFF;" points="36.054,24.317 35.204,26.173 36.295,25.736 36.295,25.737 38.245,21.48 37.353,21.48 
		36.425,23.506 34.556,23.506 34.08,24.317 	"/>
	<polygon style="fill:#FFFFFF;" points="34.895,26.847 33.168,27.54 32.678,28.609 34.405,27.916 33.406,30.097 34.297,30.097 
		35.988,26.406 34.897,26.842 	"/>
	<polygon style="fill:#FFFFFF;" points="16.547,24.085 16.315,24.595 20.272,24.595 20.643,23.784 21.767,21.329 20.876,21.329 
		19.751,23.784 19.045,23.784 20.17,21.329 19.279,21.329 18.154,23.784 17.574,23.784 18.698,21.329 17.807,21.329 16.545,24.084 	
		"/>
	<polygon style="fill:#FFFFFF;" points="15.473,24.595 16.968,21.329 16.077,21.329 14.581,24.595 	"/>
	<path style="fill:#FFFFFF;" d="M15.908,24.91h-0.92l-0.001,0.002l-3.149,2.869h1.203l0.769-0.7l-1.26,2.324H8.988
		c-1.357,0-2.461-1.11-2.461-2.475c0-1.357,1.104-2.461,2.461-2.461c0.961,0,1.84,0.565,2.239,1.438
		c0.018,0.041,0.036,0.082,0.052,0.123l0.754-0.296c-0.022-0.055-0.045-0.109-0.069-0.163c-0.189-0.413-0.459-0.772-0.785-1.066
		c0.277-0.633,0.919-1.032,1.62-0.982c0.408,0.029,0.788,0.208,1.071,0.504l0.353-0.771c-0.388-0.314-0.862-0.505-1.366-0.541
		c-0.994-0.072-1.912,0.458-2.357,1.319c-0.266-0.139-0.551-0.242-0.848-0.304c0.461-1.259,1.657-2.111,3.026-2.111
		c0.803,0,1.573,0.297,2.167,0.836l0.015-0.016l0.339-0.741c-0.715-0.573-1.599-0.89-2.522-0.89c-1.791,0-3.345,1.166-3.859,2.861
		c-1.726,0.088-3.103,1.516-3.103,3.263c0,1.811,1.468,3.285,3.271,3.285h4.042v-0.007l0.005,0.003L15.908,24.91z"/>
	<polygon style="fill:#FFFFFF;" points="18.969,27.079 19.446,26.269 15.812,26.269 15.367,27.079 15.367,27.079 13.633,30.212 
		14.559,30.212 16.293,27.079 18.032,27.079 16.298,30.212 17.225,30.212 18.959,27.079 	"/>
	<polygon style="fill:#FFFFFF;" points="24.096,22.065 23.607,22.065 23.182,22.065 22.792,22.065 23.129,21.329 22.237,21.329 
		20.741,24.595 21.633,24.595 22.42,22.875 22.761,22.875 21.387,25.519 21.347,25.004 20.537,25.004 20.682,26.875 18.948,30.212 
		19.861,30.212 20.801,28.404 20.942,30.212 21.753,30.212 21.506,27.047 	"/>
	<path style="fill:#FFFFFF;" d="M25.64,25.181h6.453l0.477-0.811h-8.68l-0.477,0.811h1.267l-2.398,3.776
		c-0.065,0.103-0.104,0.221-0.113,0.344l-0.007,0.101c-0.015,0.21,0.059,0.419,0.203,0.572c0.143,0.154,0.346,0.242,0.557,0.242
		h7.118v-0.001c1.282-0.039,2.314-1.094,2.314-2.385c0-1.316-1.071-2.387-2.387-2.387c-0.488,0-0.963,0.15-1.36,0.426l0,0
		l-0.008,0.006c-0.058,0.04-0.114,0.083-0.168,0.129l-3.558,2.725h1.333l2.872-2.199c0.261-0.179,0.571-0.275,0.89-0.275
		c0.869,0,1.576,0.707,1.576,1.576s-0.707,1.576-1.576,1.576h-4.647h-0.034h-2.311l0.002-0.03L25.64,25.181z"/>
</g>
</svg>
