<?xml version="1.0" encoding="iso-8859-1"?>
<!-- Generator: Adobe Illustrator 22.1.0, SVG Export Plug-In . SVG Version: 6.00 Build 0)  -->
<svg version="1.1" id="&#x56FE;&#x5C42;_1" xmlns="http://www.w3.org/2000/svg" xmlns:xlink="http://www.w3.org/1999/xlink" x="0px"
	 y="0px" viewBox="12.5 16.9 25.8 16.9" style="enable-background:new 12.5 12.5 25.8 25.8;" xml:space="preserve">
<path style="fill:#FFFFFF;" d="M24.09,18.042H14.085c-0.288,0.012-0.6,0.167-0.6,0.568v4.841c0,2.705-0.467,4.424-0.667,5.036
	l-0.003,0.011c-0.01,0.027-0.034,0.167,0.049,0.268c0.032,0.043,0.097,0.093,0.214,0.093h1.271c0.268,0,0.399-0.193,0.433-0.25
	l0.007-0.014c0.295-0.62,0.436-1.816,0.561-2.939h2.77v2.285c0,0.231,0.192,0.301,0.309,0.301h1.438l0.034-0.004
	c0.114-0.01,0.242-0.09,0.242-0.297V25.67l2.736,0.001v1.607c0,0.026,0,0.076-0.078,0.076h-0.86c-0.278,0-0.336,0.171-0.336,0.312
	v0.866c0,0.214,0.173,0.327,0.342,0.327c0.013,0,0.025-0.002,0.034-0.003h2.358c0.038,0,0.151-0.002,0.291-0.081
	c0.134-0.075,0.29-0.233,0.29-0.559v-9.363C24.918,18.101,24.528,18.042,24.09,18.042 M15.672,19.592l2.447-0.001
	c0,0.003-0.002,1.494,0,1.496h-2.717v-1.164C15.403,19.922,15.373,19.592,15.672,19.592 M18.119,24.203c-0.005,0.02,0-0.074,0-0.072
	h-2.715V22.62h2.715V24.203z M20.142,19.592h2.422c0.195,0,0.314,0.078,0.314,0.31v1.185h-2.736V19.592z M22.926,24.131h-2.784
	V22.62h2.784V24.131z M37.999,18.664h-7.63c0.047-0.52,0.066-0.832,0.066-0.832c0.025-0.143-0.021-0.232-0.066-0.283
	c-0.09-0.114-0.24-0.115-0.256-0.115h-1.298c-0.248,0-0.349,0.188-0.366,0.285c0,0-0.02,0.357-0.069,0.945h-1.986
	c-0.177,0-0.32,0.144-0.32,0.32v0.892c0,0.177,0.143,0.318,0.32,0.318h1.833c-0.29,2.442-0.916,6.099-2.199,8.164
	c-0.038,0.066-0.099,0.243-0.021,0.377c0.036,0.055,0.103,0.12,0.251,0.121h1.271c0.081-0.001,0.345-0.034,0.512-0.288l0.025-0.039
	c0.003-0.005,0.007-0.013,0.007-0.014c0.828-1.46,1.384-3.669,1.745-5.702h5.058c0.07,0,0.184-0.006,0.184,0.183
	c0,0.324-0.599,1.18-1.387,2.047c-0.404-0.417-0.775-0.866-1.109-1.341c-0.089-0.127-0.239-0.127-0.239-0.127h-1.762
	c-0.162,0-0.176,0.108-0.144,0.184c0.561,1.02,1.253,1.872,1.934,2.563c-0.482,0.406-0.959,0.734-1.365,0.902
	c-0.204,0.084-0.486,0.129-0.644,0.129h-0.379c-0.249,0-0.3,0.149-0.3,0.333v0.891c0,0.221,0.109,0.277,0.284,0.277h0.878
	c0.313,0,0.695-0.081,1.006-0.227c0.51-0.238,1.144-0.65,1.801-1.17c1.259,1.056,2.328,1.445,3.354,1.445h0.818
	c0.152,0,0.318-0.086,0.318-0.28v-1.007c0-0.189-0.124-0.239-0.252-0.239h-0.138c-0.832,0-1.07-0.145-1.389-0.273
	c-0.47-0.259-0.92-0.552-1.346-0.878c1.294-1.311,2.379-2.882,2.379-4.152c0-0.584-0.48-0.798-0.942-0.798h-6.373
	c0.055-0.381,0.101-0.746,0.142-1.084h7.791c0.173,0,0.316-0.142,0.316-0.318v-0.892C38.315,18.809,38.174,18.667,37.999,18.664"/>
<path style="fill:#FFFFFF;" d="M27.413,30.504c-0.087,0.027-0.148,0.106-0.148,0.212v1.739l0.006,0.006v-0.006h0.735
	c0.076,0,0.117-0.048,0.117-0.118v-1.499c0.5-0.132,0.822,0.007,0.822,0.218v1.287c0,0.07,0.034,0.111,0.113,0.111h0.738v-1.362
	C29.797,30.405,28.92,30.08,27.413,30.504L27.413,30.504z M32.629,30.398h-0.633c-0.112,0-0.162,0.039-0.199,0.114
	c-0.016,0.028-0.489,0.959-0.489,0.959c-0.038,0.079-0.111,0.071-0.143,0c0,0-0.416-0.884-0.441-0.927
	c-0.047-0.095-0.125-0.146-0.244-0.146h-0.614c-0.032,0-0.04,0.024-0.032,0.046c0.007,0.024,0.945,2.05,0.945,2.05
	s-0.469,0.911-0.48,0.934c-0.048,0.095,0.011,0.162,0.104,0.162h0.67c0,0,1.584-3.089,1.601-3.12
	C32.689,30.439,32.68,30.398,32.629,30.398L32.629,30.398z M25.729,30.313c-0.428,0-0.746,0.109-0.983,0.32
	c-0.222,0.197-0.35,0.516-0.35,0.777c0,0.324,0.135,0.602,0.34,0.785c0.235,0.211,0.599,0.316,0.994,0.316
	c0.427,0,0.75-0.111,0.991-0.322c0.223-0.198,0.347-0.525,0.347-0.778c0-0.322-0.111-0.582-0.338-0.783
	C26.487,30.42,26.156,30.313,25.729,30.313L25.729,30.313z M26.156,31.617c-0.2,0.377-0.454,0.535-0.751,0.416
	c-0.293-0.119-0.324-0.413-0.104-0.825c0.21-0.39,0.463-0.542,0.751-0.416C26.344,30.917,26.377,31.203,26.156,31.617L26.156,31.617
	z M24.479,30.398h-0.638c-0.109,0-0.158,0.039-0.198,0.114c-0.014,0.028-0.489,0.959-0.489,0.959c-0.038,0.079-0.11,0.071-0.141,0
	c0,0-0.419-0.884-0.442-0.927c-0.048-0.095-0.125-0.146-0.245-0.146h-0.616c-0.031,0-0.038,0.024-0.031,0.046
	c0.008,0.024,0.945,2.05,0.945,2.05s-0.468,0.911-0.479,0.934c-0.045,0.095,0.011,0.162,0.106,0.162h0.669
	c0,0,1.583-3.089,1.601-3.12C24.537,30.439,24.526,30.398,24.479,30.398L24.479,30.398z M37.202,30.398
	c-0.075,0-0.119,0.048-0.119,0.118v1.498c-0.497,0.131-0.818-0.005-0.818-0.219v-1.288c0-0.067-0.039-0.11-0.114-0.11h-0.739v1.362
	c0,0.689,0.879,1.016,2.385,0.591c0.085-0.028,0.146-0.106,0.146-0.212v-1.741L37.202,30.398L37.202,30.398z M33.874,30.313
	c-0.427,0-0.745,0.109-0.982,0.32c-0.227,0.197-0.351,0.516-0.351,0.777c0,0.324,0.135,0.602,0.339,0.785
	c0.235,0.211,0.599,0.316,0.995,0.316c0.428,0,0.75-0.111,0.991-0.322c0.224-0.198,0.348-0.525,0.348-0.778
	c0-0.322-0.112-0.582-0.334-0.783C34.635,30.42,34.302,30.313,33.874,30.313L33.874,30.313z M34.302,31.617
	c-0.2,0.377-0.456,0.535-0.75,0.416c-0.296-0.119-0.325-0.413-0.105-0.825c0.207-0.39,0.464-0.542,0.749-0.416
	C34.488,30.917,34.519,31.203,34.302,31.617L34.302,31.617z M34.302,31.617"/>
</svg>
