<?xml version="1.0" encoding="iso-8859-1"?>
<!-- Generator: Adobe Illustrator 22.1.0, SVG Export Plug-In . SVG Version: 6.00 Build 0)  -->
<svg version="1.1" id="&#x56FE;&#x5C42;_1" xmlns="http://www.w3.org/2000/svg" xmlns:xlink="http://www.w3.org/1999/xlink" x="0px"
	 y="0px" viewBox="12.5 10.5 26 30" style="enable-background:new 0 0 51.024 51.024;" xml:space="preserve">
<path style="fill:#FFFFFF;" d="M36.091,20.329c-0.189,0.013-0.379,0.034-0.568,0.057c-1.596,0.189-3.191,0.389-4.787,0.568
	c-0.953,0.108-1.542-0.412-1.488-1.315c0.051-0.892,0.399-4.952,0.443-6.095c0.064-1.667-0.916-2.867-2.515-3.14
	c-1.342-0.23-2.316,0.544-2.542,1.893c-0.348,2.079-0.723,4.158-1.18,6.214c-0.375,1.673-0.96,3.293-1.825,4.787
	c-0.534,0.923-1.153,1.785-2.15,2.248c-0.341,0.159-0.426,0.345-0.426,0.693c0.01,4.398,0.007,8.799,0.007,13.198v0.466
	c0.227-0.027,0.382-0.044,0.538-0.068c5.152-0.788,10.301-1.575,15.452-2.36c1.359-0.206,2.208-1.271,2.049-2.637
	c-0.064-0.558,0.003-1.075,0.26-1.575c0.426-0.838,0.487-1.714,0.348-2.65c-0.088-0.578-0.101-1.237,0.095-1.771
	c0.463-1.258,0.551-2.468,0.247-3.786c-0.152-0.669,0.04-1.447,0.189-2.153C38.589,21.302,37.724,20.227,36.091,20.329
	L36.091,20.329z M17.579,26.052c0,0-2.566,0.46-3.61,0.669c-0.757,0.152-1.163,0.653-1.163,1.423
	c-0.003,3.736-0.003,7.474,0.003,11.21c0,0.882,0.568,1.4,1.437,1.291c0.957-0.118,1.903-0.301,2.857-0.412
	c0.402-0.047,0.483-0.223,0.48-0.598C17.572,35.301,17.579,26.052,17.579,26.052z"/>
</svg>
